<?xml version="1.0" encoding="UTF-8"?>
<svg xmlns="http://www.w3.org/2000/svg" xmlns:xlink="http://www.w3.org/1999/xlink" width="154.666667" height="185.333333" viewBox="0 0 154.666667 185.333333" version="1.1">
<g id="surface1">
<path style="fill-rule:nonzero;fill:rgb(69.803923%,85.09804%,100%);fill-opacity:1;stroke-width:1;stroke-linecap:round;stroke-linejoin:round;stroke:rgb(0%,0%,0%);stroke-opacity:1;stroke-miterlimit:10;" d="M 152.764648 207.734375 C 157.745117 212.714844 157.745117 220.786133 152.764648 225.766602 C 147.78418 230.74707 139.71582 230.74707 134.735352 225.766602 C 129.754883 220.786133 129.754883 212.714844 134.735352 207.734375 C 139.71582 202.753906 147.78418 202.753906 152.764648 207.734375 " transform="matrix(1.333333,0,0,1.333333,-158.666667,-238.666667)"/>
<path style=" stroke:none;fill-rule:nonzero;fill:rgb(0%,0%,0%);fill-opacity:1;" d="M 29.980469 54.136719 L 32.6875 50.96875 L 31.144531 47.90625 L 32.3125 47.90625 L 32.832031 49.011719 C 33.027344 49.429688 33.199219 49.835938 33.355469 50.21875 L 35.167969 47.90625 L 36.457031 47.90625 L 33.832031 51.054688 L 35.417969 54.136719 L 34.230469 54.136719 L 33.625 52.867188 C 33.484375 52.605469 33.332031 52.273438 33.167969 51.867188 L 31.3125 54.136719 Z M 29.980469 54.136719 "/>
<path style="fill-rule:nonzero;fill:rgb(69.803923%,85.09804%,100%);fill-opacity:1;stroke-width:1;stroke-linecap:round;stroke-linejoin:round;stroke:rgb(0%,0%,0%);stroke-opacity:1;stroke-miterlimit:10;" d="M 217.765625 207.734375 C 222.746094 212.714844 222.746094 220.786133 217.765625 225.766602 C 212.785156 230.74707 204.713867 230.74707 199.733398 225.766602 C 194.75293 220.786133 194.75293 212.714844 199.733398 207.734375 C 204.713867 202.753906 212.785156 202.753906 217.765625 207.734375 " transform="matrix(1.333333,0,0,1.333333,-158.666667,-238.666667)"/>
<path style=" stroke:none;fill-rule:nonzero;fill:rgb(0%,0%,0%);fill-opacity:1;" d="M 116.667969 56.53125 L 116.730469 55.554688 C 116.949219 55.605469 117.167969 55.636719 117.375 55.636719 C 117.582031 55.636719 117.753906 55.585938 117.894531 55.492188 C 118.0625 55.367188 118.25 55.121094 118.457031 54.761719 L 118.792969 54.15625 L 117.75 47.90625 L 118.792969 47.90625 L 119.269531 51.054688 C 119.363281 51.679688 119.441406 52.304688 119.5 52.929688 L 122.292969 47.90625 L 123.394531 47.90625 L 119.4375 54.96875 C 119.046875 55.648438 118.699219 56.101562 118.394531 56.324219 C 118.105469 56.542969 117.769531 56.65625 117.394531 56.65625 C 117.144531 56.65625 116.902344 56.617188 116.667969 56.53125 Z M 116.667969 56.53125 "/>
<path style="fill:none;stroke-width:1;stroke-linecap:round;stroke-linejoin:round;stroke:rgb(0%,0%,0%);stroke-opacity:1;stroke-miterlimit:10;" d="M 185.266602 251.735352 C 190.24707 256.71582 190.24707 264.78418 185.266602 269.764648 C 180.286133 274.745117 172.214844 274.745117 167.234375 269.764648 C 162.253906 264.78418 162.253906 256.71582 167.234375 251.735352 C 172.214844 246.754883 180.286133 246.754883 185.266602 251.735352 " transform="matrix(1.333333,0,0,1.333333,-158.666667,-238.666667)"/>
<path style=" stroke:none;fill-rule:nonzero;fill:rgb(0%,0%,0%);fill-opacity:1;" d="M 72.226562 115.179688 L 72.226562 114.429688 L 79.226562 114.429688 L 79.226562 115.179688 Z M 72.226562 115.179688 "/>
<path style="fill-rule:nonzero;fill:rgb(41.568628%,75.294119%,98.823529%);fill-opacity:1;stroke-width:1;stroke-linecap:round;stroke-linejoin:round;stroke:rgb(0%,0%,0%);stroke-opacity:1;stroke-miterlimit:10;" d="M 185.266602 295.733398 C 190.24707 300.713867 190.24707 308.785156 185.266602 313.765625 C 180.286133 318.746094 172.214844 318.746094 167.234375 313.765625 C 162.253906 308.785156 162.253906 300.713867 167.234375 295.733398 C 172.214844 290.75293 180.286133 290.75293 185.266602 295.733398 " transform="matrix(1.333333,0,0,1.333333,-158.666667,-238.666667)"/>
<path style=" stroke:none;fill-rule:nonzero;fill:rgb(0%,0%,0%);fill-opacity:1;" d="M 73.5625 171.46875 L 73.730469 170.65625 L 77.082031 166.886719 C 77.316406 166.625 77.582031 166.34375 77.875 166.054688 C 77.375 166.109375 77.011719 166.136719 76.792969 166.136719 L 74.480469 166.136719 L 74.667969 165.242188 L 79.480469 165.242188 L 79.332031 165.90625 L 75.957031 169.699219 C 75.777344 169.921875 75.488281 170.21875 75.105469 170.59375 C 75.699219 170.554688 76.105469 170.53125 76.3125 170.53125 L 78.769531 170.53125 L 78.582031 171.46875 Z M 73.5625 171.46875 "/>
<path style="fill:none;stroke-width:1;stroke-linecap:round;stroke-linejoin:miter;stroke:rgb(0%,0%,0%);stroke-opacity:1;stroke-miterlimit:10;" d="M 151.43457 226.926758 L 160.71582 239.213867 L 165.391602 245.585938 " transform="matrix(1.333333,0,0,1.333333,-158.666667,-238.666667)"/>
<path style="fill-rule:nonzero;fill:rgb(0%,0%,0%);fill-opacity:1;stroke-width:1;stroke-linecap:butt;stroke-linejoin:miter;stroke:rgb(0%,0%,0%);stroke-opacity:1;stroke-miterlimit:10;" d="M 167.729492 248.832031 L 166.604492 244.707031 L 164.172852 246.464844 Z M 167.729492 248.832031 " transform="matrix(1.333333,0,0,1.333333,-158.666667,-238.666667)"/>
<path style="fill:none;stroke-width:1;stroke-linecap:round;stroke-linejoin:miter;stroke:rgb(0%,0%,0%);stroke-opacity:1;stroke-miterlimit:10;" d="M 201.171875 227.008789 L 187.332031 245.74707 " transform="matrix(1.333333,0,0,1.333333,-158.666667,-238.666667)"/>
<path style="fill-rule:nonzero;fill:rgb(0%,0%,0%);fill-opacity:1;stroke-width:1;stroke-linecap:butt;stroke-linejoin:miter;stroke:rgb(0%,0%,0%);stroke-opacity:1;stroke-miterlimit:10;" d="M 184.956055 248.963867 L 188.539062 246.637695 L 186.125 244.856445 Z M 184.956055 248.963867 " transform="matrix(1.333333,0,0,1.333333,-158.666667,-238.666667)"/>
<path style="fill:none;stroke-width:1;stroke-linecap:round;stroke-linejoin:miter;stroke:rgb(0%,0%,0%);stroke-opacity:1;stroke-miterlimit:10;" d="M 176.249023 273.5 L 176.249023 286.100586 " transform="matrix(1.333333,0,0,1.333333,-158.666667,-238.666667)"/>
<path style="fill-rule:nonzero;fill:rgb(0%,0%,0%);fill-opacity:1;stroke-width:1;stroke-linecap:butt;stroke-linejoin:miter;stroke:rgb(0%,0%,0%);stroke-opacity:1;stroke-miterlimit:10;" d="M 176.249023 290.102539 L 177.749023 286.100586 L 174.749023 286.100586 Z M 176.249023 290.102539 " transform="matrix(1.333333,0,0,1.333333,-158.666667,-238.666667)"/>
<path style=" stroke:none;fill-rule:nonzero;fill:rgb(0%,0%,0%);fill-opacity:1;" d="M 13.417969 112.804688 L 15.6875 109.574219 L 13.582031 106.574219 L 14.917969 106.574219 L 15.875 108.03125 C 16.042969 108.3125 16.175781 108.546875 16.292969 108.742188 C 16.46875 108.480469 16.628906 108.25 16.769531 108.054688 L 17.8125 106.574219 L 19.082031 106.574219 L 16.9375 109.511719 L 19.25 112.804688 L 17.957031 112.804688 L 16.667969 110.867188 L 16.332031 110.34375 L 14.707031 112.804688 Z M 13.417969 112.804688 "/>
<path style=" stroke:none;fill-rule:nonzero;fill:rgb(0%,0%,0%);fill-opacity:1;" d="M 23.042969 105.78125 L 23.3125 104.949219 C 23.9375 105.171875 24.386719 105.367188 24.667969 105.53125 C 24.59375 104.824219 24.550781 104.339844 24.542969 104.074219 L 25.394531 104.074219 C 25.378906 104.449219 25.339844 104.929688 25.269531 105.511719 C 25.671875 105.320312 26.128906 105.132812 26.644531 104.949219 L 26.917969 105.78125 C 26.417969 105.949219 25.925781 106.0625 25.457031 106.117188 C 25.691406 106.324219 26.027344 106.695312 26.457031 107.21875 L 25.769531 107.71875 C 25.53125 107.417969 25.261719 107 24.957031 106.46875 C 24.667969 107.011719 24.40625 107.429688 24.1875 107.71875 L 23.5 107.21875 C 23.957031 106.667969 24.28125 106.296875 24.480469 106.117188 C 23.980469 106.023438 23.5 105.90625 23.042969 105.78125 Z M 23.042969 105.78125 "/>
<path style=" stroke:none;fill-rule:nonzero;fill:rgb(0%,0%,0%);fill-opacity:1;" d="M 31.421875 115.199219 L 31.296875 114.21875 C 31.53125 114.273438 31.734375 114.304688 31.898438 114.304688 C 32.132812 114.304688 32.320312 114.261719 32.460938 114.179688 C 32.597656 114.105469 32.71875 114 32.816406 113.867188 C 32.867188 113.75 32.972656 113.492188 33.128906 113.074219 C 33.15625 113.015625 33.191406 112.933594 33.234375 112.824219 L 30.859375 106.574219 L 32.003906 106.574219 L 33.296875 110.179688 C 33.460938 110.636719 33.613281 111.117188 33.753906 111.617188 C 33.863281 111.148438 34.003906 110.671875 34.171875 110.199219 L 35.503906 106.574219 L 36.566406 106.574219 L 34.191406 112.90625 C 33.941406 113.585938 33.742188 114.058594 33.609375 114.324219 C 33.410156 114.667969 33.195312 114.917969 32.960938 115.074219 C 32.722656 115.242188 32.429688 115.324219 32.085938 115.324219 C 31.890625 115.324219 31.671875 115.28125 31.421875 115.199219 Z M 31.421875 115.199219 "/>
<path style=" stroke:none;fill-rule:nonzero;fill:rgb(0%,0%,0%);fill-opacity:1;" d="M 13.144531 173.84375 L 13.144531 173.09375 L 20.144531 173.09375 L 20.144531 173.84375 Z M 13.144531 173.84375 "/>
<path style=" stroke:none;fill-rule:nonzero;fill:rgb(0%,0%,0%);fill-opacity:1;" d="M 26.339844 170.074219 L 26.339844 167.71875 L 24.007812 167.71875 L 24.007812 166.742188 L 26.339844 166.742188 L 26.339844 164.40625 L 27.339844 164.40625 L 27.339844 166.742188 L 29.675781 166.742188 L 29.675781 167.71875 L 27.339844 167.71875 L 27.339844 170.074219 Z M 26.339844 170.074219 "/>
<path style=" stroke:none;fill-rule:nonzero;fill:rgb(0%,0%,0%);fill-opacity:1;" d="M 39.722656 170.449219 L 39.722656 171.46875 L 34.035156 171.46875 C 34.035156 171.21875 34.078125 170.980469 34.160156 170.742188 C 34.3125 170.355469 34.546875 169.96875 34.871094 169.59375 C 35.1875 169.21875 35.644531 168.792969 36.246094 168.304688 C 37.171875 167.527344 37.796875 166.917969 38.121094 166.46875 C 38.453125 166.027344 38.621094 165.605469 38.621094 165.199219 C 38.621094 164.78125 38.464844 164.4375 38.160156 164.15625 C 37.871094 163.867188 37.484375 163.71875 37.015625 163.71875 C 36.5 163.71875 36.089844 163.875 35.785156 164.179688 C 35.480469 164.484375 35.328125 164.90625 35.328125 165.449219 L 34.246094 165.324219 C 34.3125 164.523438 34.589844 163.90625 35.078125 163.492188 C 35.5625 163.0625 36.214844 162.84375 37.035156 162.84375 C 37.855469 162.84375 38.5 163.074219 38.972656 163.53125 C 39.457031 163.992188 39.703125 164.554688 39.703125 165.21875 C 39.703125 165.570312 39.628906 165.90625 39.496094 166.242188 C 39.355469 166.574219 39.121094 166.929688 38.785156 167.304688 C 38.464844 167.667969 37.933594 168.167969 37.183594 168.804688 C 36.542969 169.335938 36.128906 169.695312 35.953125 169.886719 C 35.769531 170.085938 35.625 170.273438 35.515625 170.449219 Z M 39.722656 170.449219 "/>
<path style=" stroke:none;fill-rule:nonzero;fill:rgb(0%,0%,0%);fill-opacity:1;" d="M 7.070312 14.230469 C 7.070312 13.078125 7.386719 12.222656 8.027344 11.667969 C 8.570312 11.207031 9.222656 10.980469 9.988281 10.980469 C 10.847656 10.980469 11.550781 11.261719 12.089844 11.8125 C 12.632812 12.371094 12.902344 13.140625 12.902344 14.125 C 12.902344 14.933594 12.777344 15.5625 12.527344 16.019531 C 12.289062 16.480469 11.945312 16.84375 11.488281 17.105469 C 11.027344 17.355469 10.527344 17.480469 9.988281 17.480469 C 9.113281 17.480469 8.402344 17.203125 7.863281 16.644531 C 7.332031 16.078125 7.070312 15.269531 7.070312 14.230469 Z M 8.152344 14.230469 C 8.152344 15.019531 8.324219 15.621094 8.675781 16.019531 C 9.019531 16.410156 9.457031 16.605469 9.988281 16.605469 C 10.511719 16.605469 10.949219 16.410156 11.300781 16.019531 C 11.644531 15.621094 11.820312 15.011719 11.820312 14.1875 C 11.820312 13.425781 11.644531 12.84375 11.300781 12.4375 C 10.949219 12.035156 10.511719 11.832031 9.988281 11.832031 C 9.457031 11.832031 9.019531 12.035156 8.675781 12.4375 C 8.324219 12.828125 8.152344 13.425781 8.152344 14.230469 Z M 8.152344 14.230469 "/>
<path style=" stroke:none;fill-rule:nonzero;fill:rgb(0%,0%,0%);fill-opacity:1;" d="M 14.140625 17.332031 L 14.140625 11.105469 L 15.097656 11.105469 L 15.097656 12 C 15.539062 11.324219 16.203125 10.980469 17.078125 10.980469 C 17.453125 10.980469 17.789062 11.050781 18.097656 11.1875 C 18.414062 11.3125 18.648438 11.488281 18.804688 11.707031 C 18.957031 11.917969 19.066406 12.175781 19.140625 12.480469 C 19.179688 12.675781 19.203125 13.015625 19.203125 13.5 L 19.203125 17.332031 L 18.140625 17.332031 L 18.140625 13.542969 C 18.140625 13.113281 18.097656 12.792969 18.015625 12.582031 C 17.929688 12.375 17.785156 12.207031 17.578125 12.082031 C 17.367188 11.949219 17.125 11.875 16.847656 11.875 C 16.398438 11.875 16.015625 12.019531 15.679688 12.3125 C 15.359375 12.59375 15.203125 13.136719 15.203125 13.9375 L 15.203125 17.332031 Z M 14.140625 17.332031 "/>
<path style=" stroke:none;fill-rule:nonzero;fill:rgb(0%,0%,0%);fill-opacity:1;" d="M 25.0625 15.332031 L 26.167969 15.457031 C 25.984375 16.097656 25.65625 16.597656 25.1875 16.957031 C 24.730469 17.308594 24.136719 17.480469 23.417969 17.480469 C 22.511719 17.480469 21.792969 17.203125 21.25 16.644531 C 20.71875 16.078125 20.460938 15.285156 20.460938 14.269531 C 20.460938 13.230469 20.730469 12.425781 21.273438 11.855469 C 21.8125 11.269531 22.511719 10.980469 23.375 10.980469 C 24.210938 10.980469 24.882812 11.265625 25.398438 11.832031 C 25.921875 12.390625 26.1875 13.183594 26.1875 14.207031 C 26.1875 14.28125 26.1875 14.375 26.1875 14.5 L 21.542969 14.5 C 21.585938 15.183594 21.777344 15.703125 22.125 16.0625 C 22.46875 16.425781 22.90625 16.605469 23.4375 16.605469 C 23.824219 16.605469 24.152344 16.511719 24.417969 16.3125 C 24.695312 16.105469 24.90625 15.78125 25.0625 15.332031 Z M 21.605469 13.625 L 25.085938 13.625 C 25.042969 13.097656 24.90625 12.703125 24.6875 12.4375 C 24.355469 12.035156 23.917969 11.832031 23.375 11.832031 C 22.886719 11.832031 22.480469 12 22.148438 12.332031 C 21.824219 12.65625 21.648438 13.082031 21.605469 13.625 Z M 21.605469 13.625 "/>
<path style=" stroke:none;fill-rule:nonzero;fill:rgb(0%,0%,0%);fill-opacity:1;" d="M 27.070312 15.480469 L 28.113281 15.3125 C 28.164062 15.730469 28.328125 16.050781 28.59375 16.269531 C 28.867188 16.496094 29.242188 16.605469 29.71875 16.605469 C 30.203125 16.605469 30.5625 16.511719 30.800781 16.3125 C 31.035156 16.121094 31.15625 15.890625 31.15625 15.625 C 31.15625 15.375 31.050781 15.1875 30.84375 15.0625 C 30.6875 14.96875 30.328125 14.84375 29.757812 14.6875 C 28.976562 14.496094 28.4375 14.328125 28.132812 14.1875 C 27.84375 14.050781 27.617188 13.855469 27.46875 13.605469 C 27.3125 13.355469 27.238281 13.078125 27.238281 12.769531 C 27.238281 12.496094 27.300781 12.238281 27.425781 12 C 27.550781 11.765625 27.722656 11.5625 27.945312 11.394531 C 28.113281 11.285156 28.332031 11.1875 28.613281 11.105469 C 28.90625 11.019531 29.207031 10.980469 29.53125 10.980469 C 30.015625 10.980469 30.4375 11.050781 30.800781 11.1875 C 31.175781 11.328125 31.453125 11.515625 31.632812 11.75 C 31.8125 11.988281 31.9375 12.308594 32.007812 12.707031 L 30.96875 12.855469 C 30.925781 12.535156 30.785156 12.285156 30.550781 12.105469 C 30.328125 11.925781 30.015625 11.832031 29.613281 11.832031 C 29.125 11.832031 28.78125 11.917969 28.570312 12.082031 C 28.363281 12.238281 28.257812 12.425781 28.257812 12.644531 C 28.257812 12.785156 28.300781 12.90625 28.382812 13 C 28.46875 13.125 28.601562 13.222656 28.800781 13.292969 C 28.894531 13.332031 29.203125 13.425781 29.71875 13.5625 C 30.46875 13.761719 30.988281 13.917969 31.28125 14.042969 C 31.582031 14.167969 31.820312 14.355469 31.988281 14.605469 C 32.15625 14.84375 32.238281 15.140625 32.238281 15.5 C 32.238281 15.863281 32.132812 16.199219 31.925781 16.5 C 31.71875 16.808594 31.414062 17.050781 31.03125 17.230469 C 30.65625 17.394531 30.21875 17.480469 29.71875 17.480469 C 28.910156 17.480469 28.289062 17.3125 27.863281 16.980469 C 27.445312 16.636719 27.179688 16.136719 27.070312 15.480469 Z M 27.070312 15.480469 "/>
<path style=" stroke:none;fill-rule:nonzero;fill:rgb(0%,0%,0%);fill-opacity:1;" d="M 35.507812 19.855469 C 34.925781 19.113281 34.429688 18.261719 34.03125 17.292969 C 33.625 16.308594 33.425781 15.285156 33.425781 14.230469 C 33.425781 13.300781 33.578125 12.40625 33.882812 11.542969 C 34.226562 10.558594 34.769531 9.578125 35.507812 8.605469 L 36.257812 8.605469 C 35.785156 9.410156 35.472656 9.988281 35.320312 10.332031 C 35.082031 10.875 34.894531 11.4375 34.757812 12.019531 C 34.59375 12.761719 34.507812 13.496094 34.507812 14.230469 C 34.507812 16.105469 35.09375 17.980469 36.257812 19.855469 Z M 35.507812 19.855469 "/>
<path style=" stroke:none;fill-rule:nonzero;fill:rgb(0%,0%,0%);fill-opacity:1;" d="M 41.171875 17.332031 L 40.109375 17.332031 L 40.109375 10.605469 C 39.859375 10.855469 39.527344 11.105469 39.109375 11.355469 C 38.691406 11.59375 38.324219 11.765625 38.003906 11.875 L 38.003906 10.855469 C 38.589844 10.59375 39.097656 10.265625 39.546875 9.875 C 39.988281 9.472656 40.300781 9.082031 40.484375 8.707031 L 41.171875 8.707031 Z M 41.171875 17.332031 "/>
<path style=" stroke:none;fill-rule:nonzero;fill:rgb(0%,0%,0%);fill-opacity:1;" d="M 44.429688 17.332031 L 44.429688 16.125 L 45.636719 16.125 L 45.636719 17.332031 C 45.636719 17.777344 45.554688 18.128906 45.386719 18.394531 C 45.230469 18.671875 44.992188 18.886719 44.660156 19.042969 L 44.367188 18.582031 C 44.585938 18.484375 44.746094 18.339844 44.847656 18.144531 C 44.957031 17.964844 45.019531 17.691406 45.035156 17.332031 Z M 44.429688 17.332031 "/>
<path style=" stroke:none;fill-rule:nonzero;fill:rgb(0%,0%,0%);fill-opacity:1;" d="M 56.078125 16.3125 L 56.078125 17.332031 L 50.390625 17.332031 C 50.390625 17.082031 50.429688 16.84375 50.515625 16.605469 C 50.664062 16.21875 50.898438 15.832031 51.222656 15.457031 C 51.539062 15.082031 52 14.65625 52.597656 14.167969 C 53.523438 13.390625 54.148438 12.78125 54.472656 12.332031 C 54.804688 11.890625 54.972656 11.46875 54.972656 11.0625 C 54.972656 10.644531 54.816406 10.300781 54.515625 10.019531 C 54.222656 9.730469 53.835938 9.582031 53.367188 9.582031 C 52.851562 9.582031 52.441406 9.738281 52.140625 10.042969 C 51.832031 10.347656 51.679688 10.769531 51.679688 11.3125 L 50.597656 11.1875 C 50.664062 10.386719 50.941406 9.769531 51.429688 9.355469 C 51.914062 8.925781 52.566406 8.707031 53.390625 8.707031 C 54.207031 8.707031 54.851562 8.9375 55.328125 9.394531 C 55.8125 9.855469 56.054688 10.417969 56.054688 11.082031 C 56.054688 11.433594 55.984375 11.769531 55.847656 12.105469 C 55.707031 12.4375 55.472656 12.792969 55.140625 13.167969 C 54.816406 13.53125 54.285156 14.03125 53.535156 14.667969 C 52.894531 15.199219 52.484375 15.558594 52.304688 15.75 C 52.125 15.949219 51.976562 16.136719 51.867188 16.3125 Z M 56.078125 16.3125 "/>
<path style=" stroke:none;fill-rule:nonzero;fill:rgb(0%,0%,0%);fill-opacity:1;" d="M 58.1875 19.855469 L 57.4375 19.855469 C 58.605469 17.980469 59.1875 16.105469 59.1875 14.230469 C 59.1875 13.496094 59.105469 12.765625 58.9375 12.042969 C 58.796875 11.457031 58.609375 10.894531 58.375 10.355469 C 58.21875 10.011719 57.90625 9.425781 57.4375 8.605469 L 58.1875 8.605469 C 58.921875 9.578125 59.464844 10.558594 59.8125 11.542969 C 60.117188 12.40625 60.273438 13.300781 60.273438 14.230469 C 60.273438 15.285156 60.070312 16.308594 59.667969 17.292969 C 59.261719 18.261719 58.773438 19.113281 58.1875 19.855469 Z M 58.1875 19.855469 "/>
<path style=" stroke:none;fill-rule:nonzero;fill:rgb(0%,0%,0%);fill-opacity:1;" d="M 93.738281 14.230469 C 93.738281 13.078125 94.054688 12.222656 94.695312 11.667969 C 95.238281 11.207031 95.886719 10.980469 96.652344 10.980469 C 97.511719 10.980469 98.214844 11.261719 98.757812 11.8125 C 99.300781 12.371094 99.570312 13.140625 99.570312 14.125 C 99.570312 14.933594 99.445312 15.5625 99.195312 16.019531 C 98.957031 16.480469 98.613281 16.84375 98.152344 17.105469 C 97.695312 17.355469 97.195312 17.480469 96.652344 17.480469 C 95.777344 17.480469 95.070312 17.203125 94.527344 16.644531 C 93.996094 16.078125 93.738281 15.269531 93.738281 14.230469 Z M 94.820312 14.230469 C 94.820312 15.019531 94.992188 15.621094 95.339844 16.019531 C 95.683594 16.410156 96.121094 16.605469 96.652344 16.605469 C 97.179688 16.605469 97.617188 16.410156 97.964844 16.019531 C 98.308594 15.621094 98.488281 15.011719 98.488281 14.1875 C 98.488281 13.425781 98.308594 12.84375 97.964844 12.4375 C 97.617188 12.035156 97.179688 11.832031 96.652344 11.832031 C 96.121094 11.832031 95.683594 12.035156 95.339844 12.4375 C 94.992188 12.828125 94.820312 13.425781 94.820312 14.230469 Z M 94.820312 14.230469 "/>
<path style=" stroke:none;fill-rule:nonzero;fill:rgb(0%,0%,0%);fill-opacity:1;" d="M 100.804688 17.332031 L 100.804688 11.105469 L 101.765625 11.105469 L 101.765625 12 C 102.207031 11.324219 102.867188 10.980469 103.742188 10.980469 C 104.117188 10.980469 104.457031 11.050781 104.765625 11.1875 C 105.082031 11.3125 105.316406 11.488281 105.472656 11.707031 C 105.625 11.917969 105.734375 12.175781 105.804688 12.480469 C 105.847656 12.675781 105.867188 13.015625 105.867188 13.5 L 105.867188 17.332031 L 104.804688 17.332031 L 104.804688 13.542969 C 104.804688 13.113281 104.765625 12.792969 104.679688 12.582031 C 104.597656 12.375 104.453125 12.207031 104.242188 12.082031 C 104.035156 11.949219 103.789062 11.875 103.515625 11.875 C 103.066406 11.875 102.679688 12.019531 102.347656 12.3125 C 102.023438 12.59375 101.867188 13.136719 101.867188 13.9375 L 101.867188 17.332031 Z M 100.804688 17.332031 "/>
<path style=" stroke:none;fill-rule:nonzero;fill:rgb(0%,0%,0%);fill-opacity:1;" d="M 111.730469 15.332031 L 112.835938 15.457031 C 112.652344 16.097656 112.324219 16.597656 111.855469 16.957031 C 111.398438 17.308594 110.804688 17.480469 110.085938 17.480469 C 109.179688 17.480469 108.460938 17.203125 107.917969 16.644531 C 107.386719 16.078125 107.125 15.285156 107.125 14.269531 C 107.125 13.230469 107.398438 12.425781 107.9375 11.855469 C 108.480469 11.269531 109.179688 10.980469 110.042969 10.980469 C 110.875 10.980469 111.546875 11.265625 112.0625 11.832031 C 112.589844 12.390625 112.855469 13.183594 112.855469 14.207031 C 112.855469 14.28125 112.855469 14.375 112.855469 14.5 L 108.210938 14.5 C 108.25 15.183594 108.445312 15.703125 108.792969 16.0625 C 109.136719 16.425781 109.574219 16.605469 110.105469 16.605469 C 110.492188 16.605469 110.820312 16.511719 111.085938 16.3125 C 111.359375 16.105469 111.574219 15.78125 111.730469 15.332031 Z M 108.273438 13.625 L 111.75 13.625 C 111.710938 13.097656 111.574219 12.703125 111.355469 12.4375 C 111.023438 12.035156 110.585938 11.832031 110.042969 11.832031 C 109.554688 11.832031 109.148438 12 108.8125 12.332031 C 108.492188 12.65625 108.3125 13.082031 108.273438 13.625 Z M 108.273438 13.625 "/>
<path style=" stroke:none;fill-rule:nonzero;fill:rgb(0%,0%,0%);fill-opacity:1;" d="M 113.738281 15.480469 L 114.78125 15.3125 C 114.832031 15.730469 114.992188 16.050781 115.257812 16.269531 C 115.535156 16.496094 115.910156 16.605469 116.382812 16.605469 C 116.867188 16.605469 117.226562 16.511719 117.46875 16.3125 C 117.703125 16.121094 117.820312 15.890625 117.820312 15.625 C 117.820312 15.375 117.71875 15.1875 117.507812 15.0625 C 117.351562 14.96875 116.992188 14.84375 116.425781 14.6875 C 115.644531 14.496094 115.101562 14.328125 114.800781 14.1875 C 114.507812 14.050781 114.285156 13.855469 114.132812 13.605469 C 113.976562 13.355469 113.90625 13.078125 113.90625 12.769531 C 113.90625 12.496094 113.96875 12.238281 114.09375 12 C 114.21875 11.765625 114.390625 11.5625 114.613281 11.394531 C 114.78125 11.285156 115 11.1875 115.28125 11.105469 C 115.570312 11.019531 115.875 10.980469 116.195312 10.980469 C 116.679688 10.980469 117.101562 11.050781 117.46875 11.1875 C 117.84375 11.328125 118.117188 11.515625 118.300781 11.75 C 118.476562 11.988281 118.601562 12.308594 118.675781 12.707031 L 117.632812 12.855469 C 117.59375 12.535156 117.453125 12.285156 117.21875 12.105469 C 116.992188 11.925781 116.679688 11.832031 116.28125 11.832031 C 115.789062 11.832031 115.445312 11.917969 115.238281 12.082031 C 115.03125 12.238281 114.925781 12.425781 114.925781 12.644531 C 114.925781 12.785156 114.96875 12.90625 115.050781 13 C 115.132812 13.125 115.269531 13.222656 115.46875 13.292969 C 115.5625 13.332031 115.867188 13.425781 116.382812 13.5625 C 117.132812 13.761719 117.65625 13.917969 117.945312 14.042969 C 118.25 14.167969 118.488281 14.355469 118.65625 14.605469 C 118.820312 14.84375 118.90625 15.140625 118.90625 15.5 C 118.90625 15.863281 118.800781 16.199219 118.59375 16.5 C 118.382812 16.808594 118.082031 17.050781 117.695312 17.230469 C 117.320312 17.394531 116.882812 17.480469 116.382812 17.480469 C 115.578125 17.480469 114.957031 17.3125 114.53125 16.980469 C 114.113281 16.636719 113.847656 16.136719 113.738281 15.480469 Z M 113.738281 15.480469 "/>
<path style=" stroke:none;fill-rule:nonzero;fill:rgb(0%,0%,0%);fill-opacity:1;" d="M 122.175781 19.855469 C 121.59375 19.113281 121.097656 18.261719 120.695312 17.292969 C 120.289062 16.308594 120.09375 15.285156 120.09375 14.230469 C 120.09375 13.300781 120.242188 12.40625 120.550781 11.542969 C 120.894531 10.558594 121.4375 9.578125 122.175781 8.605469 L 122.925781 8.605469 C 122.453125 9.410156 122.140625 9.988281 121.988281 10.332031 C 121.75 10.875 121.5625 11.4375 121.425781 12.019531 C 121.257812 12.761719 121.175781 13.496094 121.175781 14.230469 C 121.175781 16.105469 121.757812 17.980469 122.925781 19.855469 Z M 122.175781 19.855469 "/>
<path style=" stroke:none;fill-rule:nonzero;fill:rgb(0%,0%,0%);fill-opacity:1;" d="M 127.839844 17.332031 L 126.777344 17.332031 L 126.777344 10.605469 C 126.527344 10.855469 126.191406 11.105469 125.777344 11.355469 C 125.359375 11.59375 124.988281 11.765625 124.671875 11.875 L 124.671875 10.855469 C 125.253906 10.59375 125.765625 10.265625 126.214844 9.875 C 126.65625 9.472656 126.96875 9.082031 127.152344 8.707031 L 127.839844 8.707031 Z M 127.839844 17.332031 "/>
<path style=" stroke:none;fill-rule:nonzero;fill:rgb(0%,0%,0%);fill-opacity:1;" d="M 131.097656 17.332031 L 131.097656 16.125 L 132.304688 16.125 L 132.304688 17.332031 C 132.304688 17.777344 132.222656 18.128906 132.054688 18.394531 C 131.898438 18.671875 131.660156 18.886719 131.324219 19.042969 L 131.035156 18.582031 C 131.253906 18.484375 131.414062 18.339844 131.511719 18.144531 C 131.621094 17.964844 131.683594 17.691406 131.699219 17.332031 Z M 131.097656 17.332031 "/>
<path style=" stroke:none;fill-rule:nonzero;fill:rgb(0%,0%,0%);fill-opacity:1;" d="M 142.742188 16.3125 L 142.742188 17.332031 L 137.054688 17.332031 C 137.054688 17.082031 137.097656 16.84375 137.179688 16.605469 C 137.332031 16.21875 137.566406 15.832031 137.890625 15.457031 C 138.207031 15.082031 138.664062 14.65625 139.265625 14.167969 C 140.191406 13.390625 140.816406 12.78125 141.140625 12.332031 C 141.472656 11.890625 141.640625 11.46875 141.640625 11.0625 C 141.640625 10.644531 141.484375 10.300781 141.179688 10.019531 C 140.890625 9.730469 140.503906 9.582031 140.035156 9.582031 C 139.519531 9.582031 139.109375 9.738281 138.804688 10.042969 C 138.5 10.347656 138.347656 10.769531 138.347656 11.3125 L 137.265625 11.1875 C 137.332031 10.386719 137.609375 9.769531 138.097656 9.355469 C 138.582031 8.925781 139.234375 8.707031 140.054688 8.707031 C 140.875 8.707031 141.519531 8.9375 141.992188 9.394531 C 142.476562 9.855469 142.722656 10.417969 142.722656 11.082031 C 142.722656 11.433594 142.648438 11.769531 142.515625 12.105469 C 142.375 12.4375 142.140625 12.792969 141.804688 13.167969 C 141.484375 13.53125 140.953125 14.03125 140.203125 14.667969 C 139.5625 15.199219 139.148438 15.558594 138.972656 15.75 C 138.789062 15.949219 138.644531 16.136719 138.535156 16.3125 Z M 142.742188 16.3125 "/>
<path style=" stroke:none;fill-rule:nonzero;fill:rgb(0%,0%,0%);fill-opacity:1;" d="M 144.855469 19.855469 L 144.105469 19.855469 C 145.273438 17.980469 145.855469 16.105469 145.855469 14.230469 C 145.855469 13.496094 145.773438 12.765625 145.605469 12.042969 C 145.464844 11.457031 145.277344 10.894531 145.042969 10.355469 C 144.886719 10.011719 144.574219 9.425781 144.105469 8.605469 L 144.855469 8.605469 C 145.589844 9.578125 146.132812 10.558594 146.480469 11.542969 C 146.78125 12.40625 146.9375 13.300781 146.9375 14.230469 C 146.9375 15.285156 146.734375 16.308594 146.335938 17.292969 C 145.929688 18.261719 145.4375 19.113281 144.855469 19.855469 Z M 144.855469 19.855469 "/>
</g>
</svg>
