<?xml version="1.0" encoding="UTF-8"?>
<svg xmlns="http://www.w3.org/2000/svg" xmlns:xlink="http://www.w3.org/1999/xlink" width="525.333333" height="236" viewBox="0 0 525.333333 236" version="1.1">
<g id="surface1">
<path style="fill-rule:nonzero;fill:rgb(100%,100%,100%);fill-opacity:1;stroke-width:1;stroke-linecap:round;stroke-linejoin:round;stroke:rgb(0%,0%,0%);stroke-opacity:1;stroke-miterlimit:10;" d="M 111.999023 235.887695 L 244.5 235.887695 C 248.917969 235.887695 252.500977 239.467773 252.500977 243.885742 L 252.500977 306.885742 C 252.500977 311.303711 248.917969 314.886719 244.5 314.886719 L 111.999023 314.886719 C 107.581055 314.886719 104.000977 311.303711 104.000977 306.885742 L 104.000977 243.885742 C 104.000977 239.467773 107.581055 235.887695 111.999023 235.887695 Z M 111.999023 235.887695 " transform="matrix(1.333333,0,0,1.333333,44,-313.333333)"/>
<path style="fill-rule:nonzero;fill:rgb(100%,100%,100%);fill-opacity:1;stroke-width:1;stroke-linecap:round;stroke-linejoin:round;stroke:rgb(0%,0%,0%);stroke-opacity:1;stroke-miterlimit:10;" d="M 111.999023 332.192383 L 244.5 332.192383 C 248.917969 332.192383 252.500977 335.772461 252.500977 340.19043 L 252.500977 403.19043 C 252.500977 407.608398 248.917969 411.191406 244.5 411.191406 L 111.999023 411.191406 C 107.581055 411.191406 104.000977 407.608398 104.000977 403.19043 L 104.000977 340.19043 C 104.000977 335.772461 107.581055 332.192383 111.999023 332.192383 Z M 111.999023 332.192383 " transform="matrix(1.333333,0,0,1.333333,44,-313.333333)"/>
<path style=" stroke:none;fill-rule:nonzero;fill:rgb(0%,0%,0%);fill-opacity:1;" d="M 316.265625 143.546875 L 316.265625 142.546875 L 319.910156 142.546875 L 319.910156 145.734375 C 319.351562 146.183594 318.777344 146.515625 318.179688 146.734375 C 317.582031 146.953125 316.972656 147.066406 316.347656 147.066406 C 315.515625 147.066406 314.75 146.890625 314.054688 146.527344 C 313.359375 146.167969 312.835938 145.644531 312.492188 144.964844 C 312.144531 144.285156 311.972656 143.519531 311.972656 142.671875 C 311.972656 141.839844 312.144531 141.0625 312.492188 140.339844 C 312.835938 139.605469 313.335938 139.0625 313.992188 138.714844 C 314.660156 138.371094 315.414062 138.191406 316.265625 138.191406 C 316.890625 138.191406 317.453125 138.296875 317.953125 138.503906 C 318.453125 138.703125 318.835938 138.980469 319.117188 139.339844 C 319.410156 139.6875 319.628906 140.152344 319.785156 140.734375 L 318.765625 141.003906 C 318.625 140.578125 318.457031 140.234375 318.265625 139.984375 C 318.082031 139.734375 317.8125 139.535156 317.453125 139.378906 C 317.101562 139.230469 316.707031 139.152344 316.265625 139.152344 C 315.75 139.152344 315.296875 139.234375 314.910156 139.402344 C 314.535156 139.558594 314.226562 139.765625 313.992188 140.027344 C 313.769531 140.277344 313.597656 140.558594 313.472656 140.859375 C 313.25 141.402344 313.140625 141.980469 313.140625 142.589844 C 313.140625 143.371094 313.269531 144.015625 313.535156 144.527344 C 313.796875 145.042969 314.179688 145.421875 314.679688 145.671875 C 315.179688 145.921875 315.710938 146.046875 316.285156 146.046875 C 316.785156 146.046875 317.265625 145.957031 317.722656 145.777344 C 318.191406 145.582031 318.554688 145.375 318.804688 145.152344 L 318.804688 143.546875 Z M 316.265625 143.546875 "/>
<path style=" stroke:none;fill-rule:nonzero;fill:rgb(0%,0%,0%);fill-opacity:1;" d="M 321.578125 146.921875 L 321.578125 138.339844 L 324.828125 138.339844 C 325.394531 138.339844 325.832031 138.371094 326.140625 138.421875 C 326.558594 138.496094 326.902344 138.625 327.183594 138.816406 C 327.472656 139.015625 327.703125 139.292969 327.871094 139.652344 C 328.046875 140 328.140625 140.390625 328.140625 140.816406 C 328.140625 141.558594 327.902344 142.171875 327.433594 142.671875 C 326.972656 143.171875 326.140625 143.421875 324.933594 143.421875 L 322.722656 143.421875 L 322.722656 146.921875 Z M 322.722656 142.421875 L 324.953125 142.421875 C 325.671875 142.421875 326.1875 142.285156 326.496094 142.003906 C 326.8125 141.730469 326.972656 141.347656 326.972656 140.859375 C 326.972656 140.5 326.878906 140.191406 326.703125 139.941406 C 326.519531 139.683594 326.277344 139.503906 325.972656 139.421875 C 325.792969 139.371094 325.4375 139.339844 324.910156 139.339844 L 322.722656 139.339844 Z M 322.722656 142.421875 "/>
<path style=" stroke:none;fill-rule:nonzero;fill:rgb(0%,0%,0%);fill-opacity:1;" d="M 335.226562 138.339844 L 336.375 138.339844 L 336.375 143.296875 C 336.375 144.160156 336.269531 144.847656 336.0625 145.359375 C 335.863281 145.859375 335.507812 146.269531 335 146.589844 C 334.5 146.910156 333.832031 147.066406 333 147.066406 C 332.191406 147.066406 331.53125 146.925781 331.019531 146.652344 C 330.519531 146.375 330.15625 145.972656 329.9375 145.441406 C 329.710938 144.917969 329.601562 144.203125 329.601562 143.296875 L 329.601562 138.339844 L 330.75 138.339844 L 330.75 143.296875 C 330.75 144.035156 330.816406 144.582031 330.957031 144.941406 C 331.09375 145.292969 331.332031 145.5625 331.664062 145.753906 C 332 145.953125 332.414062 146.046875 332.914062 146.046875 C 333.75 146.046875 334.335938 145.859375 334.6875 145.484375 C 335.046875 145.097656 335.226562 144.371094 335.226562 143.296875 Z M 335.226562 138.339844 "/>
<path style=" stroke:none;fill-rule:nonzero;fill:rgb(0%,0%,0%);fill-opacity:1;" d="M 345.144531 146.921875 L 344.082031 146.921875 L 344.082031 140.191406 C 343.832031 140.441406 343.5 140.691406 343.082031 140.941406 C 342.664062 141.183594 342.296875 141.355469 341.976562 141.464844 L 341.976562 140.441406 C 342.5625 140.183594 343.070312 139.855469 343.519531 139.464844 C 343.960938 139.0625 344.273438 138.671875 344.457031 138.296875 L 345.144531 138.296875 Z M 345.144531 146.921875 "/>
<path style=" stroke:none;fill-rule:nonzero;fill:rgb(69.803923%,85.09804%,100%);fill-opacity:1;" d="M 81.902344 160.785156 L 154.667969 160.785156 L 154.667969 128.785156 L 81.902344 128.785156 Z M 81.902344 160.785156 "/>
<path style="fill:none;stroke-width:1;stroke-linecap:round;stroke-linejoin:round;stroke:rgb(0%,0%,0%);stroke-opacity:1;stroke-dasharray:4,4;stroke-miterlimit:10;" d="M 28.426758 331.588867 L 83.000977 331.588867 L 83.000977 355.588867 L 28.426758 355.588867 Z M 28.426758 331.588867 " transform="matrix(1.333333,0,0,1.333333,44,-313.333333)"/>
<path style="fill:none;stroke-width:1;stroke-linecap:round;stroke-linejoin:round;stroke:rgb(0%,0%,0%);stroke-opacity:1;stroke-miterlimit:10;" d="M 27.925781 331.539062 L 83.229492 331.539062 L 83.229492 379.539062 L 27.925781 379.539062 Z M 27.925781 331.539062 " transform="matrix(1.333333,0,0,1.333333,44,-313.333333)"/>
<path style=" stroke:none;fill-rule:nonzero;fill:rgb(40.000001%,74.901962%,100%);fill-opacity:1;" d="M 204.105469 46 L 277.84375 46 L 277.84375 14 L 204.105469 14 Z M 204.105469 46 "/>
<path style="fill:none;stroke-width:1;stroke-linecap:round;stroke-linejoin:round;stroke:rgb(0%,0%,0%);stroke-opacity:1;stroke-miterlimit:10;" d="M 120.079102 245.5 L 175.382812 245.5 L 175.382812 269.5 L 120.079102 269.5 Z M 120.079102 245.5 " transform="matrix(1.333333,0,0,1.333333,44,-313.333333)"/>
<path style=" stroke:none;fill-rule:nonzero;fill:rgb(0%,0%,0%);fill-opacity:1;" d="M 233.160156 25.855469 L 233.160156 26.625 L 234.910156 26.625 L 234.910156 27.519531 L 235.722656 27.519531 L 235.722656 26.625 L 237.640625 26.625 L 237.640625 27.519531 L 238.472656 27.519531 L 238.472656 26.625 L 240.328125 26.625 L 240.328125 25.855469 L 238.472656 25.855469 L 238.472656 24.894531 L 237.640625 24.894531 L 237.640625 25.855469 L 235.722656 25.855469 L 235.722656 24.894531 L 234.910156 24.894531 L 234.910156 25.855469 Z M 236.535156 33.394531 C 237.222656 34.394531 238.347656 35.230469 239.910156 35.894531 L 240.472656 35.207031 C 239.058594 34.707031 238.015625 34.0625 237.308594 33.230469 L 240.347656 33.230469 L 240.347656 32.4375 L 236.890625 32.4375 C 236.972656 32.167969 237.035156 31.875 237.078125 31.542969 L 239.535156 31.542969 L 239.535156 27.894531 L 233.808594 27.894531 L 233.808594 31.542969 L 236.328125 31.542969 C 236.265625 31.855469 236.183594 32.167969 236.097656 32.4375 L 232.933594 32.4375 L 232.933594 33.230469 L 235.722656 33.230469 C 235.640625 33.417969 235.515625 33.5625 235.390625 33.707031 C 234.871094 34.332031 234.015625 34.792969 232.808594 35.125 L 233.121094 35.832031 C 234.515625 35.4375 235.472656 34.917969 236.015625 34.207031 C 236.203125 33.980469 236.390625 33.6875 236.535156 33.394531 Z M 231.996094 29.730469 C 232.308594 30.207031 232.703125 30.855469 233.140625 31.644531 L 233.597656 30.957031 C 233.035156 30.144531 232.515625 29.4375 231.996094 28.8125 L 231.996094 28.019531 L 233.265625 28.019531 L 233.265625 27.230469 L 231.996094 27.230469 L 231.996094 24.917969 L 231.183594 24.917969 L 231.183594 27.230469 L 229.785156 27.230469 L 229.785156 28.019531 L 231.183594 28.019531 L 231.183594 28.082031 C 230.828125 29.5625 230.222656 30.855469 229.390625 32 L 229.765625 32.9375 C 230.347656 32.019531 230.808594 30.980469 231.183594 29.855469 L 231.183594 35.832031 L 231.996094 35.832031 Z M 238.765625 30.855469 L 234.578125 30.855469 L 234.578125 30.042969 L 238.765625 30.042969 Z M 234.578125 29.394531 L 234.578125 28.605469 L 238.765625 28.605469 L 238.765625 29.394531 Z M 234.578125 29.394531 "/>
<path style=" stroke:none;fill-rule:nonzero;fill:rgb(0%,0%,0%);fill-opacity:1;" d="M 242.097656 25.394531 L 242.097656 26.167969 L 243.308594 26.167969 L 243.308594 27.980469 L 241.785156 27.980469 L 241.785156 28.769531 L 243.265625 28.769531 C 243.140625 29.75 242.746094 30.480469 242.078125 30.980469 L 242.722656 31.542969 C 243.515625 30.917969 243.972656 30 244.097656 28.769531 L 245.683594 28.769531 L 245.683594 31.394531 L 246.515625 31.394531 L 246.515625 28.769531 L 247.996094 28.769531 L 247.996094 27.980469 L 246.515625 27.980469 L 246.515625 26.167969 L 247.722656 26.167969 L 247.722656 25.394531 Z M 244.140625 26.167969 L 245.683594 26.167969 L 245.683594 27.980469 L 244.140625 27.980469 Z M 248.703125 25.6875 L 248.703125 29.8125 L 249.535156 29.8125 L 249.535156 25.6875 Z M 242.371094 32.582031 L 242.371094 33.375 L 246.597656 33.375 L 246.597656 34.769531 L 241.703125 34.769531 L 241.703125 35.5625 L 252.246094 35.5625 L 252.246094 34.769531 L 247.453125 34.769531 L 247.453125 33.375 L 251.578125 33.375 L 251.578125 32.582031 L 247.453125 32.582031 L 247.453125 31.542969 L 246.597656 31.542969 L 246.597656 32.582031 Z M 250.746094 31.519531 C 251.371094 31.519531 251.703125 31.144531 251.703125 30.417969 L 251.703125 25.019531 L 250.871094 25.019531 L 250.871094 30.207031 C 250.871094 30.5625 250.722656 30.75 250.453125 30.75 C 249.972656 30.75 249.472656 30.730469 248.953125 30.6875 L 249.140625 31.519531 Z M 250.746094 31.519531 "/>
<path style=" stroke:none;fill-rule:nonzero;fill:rgb(40.000001%,74.901962%,100%);fill-opacity:1;" d="M 448.667969 138.785156 L 523.375 138.785156 L 523.375 89.699219 L 448.667969 89.699219 Z M 448.667969 138.785156 "/>
<path style="fill:none;stroke-width:1;stroke-linecap:round;stroke-linejoin:round;stroke:rgb(0%,0%,0%);stroke-opacity:1;stroke-miterlimit:10;" d="M 303.500977 302.274414 L 359.53125 302.274414 L 359.53125 339.088867 L 303.500977 339.088867 Z M 303.500977 302.274414 " transform="matrix(1.333333,0,0,1.333333,44,-313.333333)"/>
<path style=" stroke:none;fill-rule:nonzero;fill:rgb(0%,0%,0%);fill-opacity:1;" d="M 461.4375 111.308594 C 462.273438 111.308594 462.6875 110.890625 462.6875 110.035156 L 462.6875 100.621094 L 461.792969 100.621094 L 461.792969 109.808594 C 461.792969 110.265625 461.5625 110.496094 461.125 110.496094 C 460.585938 110.496094 460 110.453125 459.398438 110.410156 L 459.605469 111.308594 Z M 458.585938 103.410156 C 458.105469 105.558594 457.398438 107.285156 456.4375 108.558594 L 457.167969 109.203125 C 458.105469 107.972656 458.875 106.140625 459.4375 103.746094 Z M 465.398438 103.121094 L 464.605469 103.597656 C 465.542969 105.683594 466.273438 107.578125 466.8125 109.265625 L 467.585938 108.722656 C 467.0625 107.140625 466.335938 105.265625 465.398438 103.121094 Z M 465.398438 103.121094 "/>
<path style=" stroke:none;fill-rule:nonzero;fill:rgb(0%,0%,0%);fill-opacity:1;" d="M 472.105469 105.683594 C 471.710938 105.847656 471.335938 106.015625 470.9375 106.160156 L 470.9375 103.496094 L 472.125 103.496094 L 472.125 102.660156 L 470.9375 102.660156 L 470.9375 100.433594 L 470.105469 100.433594 L 470.105469 102.660156 L 468.75 102.660156 L 468.75 103.496094 L 470.105469 103.496094 L 470.105469 106.433594 C 469.605469 106.578125 469.105469 106.703125 468.605469 106.808594 L 468.792969 107.621094 C 469.230469 107.515625 469.667969 107.390625 470.105469 107.265625 L 470.105469 110.121094 C 470.105469 110.433594 469.960938 110.578125 469.667969 110.578125 C 469.375 110.578125 469.0625 110.558594 468.75 110.515625 L 468.917969 111.371094 L 469.960938 111.371094 C 470.605469 111.371094 470.9375 111.015625 470.9375 110.328125 L 470.9375 106.972656 C 471.3125 106.828125 471.710938 106.660156 472.105469 106.496094 Z M 473.542969 104.847656 L 475.230469 104.847656 L 475.230469 104.015625 L 473.542969 104.015625 L 473.542969 100.558594 L 472.6875 100.558594 L 472.6875 109.972656 C 472.6875 110.222656 472.5625 110.410156 472.292969 110.496094 L 472.5 111.308594 C 473.542969 111.058594 474.460938 110.765625 475.273438 110.433594 L 475.105469 109.640625 C 474.625 109.871094 474.125 110.058594 473.542969 110.203125 Z M 477.855469 111.285156 C 478.335938 111.285156 478.667969 111.140625 478.898438 110.910156 C 479.148438 110.621094 479.3125 109.828125 479.398438 108.496094 L 478.605469 108.246094 C 478.5625 109.328125 478.460938 109.972656 478.3125 110.203125 C 478.1875 110.371094 478 110.453125 477.710938 110.453125 L 477.125 110.453125 C 476.8125 110.453125 476.667969 110.285156 476.667969 109.972656 L 476.667969 104.972656 C 477.480469 104.703125 478.355469 104.308594 479.273438 103.808594 L 478.773438 103.097656 C 478.085938 103.515625 477.375 103.871094 476.667969 104.097656 L 476.667969 100.472656 L 475.8125 100.472656 L 475.8125 110.140625 C 475.8125 110.890625 476.167969 111.285156 476.855469 111.285156 Z M 477.855469 111.285156 "/>
<path style=" stroke:none;fill-rule:nonzero;fill:rgb(0%,0%,0%);fill-opacity:1;" d="M 481.855469 105.472656 L 481.855469 108.535156 L 485.585938 108.535156 L 485.585938 109.203125 L 481.5625 109.203125 L 481.5625 109.785156 L 485.585938 109.785156 L 485.585938 110.496094 L 480.667969 110.496094 L 480.667969 111.160156 L 491.375 111.160156 L 491.375 110.496094 L 486.4375 110.496094 L 486.4375 109.785156 L 490.5 109.785156 L 490.5 109.203125 L 486.4375 109.203125 L 486.4375 108.535156 L 490.210938 108.535156 L 490.210938 105.472656 Z M 489.375 107.996094 L 486.4375 107.996094 L 486.4375 107.265625 L 489.375 107.265625 Z M 485.585938 107.996094 L 482.6875 107.996094 L 482.6875 107.265625 L 485.585938 107.265625 Z M 482.6875 106.746094 L 482.6875 106.015625 L 485.585938 106.015625 L 485.585938 106.746094 Z M 486.4375 106.015625 L 489.375 106.015625 L 489.375 106.746094 L 486.4375 106.746094 Z M 482.125 100.640625 L 482.125 103.597656 L 489.960938 103.597656 L 489.960938 100.640625 Z M 489.125 103.078125 L 482.960938 103.078125 L 482.960938 102.371094 L 489.125 102.371094 Z M 482.960938 101.847656 L 482.960938 101.160156 L 489.125 101.160156 L 489.125 101.847656 Z M 480.648438 104.222656 L 480.648438 104.871094 L 491.398438 104.871094 L 491.398438 104.222656 Z M 480.648438 104.222656 "/>
<path style=" stroke:none;fill-rule:nonzero;fill:rgb(0%,0%,0%);fill-opacity:1;" d="M 493.023438 100.910156 L 493.023438 111.371094 L 493.8125 111.371094 L 493.8125 101.683594 L 495.230469 101.683594 C 495.0625 102.640625 494.792969 103.703125 494.460938 104.847656 C 495 105.785156 495.273438 106.640625 495.273438 107.390625 C 495.273438 107.660156 495.230469 107.828125 495.148438 107.933594 C 495.0625 108.035156 494.917969 108.097656 494.75 108.121094 C 494.585938 108.121094 494.355469 108.097656 494.105469 108.078125 L 494.355469 108.890625 C 495.042969 108.871094 495.5 108.722656 495.773438 108.453125 C 495.980469 108.246094 496.0625 107.890625 496.0625 107.390625 C 496.023438 106.640625 495.75 105.765625 495.230469 104.746094 C 495.542969 103.640625 495.8125 102.578125 496.023438 101.578125 L 496.023438 100.910156 Z M 496.917969 101.140625 L 496.273438 101.535156 C 496.730469 102.222656 497.105469 102.871094 497.375 103.472656 L 498 103.015625 C 497.75 102.496094 497.398438 101.847656 496.917969 101.140625 Z M 501.167969 110.453125 C 500.75 110.453125 500.335938 110.433594 499.917969 110.433594 C 499.480469 110.390625 499.085938 110.308594 498.773438 110.183594 C 498.417969 109.996094 498.125 109.765625 497.917969 109.472656 C 497.898438 109.433594 497.855469 109.410156 497.835938 109.371094 L 497.835938 104.472656 L 496 104.472656 L 496 105.246094 L 497.023438 105.246094 L 497.023438 109.246094 C 496.605469 109.433594 496.105469 109.953125 495.5 110.765625 L 496.023438 111.410156 C 496.6875 110.453125 497.148438 109.996094 497.375 109.996094 C 497.5 109.996094 497.625 110.078125 497.773438 110.265625 C 498.042969 110.597656 498.355469 110.847656 498.75 110.996094 C 499.125 111.140625 499.585938 111.203125 500.105469 111.222656 C 500.4375 111.222656 500.773438 111.246094 501.125 111.246094 L 503.292969 111.246094 L 503.5 110.433594 C 502.773438 110.433594 502 110.453125 501.167969 110.453125 Z M 498.292969 101.597656 L 498.292969 102.390625 L 499.773438 102.390625 C 499.375 103.722656 498.792969 104.808594 498 105.660156 L 498.4375 106.246094 C 498.75 105.953125 499.042969 105.597656 499.3125 105.203125 L 499.3125 109.746094 L 500.0625 109.746094 L 500.0625 107.703125 L 502.1875 107.703125 L 502.1875 108.621094 C 502.1875 108.871094 502.085938 109.015625 501.875 109.015625 C 501.625 109.015625 501.355469 108.996094 501.0625 108.953125 L 501.273438 109.703125 L 502.148438 109.703125 C 502.6875 109.683594 502.980469 109.410156 502.980469 108.871094 L 502.980469 103.578125 L 500.167969 103.578125 C 500.3125 103.203125 500.460938 102.808594 500.585938 102.390625 L 503.4375 102.390625 L 503.4375 101.597656 L 500.792969 101.597656 C 500.875 101.265625 500.9375 100.910156 501 100.558594 L 500.167969 100.453125 C 500.105469 100.828125 500.042969 101.203125 499.960938 101.597656 Z M 500.0625 106.035156 L 502.1875 106.035156 L 502.1875 107.015625 L 500.0625 107.015625 Z M 502.1875 105.328125 L 500.0625 105.328125 L 500.0625 104.265625 L 502.1875 104.265625 Z M 502.1875 105.328125 "/>
<path style=" stroke:none;fill-rule:nonzero;fill:rgb(0%,0%,0%);fill-opacity:1;" d="M 504.710938 102.785156 L 504.710938 103.621094 L 506.480469 103.621094 C 506.0625 105.121094 505.417969 106.453125 504.480469 107.621094 L 504.855469 108.558594 C 505.542969 107.578125 506.085938 106.496094 506.5 105.285156 L 506.5 111.390625 L 507.375 111.390625 L 507.375 105.058594 C 507.710938 105.535156 508.105469 106.140625 508.5625 106.890625 L 509.0625 106.160156 C 508.480469 105.453125 507.917969 104.808594 507.375 104.222656 L 507.375 103.621094 L 508.855469 103.621094 L 508.855469 102.785156 L 507.375 102.785156 L 507.375 100.453125 L 506.5 100.453125 L 506.5 102.785156 Z M 508.292969 110.847656 L 509 111.496094 C 509.5625 110.621094 509.960938 109.746094 510.148438 108.808594 C 510.375 107.910156 510.480469 106.808594 510.480469 105.496094 L 510.480469 101.765625 L 512.605469 101.765625 L 512.605469 110.121094 C 512.605469 110.808594 513 111.160156 513.773438 111.160156 L 514.25 111.160156 C 514.648438 111.160156 514.9375 111.078125 515.125 110.953125 C 515.3125 110.785156 515.4375 110.496094 515.480469 110.058594 C 515.523438 109.597656 515.5625 108.953125 515.5625 108.097656 L 514.773438 107.847656 C 514.773438 108.996094 514.730469 109.683594 514.6875 109.910156 C 514.667969 110.097656 514.605469 110.203125 514.5 110.265625 C 514.417969 110.308594 514.3125 110.347656 514.167969 110.347656 L 513.773438 110.347656 C 513.5625 110.347656 513.480469 110.222656 513.480469 110.035156 L 513.480469 100.953125 L 509.605469 100.953125 L 509.605469 105.496094 C 509.605469 106.722656 509.523438 107.703125 509.375 108.453125 C 509.167969 109.285156 508.8125 110.097656 508.292969 110.847656 Z M 508.292969 110.847656 "/>
<path style=" stroke:none;fill-rule:nonzero;fill:rgb(0%,0%,0%);fill-opacity:1;" d="M 465.125 122.722656 C 465.417969 123.246094 465.75 123.910156 466.125 124.703125 L 466.605469 123.996094 C 466.105469 123.160156 465.605469 122.410156 465.125 121.746094 L 465.125 120.953125 L 466.417969 120.953125 L 466.417969 120.121094 L 465.125 120.121094 L 465.125 117.808594 L 464.273438 117.808594 L 464.273438 120.121094 L 462.730469 120.121094 L 462.730469 120.953125 L 464.273438 120.953125 L 464.273438 121.035156 C 463.898438 122.433594 463.3125 123.683594 462.480469 124.828125 L 462.835938 125.722656 C 463.417969 124.828125 463.898438 123.828125 464.273438 122.722656 L 464.273438 128.746094 L 465.125 128.746094 Z M 469.5 120.535156 L 469.5 121.996094 L 467.355469 121.996094 L 466.875 124.871094 L 469.417969 124.871094 C 468.730469 125.972656 467.648438 126.910156 466.125 127.621094 L 466.585938 128.371094 C 467.835938 127.640625 468.8125 126.785156 469.5 125.746094 L 469.5 128.785156 L 470.355469 128.785156 L 470.355469 124.871094 L 472.398438 124.871094 C 472.398438 125.703125 472.375 126.265625 472.3125 126.578125 C 472.230469 126.910156 472.0625 127.078125 471.773438 127.078125 C 471.5 127.078125 471.230469 127.058594 470.917969 127.035156 L 471.125 127.828125 C 471.375 127.828125 471.625 127.847656 471.898438 127.847656 C 472.460938 127.828125 472.792969 127.597656 472.960938 127.140625 C 473.105469 126.722656 473.1875 125.722656 473.1875 124.140625 L 470.355469 124.140625 L 470.355469 122.746094 L 472.8125 122.746094 L 472.8125 119.785156 L 471.0625 119.785156 C 471.460938 119.246094 471.792969 118.621094 472.085938 117.953125 L 471.273438 117.722656 C 470.9375 118.515625 470.5625 119.203125 470.125 119.785156 L 466.960938 119.785156 L 466.960938 120.535156 Z M 469.5 122.746094 L 469.5 124.140625 L 467.75 124.140625 L 468.023438 122.746094 Z M 470.355469 121.996094 L 470.355469 120.535156 L 472.0625 120.535156 L 472.0625 121.996094 Z M 468.335938 117.828125 L 467.5625 118.078125 C 467.917969 118.558594 468.273438 119.097656 468.5625 119.722656 L 469.3125 119.410156 C 469.023438 118.847656 468.710938 118.328125 468.335938 117.828125 Z M 468.335938 117.828125 "/>
<path style=" stroke:none;fill-rule:nonzero;fill:rgb(0%,0%,0%);fill-opacity:1;" d="M 477.148438 124.371094 L 477.148438 125.121094 L 477.875 125.121094 C 478.4375 125.871094 479.167969 126.535156 480.0625 127.078125 C 478.980469 127.535156 477.730469 127.871094 476.335938 128.078125 L 476.710938 128.828125 C 478.292969 128.558594 479.6875 128.121094 480.917969 127.558594 C 482.042969 128.121094 483.460938 128.558594 485.105469 128.828125 L 485.480469 128.078125 C 484.0625 127.890625 482.8125 127.558594 481.730469 127.121094 C 482.6875 126.535156 483.523438 125.828125 484.1875 125.015625 L 484.1875 124.371094 Z M 478.792969 125.121094 L 483.0625 125.121094 C 482.4375 125.722656 481.710938 126.265625 480.855469 126.703125 C 480.042969 126.265625 479.355469 125.746094 478.792969 125.121094 Z M 476.460938 121.683594 L 478.480469 121.683594 L 478.480469 123.558594 L 483.335938 123.558594 L 483.335938 121.683594 L 485.1875 121.683594 L 485.1875 120.890625 L 483.335938 120.890625 L 483.335938 119.910156 L 482.5 119.910156 L 482.5 120.890625 L 479.3125 120.890625 L 479.3125 119.933594 L 478.480469 119.933594 L 478.480469 120.890625 L 476.460938 120.890625 L 476.460938 119.535156 L 485.210938 119.535156 L 485.210938 118.703125 L 481.085938 118.703125 C 480.960938 118.347656 480.8125 118.015625 480.667969 117.722656 L 479.75 117.847656 C 479.917969 118.121094 480.0625 118.390625 480.210938 118.703125 L 475.585938 118.703125 L 475.585938 122.621094 C 475.5625 124.996094 475.210938 126.828125 474.523438 128.160156 L 475.167969 128.746094 C 475.980469 127.203125 476.417969 125.160156 476.460938 122.621094 Z M 479.3125 121.683594 L 482.5 121.683594 L 482.5 122.828125 L 479.3125 122.828125 Z M 479.3125 121.683594 "/>
<path style=" stroke:none;fill-rule:nonzero;fill:rgb(0%,0%,0%);fill-opacity:1;" d="M 486.6875 118.410156 L 486.6875 119.265625 L 491.273438 119.265625 L 491.273438 128.808594 L 492.148438 128.808594 L 492.148438 121.996094 C 493.230469 122.558594 494.5625 123.371094 496.167969 124.433594 L 496.667969 123.660156 C 495.148438 122.683594 493.625 121.828125 492.148438 121.078125 L 492.148438 119.265625 L 497.355469 119.265625 L 497.355469 118.410156 Z M 486.6875 118.410156 "/>
<path style=" stroke:none;fill-rule:nonzero;fill:rgb(0%,0%,0%);fill-opacity:1;" d="M 502.875 126.871094 L 505.792969 126.871094 L 505.792969 128.765625 L 506.605469 128.765625 L 506.605469 126.871094 L 509.167969 126.871094 L 509.167969 126.097656 L 506.605469 126.097656 L 506.605469 124.328125 L 508.773438 124.328125 L 508.773438 123.558594 L 506.605469 123.558594 L 506.605469 122.683594 L 505.792969 122.683594 L 505.792969 123.558594 L 502.898438 123.558594 L 502.898438 124.328125 L 505.792969 124.328125 L 505.792969 126.097656 L 503.875 126.097656 L 504.210938 124.890625 L 503.4375 124.765625 Z M 499 118.285156 L 499 128.785156 L 499.8125 128.785156 L 499.8125 119.097656 L 501.710938 119.097656 C 501.398438 120.097656 500.980469 121.222656 500.4375 122.472656 C 501.230469 123.496094 501.648438 124.410156 501.648438 125.222656 C 501.648438 125.472656 501.5625 125.640625 501.4375 125.722656 C 501.292969 125.828125 501.023438 125.871094 500.605469 125.890625 C 500.480469 125.890625 500.335938 125.871094 500.148438 125.847656 L 500.417969 126.746094 C 501.230469 126.722656 501.792969 126.578125 502.125 126.308594 C 502.375 126.097656 502.480469 125.722656 502.480469 125.222656 C 502.4375 124.371094 502.042969 123.410156 501.292969 122.347656 C 501.773438 121.160156 502.1875 120.035156 502.5625 118.953125 L 502.5625 118.285156 Z M 504.75 117.746094 C 504.125 118.871094 503.335938 119.765625 502.375 120.453125 L 502.898438 121.121094 C 503.25 120.847656 503.5625 120.578125 503.855469 120.265625 C 504.167969 120.722656 504.605469 121.121094 505.125 121.472656 C 504.335938 121.828125 503.398438 122.097656 502.3125 122.308594 L 502.730469 123.058594 C 503.980469 122.765625 505.042969 122.390625 505.9375 121.933594 C 506.8125 122.390625 507.917969 122.746094 509.210938 122.972656 L 509.523438 122.222656 C 508.460938 122.015625 507.542969 121.765625 506.773438 121.453125 C 507.605469 120.871094 508.230469 120.203125 508.585938 119.410156 L 508.585938 118.722656 L 505.085938 118.722656 C 505.25 118.472656 505.398438 118.222656 505.5625 117.933594 Z M 505.960938 121.058594 C 505.273438 120.660156 504.75 120.222656 504.375 119.703125 C 504.4375 119.621094 504.480469 119.558594 504.542969 119.472656 L 507.667969 119.472656 C 507.273438 120.078125 506.710938 120.597656 505.960938 121.058594 Z M 505.960938 121.058594 "/>
<path style=" stroke:none;fill-rule:nonzero;fill:rgb(69.803923%,85.09804%,100%);fill-opacity:1;" d="M 204.105469 94.394531 L 278.8125 94.394531 L 278.8125 62.394531 L 204.105469 62.394531 Z M 204.105469 94.394531 "/>
<path style="fill:none;stroke-width:1;stroke-linecap:round;stroke-linejoin:round;stroke:rgb(0%,0%,0%);stroke-opacity:1;stroke-miterlimit:10;" d="M 120.079102 281.795898 L 176.109375 281.795898 L 176.109375 305.795898 L 120.079102 305.795898 Z M 120.079102 281.795898 " transform="matrix(1.333333,0,0,1.333333,44,-313.333333)"/>
<path style=" stroke:none;fill-rule:nonzero;fill:rgb(0%,0%,0%);fill-opacity:1;" d="M 216.875 84.125 C 217.710938 84.125 218.125 83.707031 218.125 82.855469 L 218.125 73.4375 L 217.230469 73.4375 L 217.230469 82.625 C 217.230469 83.082031 217 83.3125 216.5625 83.3125 C 216.023438 83.3125 215.4375 83.269531 214.835938 83.230469 L 215.042969 84.125 Z M 214.023438 76.230469 C 213.542969 78.375 212.835938 80.105469 211.875 81.375 L 212.605469 82.019531 C 213.542969 80.792969 214.3125 78.957031 214.875 76.5625 Z M 220.835938 75.9375 L 220.042969 76.417969 C 220.980469 78.5 221.710938 80.394531 222.25 82.082031 L 223.023438 81.542969 C 222.5 79.957031 221.773438 78.082031 220.835938 75.9375 Z M 220.835938 75.9375 "/>
<path style=" stroke:none;fill-rule:nonzero;fill:rgb(0%,0%,0%);fill-opacity:1;" d="M 227.542969 78.5 C 227.148438 78.667969 226.773438 78.832031 226.375 78.980469 L 226.375 76.3125 L 227.5625 76.3125 L 227.5625 75.480469 L 226.375 75.480469 L 226.375 73.25 L 225.542969 73.25 L 225.542969 75.480469 L 224.1875 75.480469 L 224.1875 76.3125 L 225.542969 76.3125 L 225.542969 79.25 C 225.042969 79.394531 224.542969 79.519531 224.042969 79.625 L 224.230469 80.4375 C 224.667969 80.332031 225.105469 80.207031 225.542969 80.082031 L 225.542969 82.9375 C 225.542969 83.25 225.398438 83.394531 225.105469 83.394531 C 224.8125 83.394531 224.5 83.375 224.1875 83.332031 L 224.355469 84.1875 L 225.398438 84.1875 C 226.042969 84.1875 226.375 83.832031 226.375 83.144531 L 226.375 79.792969 C 226.75 79.644531 227.148438 79.480469 227.542969 79.3125 Z M 228.980469 77.667969 L 230.667969 77.667969 L 230.667969 76.832031 L 228.980469 76.832031 L 228.980469 73.375 L 228.125 73.375 L 228.125 82.792969 C 228.125 83.042969 228 83.230469 227.730469 83.3125 L 227.9375 84.125 C 228.980469 83.875 229.898438 83.582031 230.710938 83.25 L 230.542969 82.457031 C 230.0625 82.6875 229.5625 82.875 228.980469 83.019531 Z M 233.292969 84.105469 C 233.773438 84.105469 234.105469 83.957031 234.335938 83.730469 C 234.585938 83.4375 234.75 82.644531 234.835938 81.3125 L 234.042969 81.0625 C 234 82.144531 233.898438 82.792969 233.75 83.019531 C 233.625 83.1875 233.4375 83.269531 233.148438 83.269531 L 232.5625 83.269531 C 232.25 83.269531 232.105469 83.105469 232.105469 82.792969 L 232.105469 77.792969 C 232.917969 77.519531 233.792969 77.125 234.710938 76.625 L 234.210938 75.917969 C 233.523438 76.332031 232.8125 76.6875 232.105469 76.917969 L 232.105469 73.292969 L 231.25 73.292969 L 231.25 82.957031 C 231.25 83.707031 231.605469 84.105469 232.292969 84.105469 Z M 233.292969 84.105469 "/>
<path style=" stroke:none;fill-rule:nonzero;fill:rgb(0%,0%,0%);fill-opacity:1;" d="M 237.292969 78.292969 L 237.292969 81.355469 L 241.023438 81.355469 L 241.023438 82.019531 L 237 82.019531 L 237 82.605469 L 241.023438 82.605469 L 241.023438 83.3125 L 236.105469 83.3125 L 236.105469 83.980469 L 246.8125 83.980469 L 246.8125 83.3125 L 241.875 83.3125 L 241.875 82.605469 L 245.9375 82.605469 L 245.9375 82.019531 L 241.875 82.019531 L 241.875 81.355469 L 245.648438 81.355469 L 245.648438 78.292969 Z M 244.8125 80.8125 L 241.875 80.8125 L 241.875 80.082031 L 244.8125 80.082031 Z M 241.023438 80.8125 L 238.125 80.8125 L 238.125 80.082031 L 241.023438 80.082031 Z M 238.125 79.5625 L 238.125 78.832031 L 241.023438 78.832031 L 241.023438 79.5625 Z M 241.875 78.832031 L 244.8125 78.832031 L 244.8125 79.5625 L 241.875 79.5625 Z M 237.5625 73.457031 L 237.5625 76.417969 L 245.398438 76.417969 L 245.398438 73.457031 Z M 244.5625 75.894531 L 238.398438 75.894531 L 238.398438 75.1875 L 244.5625 75.1875 Z M 238.398438 74.667969 L 238.398438 73.980469 L 244.5625 73.980469 L 244.5625 74.667969 Z M 236.085938 77.042969 L 236.085938 77.6875 L 246.835938 77.6875 L 246.835938 77.042969 Z M 236.085938 77.042969 "/>
<path style=" stroke:none;fill-rule:nonzero;fill:rgb(0%,0%,0%);fill-opacity:1;" d="M 248.210938 78.417969 L 248.210938 79.25 L 253.273438 79.25 L 253.273438 82.8125 C 253.273438 83.1875 253.085938 83.375 252.6875 83.375 C 252 83.375 251.355469 83.355469 250.75 83.332031 L 250.980469 84.1875 L 253.042969 84.1875 C 253.773438 84.1875 254.148438 83.8125 254.148438 83.105469 L 254.148438 79.25 L 258.710938 79.25 L 258.710938 78.417969 L 254.148438 78.417969 L 254.148438 77.167969 C 255.375 76.355469 256.4375 75.5 257.398438 74.605469 L 257.398438 73.792969 L 249.480469 73.792969 L 249.480469 74.605469 L 256.210938 74.605469 C 255.292969 75.417969 254.292969 76.125 253.273438 76.707031 L 253.273438 78.417969 Z M 248.210938 78.417969 "/>
<path style=" stroke:none;fill-rule:nonzero;fill:rgb(0%,0%,0%);fill-opacity:1;" d="M 263.980469 81.355469 C 263.292969 82.0625 262.023438 82.6875 260.167969 83.25 L 260.625 84 C 262.667969 83.25 264.085938 82.375 264.835938 81.355469 L 265.0625 81.355469 L 265.0625 84.269531 L 265.917969 84.269531 L 265.917969 81.355469 L 266.148438 81.355469 C 267 82.417969 268.398438 83.269531 270.398438 83.957031 L 270.773438 83.1875 C 269.0625 82.730469 267.8125 82.105469 267 81.355469 L 270.625 81.355469 L 270.625 80.5625 L 265.917969 80.5625 L 265.917969 79.9375 L 265.0625 79.9375 L 265.0625 80.5625 L 260.292969 80.5625 L 260.292969 81.355469 Z M 261.460938 76.25 L 261.460938 79.625 L 270.292969 79.625 L 270.292969 78.894531 L 266.230469 78.894531 L 266.230469 78.042969 L 269.605469 78.042969 L 269.605469 77.355469 L 266.230469 77.355469 L 266.230469 76.5625 L 269.605469 76.5625 L 269.605469 75.894531 L 266.230469 75.894531 L 266.230469 75.082031 L 270.0625 75.082031 L 270.0625 74.355469 L 266.1875 74.355469 C 266.023438 73.9375 265.875 73.542969 265.710938 73.1875 L 264.8125 73.332031 C 265 73.644531 265.167969 74 265.335938 74.355469 L 262.75 74.355469 C 262.898438 74.0625 263.042969 73.75 263.148438 73.417969 L 262.355469 73.230469 C 261.8125 74.519531 261.023438 75.644531 259.960938 76.605469 L 260.460938 77.269531 C 260.8125 76.9375 261.148438 76.605469 261.460938 76.25 Z M 265.398438 78.894531 L 262.273438 78.894531 L 262.273438 78.042969 L 265.398438 78.042969 Z M 265.398438 77.355469 L 262.273438 77.355469 L 262.273438 76.5625 L 265.398438 76.5625 Z M 265.398438 75.894531 L 262.273438 75.894531 L 262.273438 75.1875 L 262.335938 75.082031 L 265.398438 75.082031 Z M 265.398438 75.894531 "/>
<path style=" stroke:none;fill-rule:nonzero;fill:rgb(0%,0%,0%);fill-opacity:1;" d="M 316.265625 15.140625 L 316.265625 14.140625 L 319.910156 14.140625 L 319.910156 17.328125 C 319.351562 17.773438 318.777344 18.109375 318.179688 18.328125 C 317.582031 18.546875 316.972656 18.660156 316.347656 18.660156 C 315.515625 18.660156 314.75 18.484375 314.054688 18.117188 C 313.359375 17.757812 312.835938 17.238281 312.492188 16.554688 C 312.144531 15.878906 311.972656 15.113281 311.972656 14.265625 C 311.972656 13.429688 312.144531 12.65625 312.492188 11.929688 C 312.835938 11.195312 313.335938 10.65625 313.992188 10.304688 C 314.660156 9.960938 315.414062 9.785156 316.265625 9.785156 C 316.890625 9.785156 317.453125 9.890625 317.953125 10.097656 C 318.453125 10.296875 318.835938 10.570312 319.117188 10.929688 C 319.410156 11.28125 319.628906 11.742188 319.785156 12.328125 L 318.765625 12.597656 C 318.625 12.171875 318.457031 11.828125 318.265625 11.578125 C 318.082031 11.328125 317.8125 11.128906 317.453125 10.972656 C 317.101562 10.820312 316.707031 10.742188 316.265625 10.742188 C 315.75 10.742188 315.296875 10.828125 314.910156 10.992188 C 314.535156 11.148438 314.226562 11.359375 313.992188 11.617188 C 313.769531 11.867188 313.597656 12.148438 313.472656 12.453125 C 313.25 12.992188 313.140625 13.570312 313.140625 14.179688 C 313.140625 14.960938 313.269531 15.609375 313.535156 16.117188 C 313.796875 16.632812 314.179688 17.015625 314.679688 17.265625 C 315.179688 17.515625 315.710938 17.640625 316.285156 17.640625 C 316.785156 17.640625 317.265625 17.550781 317.722656 17.367188 C 318.191406 17.175781 318.554688 16.96875 318.804688 16.742188 L 318.804688 15.140625 Z M 316.265625 15.140625 "/>
<path style=" stroke:none;fill-rule:nonzero;fill:rgb(0%,0%,0%);fill-opacity:1;" d="M 321.578125 18.515625 L 321.578125 9.929688 L 324.828125 9.929688 C 325.394531 9.929688 325.832031 9.960938 326.140625 10.015625 C 326.558594 10.085938 326.902344 10.21875 327.183594 10.410156 C 327.472656 10.609375 327.703125 10.882812 327.871094 11.242188 C 328.046875 11.59375 328.140625 11.984375 328.140625 12.410156 C 328.140625 13.148438 327.902344 13.765625 327.433594 14.265625 C 326.972656 14.765625 326.140625 15.015625 324.933594 15.015625 L 322.722656 15.015625 L 322.722656 18.515625 Z M 322.722656 14.015625 L 324.953125 14.015625 C 325.671875 14.015625 326.1875 13.878906 326.496094 13.597656 C 326.8125 13.320312 326.972656 12.941406 326.972656 12.453125 C 326.972656 12.09375 326.878906 11.785156 326.703125 11.535156 C 326.519531 11.273438 326.277344 11.097656 325.972656 11.015625 C 325.792969 10.960938 325.4375 10.929688 324.910156 10.929688 L 322.722656 10.929688 Z M 322.722656 14.015625 "/>
<path style=" stroke:none;fill-rule:nonzero;fill:rgb(0%,0%,0%);fill-opacity:1;" d="M 335.226562 9.929688 L 336.375 9.929688 L 336.375 14.890625 C 336.375 15.753906 336.269531 16.441406 336.0625 16.953125 C 335.863281 17.453125 335.507812 17.863281 335 18.179688 C 334.5 18.503906 333.832031 18.660156 333 18.660156 C 332.191406 18.660156 331.53125 18.519531 331.019531 18.242188 C 330.519531 17.96875 330.15625 17.566406 329.9375 17.035156 C 329.710938 16.507812 329.601562 15.796875 329.601562 14.890625 L 329.601562 9.929688 L 330.75 9.929688 L 330.75 14.890625 C 330.75 15.628906 330.816406 16.175781 330.957031 16.535156 C 331.09375 16.882812 331.332031 17.15625 331.664062 17.347656 C 332 17.546875 332.414062 17.640625 332.914062 17.640625 C 333.75 17.640625 334.335938 17.453125 334.6875 17.078125 C 335.046875 16.691406 335.226562 15.960938 335.226562 14.890625 Z M 335.226562 9.929688 "/>
<path style=" stroke:none;fill-rule:nonzero;fill:rgb(0%,0%,0%);fill-opacity:1;" d="M 341.164062 14.285156 C 341.164062 13.273438 341.269531 12.453125 341.476562 11.828125 C 341.6875 11.203125 341.988281 10.722656 342.394531 10.390625 C 342.8125 10.054688 343.332031 9.890625 343.957031 9.890625 C 344.425781 9.890625 344.835938 9.988281 345.1875 10.179688 C 345.53125 10.363281 345.816406 10.628906 346.039062 10.972656 C 346.257812 11.320312 346.4375 11.742188 346.5625 12.242188 C 346.695312 12.742188 346.769531 13.425781 346.769531 14.285156 C 346.769531 15.285156 346.664062 16.097656 346.457031 16.722656 C 346.25 17.335938 345.9375 17.816406 345.519531 18.160156 C 345.113281 18.492188 344.59375 18.660156 343.957031 18.660156 C 343.132812 18.660156 342.488281 18.363281 342.019531 17.765625 C 341.445312 17.054688 341.164062 15.898438 341.164062 14.285156 Z M 342.25 14.285156 C 342.25 15.691406 342.40625 16.628906 342.726562 17.097656 C 343.0625 17.554688 343.46875 17.785156 343.957031 17.785156 C 344.441406 17.785156 344.851562 17.554688 345.1875 17.097656 C 345.519531 16.628906 345.6875 15.691406 345.6875 14.285156 C 345.6875 12.867188 345.519531 11.929688 345.1875 11.472656 C 344.851562 11.003906 344.441406 10.765625 343.957031 10.765625 C 343.46875 10.765625 343.082031 10.96875 342.789062 11.367188 C 342.425781 11.898438 342.25 12.867188 342.25 14.285156 Z M 342.25 14.285156 "/>
<path style="fill:none;stroke-width:1;stroke-linecap:round;stroke-linejoin:round;stroke:rgb(0%,0%,0%);stroke-opacity:1;stroke-miterlimit:10;" d="M 77.976562 331.588867 L 120.635742 308.59668 " transform="matrix(1.333333,0,0,1.333333,44,-313.333333)"/>
<path style="fill:none;stroke-width:1;stroke-linecap:butt;stroke-linejoin:miter;stroke:rgb(0%,0%,0%);stroke-opacity:1;stroke-miterlimit:10;" d="M 124.157227 306.698242 L 120.635742 308.59668 M 119.926758 307.27832 L 124.157227 306.698242 L 121.347656 309.917969 " transform="matrix(1.333333,0,0,1.333333,44,-313.333333)"/>
<path style=" stroke:none;fill-rule:nonzero;fill:rgb(100%,100%,100%);fill-opacity:1;" d="M 205.078125 223.589844 L 278.8125 223.589844 L 278.8125 191.589844 L 205.078125 191.589844 Z M 205.078125 223.589844 "/>
<path style="fill:none;stroke-width:1;stroke-linecap:round;stroke-linejoin:round;stroke:rgb(0%,0%,0%);stroke-opacity:1;stroke-miterlimit:10;" d="M 120.808594 378.692383 L 176.109375 378.692383 L 176.109375 402.692383 L 120.808594 402.692383 Z M 120.808594 378.692383 " transform="matrix(1.333333,0,0,1.333333,44,-313.333333)"/>
<path style=" stroke:none;fill-rule:nonzero;fill:rgb(0%,0%,0%);fill-opacity:1;" d="M 217.363281 213.316406 C 218.195312 213.316406 218.613281 212.902344 218.613281 212.046875 L 218.613281 202.628906 L 217.714844 202.628906 L 217.714844 211.816406 C 217.714844 212.277344 217.488281 212.503906 217.050781 212.503906 C 216.507812 212.503906 215.925781 212.464844 215.320312 212.421875 L 215.527344 213.316406 Z M 214.507812 205.421875 C 214.027344 207.566406 213.320312 209.296875 212.363281 210.566406 L 213.089844 211.214844 C 214.027344 209.984375 214.800781 208.152344 215.363281 205.753906 Z M 221.320312 205.128906 L 220.527344 205.609375 C 221.464844 207.691406 222.195312 209.589844 222.738281 211.277344 L 223.507812 210.734375 C 222.988281 209.152344 222.257812 207.277344 221.320312 205.128906 Z M 221.320312 205.128906 "/>
<path style=" stroke:none;fill-rule:nonzero;fill:rgb(0%,0%,0%);fill-opacity:1;" d="M 228.027344 207.691406 C 227.632812 207.859375 227.257812 208.027344 226.863281 208.171875 L 226.863281 205.503906 L 228.050781 205.503906 L 228.050781 204.671875 L 226.863281 204.671875 L 226.863281 202.441406 L 226.027344 202.441406 L 226.027344 204.671875 L 224.675781 204.671875 L 224.675781 205.503906 L 226.027344 205.503906 L 226.027344 208.441406 C 225.527344 208.589844 225.027344 208.714844 224.527344 208.816406 L 224.714844 209.628906 C 225.152344 209.527344 225.589844 209.402344 226.027344 209.277344 L 226.027344 212.128906 C 226.027344 212.441406 225.882812 212.589844 225.589844 212.589844 C 225.300781 212.589844 224.988281 212.566406 224.675781 212.527344 L 224.839844 213.378906 L 225.882812 213.378906 C 226.527344 213.378906 226.863281 213.027344 226.863281 212.339844 L 226.863281 208.984375 C 227.238281 208.839844 227.632812 208.671875 228.027344 208.503906 Z M 229.464844 206.859375 L 231.152344 206.859375 L 231.152344 206.027344 L 229.464844 206.027344 L 229.464844 202.566406 L 228.613281 202.566406 L 228.613281 211.984375 C 228.613281 212.234375 228.488281 212.421875 228.214844 212.503906 L 228.425781 213.316406 C 229.464844 213.066406 230.382812 212.777344 231.195312 212.441406 L 231.027344 211.652344 C 230.550781 211.878906 230.050781 212.066406 229.464844 212.214844 Z M 233.777344 213.296875 C 234.257812 213.296875 234.589844 213.152344 234.820312 212.921875 C 235.070312 212.628906 235.238281 211.839844 235.320312 210.503906 L 234.527344 210.253906 C 234.488281 211.339844 234.382812 211.984375 234.238281 212.214844 C 234.113281 212.378906 233.925781 212.464844 233.632812 212.464844 L 233.050781 212.464844 C 232.738281 212.464844 232.589844 212.296875 232.589844 211.984375 L 232.589844 206.984375 C 233.402344 206.714844 234.277344 206.316406 235.195312 205.816406 L 234.695312 205.109375 C 234.007812 205.527344 233.300781 205.878906 232.589844 206.109375 L 232.589844 202.484375 L 231.738281 202.484375 L 231.738281 212.152344 C 231.738281 212.902344 232.089844 213.296875 232.777344 213.296875 Z M 233.777344 213.296875 "/>
<path style=" stroke:none;fill-rule:nonzero;fill:rgb(0%,0%,0%);fill-opacity:1;" d="M 237.777344 207.484375 L 237.777344 210.546875 L 241.507812 210.546875 L 241.507812 211.214844 L 237.488281 211.214844 L 237.488281 211.796875 L 241.507812 211.796875 L 241.507812 212.503906 L 236.589844 212.503906 L 236.589844 213.171875 L 247.300781 213.171875 L 247.300781 212.503906 L 242.363281 212.503906 L 242.363281 211.796875 L 246.425781 211.796875 L 246.425781 211.214844 L 242.363281 211.214844 L 242.363281 210.546875 L 246.132812 210.546875 L 246.132812 207.484375 Z M 245.300781 210.003906 L 242.363281 210.003906 L 242.363281 209.277344 L 245.300781 209.277344 Z M 241.507812 210.003906 L 238.613281 210.003906 L 238.613281 209.277344 L 241.507812 209.277344 Z M 238.613281 208.753906 L 238.613281 208.027344 L 241.507812 208.027344 L 241.507812 208.753906 Z M 242.363281 208.027344 L 245.300781 208.027344 L 245.300781 208.753906 L 242.363281 208.753906 Z M 238.050781 202.652344 L 238.050781 205.609375 L 245.882812 205.609375 L 245.882812 202.652344 Z M 245.050781 205.089844 L 238.882812 205.089844 L 238.882812 204.378906 L 245.050781 204.378906 Z M 238.882812 203.859375 L 238.882812 203.171875 L 245.050781 203.171875 L 245.050781 203.859375 Z M 236.570312 206.234375 L 236.570312 206.878906 L 247.320312 206.878906 L 247.320312 206.234375 Z M 236.570312 206.234375 "/>
<path style=" stroke:none;fill-rule:nonzero;fill:rgb(0%,0%,0%);fill-opacity:1;" d="M 248.695312 207.609375 L 248.695312 208.441406 L 253.757812 208.441406 L 253.757812 212.003906 C 253.757812 212.378906 253.570312 212.566406 253.175781 212.566406 C 252.488281 212.566406 251.839844 212.546875 251.238281 212.527344 L 251.464844 213.378906 L 253.527344 213.378906 C 254.257812 213.378906 254.632812 213.003906 254.632812 212.296875 L 254.632812 208.441406 L 259.195312 208.441406 L 259.195312 207.609375 L 254.632812 207.609375 L 254.632812 206.359375 C 255.863281 205.546875 256.925781 204.691406 257.882812 203.796875 L 257.882812 202.984375 L 249.964844 202.984375 L 249.964844 203.796875 L 256.695312 203.796875 C 255.777344 204.609375 254.777344 205.316406 253.757812 205.902344 L 253.757812 207.609375 Z M 248.695312 207.609375 "/>
<path style=" stroke:none;fill-rule:nonzero;fill:rgb(0%,0%,0%);fill-opacity:1;" d="M 264.464844 210.546875 C 263.777344 211.253906 262.507812 211.878906 260.652344 212.441406 L 261.113281 213.191406 C 263.152344 212.441406 264.570312 211.566406 265.320312 210.546875 L 265.550781 210.546875 L 265.550781 213.464844 L 266.402344 213.464844 L 266.402344 210.546875 L 266.632812 210.546875 C 267.488281 211.609375 268.882812 212.464844 270.882812 213.152344 L 271.257812 212.378906 C 269.550781 211.921875 268.300781 211.296875 267.488281 210.546875 L 271.113281 210.546875 L 271.113281 209.753906 L 266.402344 209.753906 L 266.402344 209.128906 L 265.550781 209.128906 L 265.550781 209.753906 L 260.777344 209.753906 L 260.777344 210.546875 Z M 261.945312 205.441406 L 261.945312 208.816406 L 270.777344 208.816406 L 270.777344 208.089844 L 266.714844 208.089844 L 266.714844 207.234375 L 270.089844 207.234375 L 270.089844 206.546875 L 266.714844 206.546875 L 266.714844 205.753906 L 270.089844 205.753906 L 270.089844 205.089844 L 266.714844 205.089844 L 266.714844 204.277344 L 270.550781 204.277344 L 270.550781 203.546875 L 266.675781 203.546875 C 266.507812 203.128906 266.363281 202.734375 266.195312 202.378906 L 265.300781 202.527344 C 265.488281 202.839844 265.652344 203.191406 265.820312 203.546875 L 263.238281 203.546875 C 263.382812 203.253906 263.527344 202.941406 263.632812 202.609375 L 262.839844 202.421875 C 262.300781 203.714844 261.507812 204.839844 260.445312 205.796875 L 260.945312 206.464844 C 261.300781 206.128906 261.632812 205.796875 261.945312 205.441406 Z M 265.882812 208.089844 L 262.757812 208.089844 L 262.757812 207.234375 L 265.882812 207.234375 Z M 265.882812 206.546875 L 262.757812 206.546875 L 262.757812 205.753906 L 265.882812 205.753906 Z M 265.882812 205.089844 L 262.757812 205.089844 L 262.757812 204.378906 L 262.820312 204.277344 L 265.882812 204.277344 Z M 265.882812 205.089844 "/>
<path style="fill:none;stroke-width:1;stroke-linecap:round;stroke-linejoin:round;stroke:rgb(0%,0%,0%);stroke-opacity:1;stroke-miterlimit:10;" d="M 83.229492 366.003906 L 115.289063 378.135742 " transform="matrix(1.333333,0,0,1.333333,44,-313.333333)"/>
<path style="fill:none;stroke-width:1;stroke-linecap:butt;stroke-linejoin:miter;stroke:rgb(0%,0%,0%);stroke-opacity:1;stroke-miterlimit:10;" d="M 119.030273 379.553711 L 115.289063 378.135742 M 115.819336 376.735352 L 119.030273 379.553711 L 114.758789 379.539062 " transform="matrix(1.333333,0,0,1.333333,44,-313.333333)"/>
<path style=" stroke:none;fill-rule:nonzero;fill:rgb(40.000001%,74.901962%,100%);fill-opacity:1;" d="M 81.902344 92 L 154.667969 92 L 154.667969 60 L 81.902344 60 Z M 81.902344 92 "/>
<path style="fill:none;stroke-width:1;stroke-linecap:round;stroke-linejoin:round;stroke:rgb(0%,0%,0%);stroke-opacity:1;stroke-miterlimit:10;" d="M 28.426758 280 L 83.000977 280 L 83.000977 304 L 28.426758 304 Z M 28.426758 280 " transform="matrix(1.333333,0,0,1.333333,44,-313.333333)"/>
<path style=" stroke:none;fill-rule:nonzero;fill:rgb(40.000001%,74.901962%,100%);fill-opacity:1;" d="M 205.078125 176.253906 L 277.84375 176.253906 L 277.84375 144.253906 L 205.078125 144.253906 Z M 205.078125 176.253906 "/>
<path style="fill:none;stroke-width:1;stroke-linecap:round;stroke-linejoin:round;stroke:rgb(0%,0%,0%);stroke-opacity:1;stroke-miterlimit:10;" d="M 120.808594 343.19043 L 175.382812 343.19043 L 175.382812 367.19043 L 120.808594 367.19043 Z M 120.808594 343.19043 " transform="matrix(1.333333,0,0,1.333333,44,-313.333333)"/>
<path style=" stroke:none;fill-rule:nonzero;fill:rgb(0%,0%,0%);fill-opacity:1;" d="M 233.648438 156.109375 L 233.648438 156.878906 L 235.398438 156.878906 L 235.398438 157.777344 L 236.210938 157.777344 L 236.210938 156.878906 L 238.125 156.878906 L 238.125 157.777344 L 238.960938 157.777344 L 238.960938 156.878906 L 240.8125 156.878906 L 240.8125 156.109375 L 238.960938 156.109375 L 238.960938 155.152344 L 238.125 155.152344 L 238.125 156.109375 L 236.210938 156.109375 L 236.210938 155.152344 L 235.398438 155.152344 L 235.398438 156.109375 Z M 237.023438 163.652344 C 237.710938 164.652344 238.835938 165.484375 240.398438 166.152344 L 240.960938 165.464844 C 239.542969 164.964844 238.5 164.316406 237.792969 163.484375 L 240.835938 163.484375 L 240.835938 162.691406 L 237.375 162.691406 C 237.460938 162.421875 237.523438 162.128906 237.5625 161.796875 L 240.023438 161.796875 L 240.023438 158.152344 L 234.292969 158.152344 L 234.292969 161.796875 L 236.8125 161.796875 C 236.75 162.109375 236.667969 162.421875 236.585938 162.691406 L 233.417969 162.691406 L 233.417969 163.484375 L 236.210938 163.484375 C 236.125 163.671875 236 163.816406 235.875 163.964844 C 235.355469 164.589844 234.5 165.046875 233.292969 165.378906 L 233.605469 166.089844 C 235 165.691406 235.960938 165.171875 236.5 164.464844 C 236.6875 164.234375 236.875 163.941406 237.023438 163.652344 Z M 232.480469 159.984375 C 232.792969 160.464844 233.1875 161.109375 233.625 161.902344 L 234.085938 161.214844 C 233.523438 160.402344 233 159.691406 232.480469 159.066406 L 232.480469 158.277344 L 233.75 158.277344 L 233.75 157.484375 L 232.480469 157.484375 L 232.480469 155.171875 L 231.667969 155.171875 L 231.667969 157.484375 L 230.273438 157.484375 L 230.273438 158.277344 L 231.667969 158.277344 L 231.667969 158.339844 C 231.3125 159.816406 230.710938 161.109375 229.875 162.253906 L 230.25 163.191406 C 230.835938 162.277344 231.292969 161.234375 231.667969 160.109375 L 231.667969 166.089844 L 232.480469 166.089844 Z M 239.25 161.109375 L 235.0625 161.109375 L 235.0625 160.296875 L 239.25 160.296875 Z M 235.0625 159.652344 L 235.0625 158.859375 L 239.25 158.859375 L 239.25 159.652344 Z M 235.0625 159.652344 "/>
<path style=" stroke:none;fill-rule:nonzero;fill:rgb(0%,0%,0%);fill-opacity:1;" d="M 242.585938 155.652344 L 242.585938 156.421875 L 243.792969 156.421875 L 243.792969 158.234375 L 242.273438 158.234375 L 242.273438 159.027344 L 243.75 159.027344 C 243.625 160.003906 243.230469 160.734375 242.5625 161.234375 L 243.210938 161.796875 C 244 161.171875 244.460938 160.253906 244.585938 159.027344 L 246.167969 159.027344 L 246.167969 161.652344 L 247 161.652344 L 247 159.027344 L 248.480469 159.027344 L 248.480469 158.234375 L 247 158.234375 L 247 156.421875 L 248.210938 156.421875 L 248.210938 155.652344 Z M 244.625 156.421875 L 246.167969 156.421875 L 246.167969 158.234375 L 244.625 158.234375 Z M 249.1875 155.941406 L 249.1875 160.066406 L 250.023438 160.066406 L 250.023438 155.941406 Z M 242.855469 162.839844 L 242.855469 163.628906 L 247.085938 163.628906 L 247.085938 165.027344 L 242.1875 165.027344 L 242.1875 165.816406 L 252.730469 165.816406 L 252.730469 165.027344 L 247.9375 165.027344 L 247.9375 163.628906 L 252.0625 163.628906 L 252.0625 162.839844 L 247.9375 162.839844 L 247.9375 161.796875 L 247.085938 161.796875 L 247.085938 162.839844 Z M 251.230469 161.777344 C 251.855469 161.777344 252.1875 161.402344 252.1875 160.671875 L 252.1875 155.277344 L 251.355469 155.277344 L 251.355469 160.464844 C 251.355469 160.816406 251.210938 161.003906 250.9375 161.003906 C 250.460938 161.003906 249.960938 160.984375 249.4375 160.941406 L 249.625 161.777344 Z M 251.230469 161.777344 "/>
<path style=" stroke:none;fill-rule:nonzero;fill:rgb(69.803923%,85.09804%,100%);fill-opacity:1;" d="M 297.332031 69.847656 L 361.332031 69.847656 L 361.332031 37.847656 L 297.332031 37.847656 Z M 297.332031 69.847656 "/>
<path style="fill:none;stroke-width:1;stroke-linecap:round;stroke-linejoin:round;stroke:rgb(0%,0%,0%);stroke-opacity:1;stroke-miterlimit:10;" d="M 189.999023 263.385742 L 237.999023 263.385742 L 237.999023 287.385742 L 189.999023 287.385742 Z M 189.999023 263.385742 " transform="matrix(1.333333,0,0,1.333333,44,-313.333333)"/>
<path style=" stroke:none;fill-rule:nonzero;fill:rgb(0%,0%,0%);fill-opacity:1;" d="M 306.1875 50.910156 L 306.1875 51.742188 L 310.125 51.742188 C 309.230469 53.867188 307.792969 55.617188 305.769531 56.953125 L 306.269531 57.765625 C 308.394531 56.179688 309.917969 54.179688 310.8125 51.742188 L 310.894531 51.742188 L 310.894531 56.429688 L 308.417969 56.429688 L 308.417969 57.265625 L 310.894531 57.265625 L 310.894531 59.722656 L 311.769531 59.722656 L 311.769531 57.265625 L 314.355469 57.265625 L 314.355469 56.429688 L 311.769531 56.429688 L 311.769531 51.742188 L 311.875 51.742188 C 312.6875 53.910156 314.144531 55.867188 316.269531 57.597656 L 316.855469 56.867188 C 314.792969 55.367188 313.355469 53.660156 312.542969 51.742188 L 316.457031 51.742188 L 316.457031 50.910156 L 311.769531 50.910156 L 311.769531 48.742188 L 310.894531 48.742188 L 310.894531 50.910156 Z M 306.1875 50.910156 "/>
<path style=" stroke:none;fill-rule:nonzero;fill:rgb(0%,0%,0%);fill-opacity:1;" d="M 328.417969 51.035156 L 325.832031 51.828125 L 325.832031 48.703125 L 324.980469 48.703125 L 324.980469 52.078125 L 323.230469 52.617188 L 323.230469 49.929688 L 322.394531 49.929688 L 322.394531 52.890625 L 321.394531 53.203125 L 321.394531 54.035156 L 322.394531 53.722656 L 322.394531 58.304688 C 322.394531 59.097656 322.792969 59.492188 323.605469 59.492188 L 327.394531 59.492188 C 327.832031 59.492188 328.167969 59.367188 328.355469 59.160156 C 328.605469 58.890625 328.75 58.160156 328.832031 56.953125 L 328.042969 56.679688 C 327.980469 57.660156 327.894531 58.242188 327.769531 58.453125 C 327.667969 58.597656 327.480469 58.679688 327.230469 58.679688 L 323.855469 58.679688 C 323.4375 58.679688 323.230469 58.492188 323.230469 58.140625 L 323.230469 53.472656 L 324.980469 52.953125 L 324.980469 57.222656 L 325.832031 57.222656 L 325.832031 52.703125 L 327.582031 52.160156 C 327.5625 53.804688 327.542969 54.742188 327.480469 54.992188 C 327.394531 55.265625 327.1875 55.390625 326.875 55.390625 C 326.730469 55.390625 326.5625 55.390625 326.375 55.367188 L 326.625 56.222656 L 326.6875 56.222656 C 327.582031 56.222656 328.105469 55.953125 328.230469 55.453125 C 328.355469 54.929688 328.417969 53.453125 328.417969 51.035156 Z M 321.542969 56.117188 C 321.082031 56.347656 320.605469 56.554688 320.125 56.722656 L 320.125 52.742188 L 321.375 52.742188 L 321.375 51.910156 L 320.125 51.910156 L 320.125 48.804688 L 319.269531 48.804688 L 319.269531 51.910156 L 317.917969 51.910156 L 317.917969 52.742188 L 319.269531 52.742188 L 319.269531 57.015625 C 318.769531 57.160156 318.269531 57.285156 317.769531 57.390625 L 317.980469 58.265625 C 319.25 57.929688 320.4375 57.492188 321.542969 56.972656 Z M 321.542969 56.117188 "/>
<path style=" stroke:none;fill-rule:nonzero;fill:rgb(0%,0%,0%);fill-opacity:1;" d="M 332.4375 53.660156 C 332.730469 54.179688 333.0625 54.847656 333.4375 55.640625 L 333.917969 54.929688 C 333.417969 54.097656 332.917969 53.347656 332.4375 52.679688 L 332.4375 51.890625 L 333.730469 51.890625 L 333.730469 51.054688 L 332.4375 51.054688 L 332.4375 48.742188 L 331.582031 48.742188 L 331.582031 51.054688 L 330.042969 51.054688 L 330.042969 51.890625 L 331.582031 51.890625 L 331.582031 51.972656 C 331.207031 53.367188 330.625 54.617188 329.792969 55.765625 L 330.144531 56.660156 C 330.730469 55.765625 331.207031 54.765625 331.582031 53.660156 L 331.582031 59.679688 L 332.4375 59.679688 Z M 336.8125 51.472656 L 336.8125 52.929688 L 334.667969 52.929688 L 334.1875 55.804688 L 336.730469 55.804688 C 336.042969 56.910156 334.957031 57.847656 333.4375 58.554688 L 333.894531 59.304688 C 335.144531 58.578125 336.125 57.722656 336.8125 56.679688 L 336.8125 59.722656 L 337.667969 59.722656 L 337.667969 55.804688 L 339.707031 55.804688 C 339.707031 56.640625 339.6875 57.203125 339.625 57.515625 C 339.542969 57.847656 339.375 58.015625 339.082031 58.015625 C 338.8125 58.015625 338.542969 57.992188 338.230469 57.972656 L 338.4375 58.765625 C 338.6875 58.765625 338.9375 58.785156 339.207031 58.785156 C 339.769531 58.765625 340.105469 58.535156 340.269531 58.078125 C 340.417969 57.660156 340.5 56.660156 340.5 55.078125 L 337.667969 55.078125 L 337.667969 53.679688 L 340.125 53.679688 L 340.125 50.722656 L 338.375 50.722656 C 338.769531 50.179688 339.105469 49.554688 339.394531 48.890625 L 338.582031 48.660156 C 338.25 49.453125 337.875 50.140625 337.4375 50.722656 L 334.269531 50.722656 L 334.269531 51.472656 Z M 336.8125 53.679688 L 336.8125 55.078125 L 335.0625 55.078125 L 335.332031 53.679688 Z M 337.667969 52.929688 L 337.667969 51.472656 L 339.375 51.472656 L 339.375 52.929688 Z M 335.644531 48.765625 L 334.875 49.015625 C 335.230469 49.492188 335.582031 50.035156 335.875 50.660156 L 336.625 50.347656 C 336.332031 49.785156 336.019531 49.265625 335.644531 48.765625 Z M 335.644531 48.765625 "/>
<path style=" stroke:none;fill-rule:nonzero;fill:rgb(0%,0%,0%);fill-opacity:1;" d="M 344.457031 55.304688 L 344.457031 56.054688 L 345.1875 56.054688 C 345.75 56.804688 346.480469 57.472656 347.375 58.015625 C 346.292969 58.472656 345.042969 58.804688 343.644531 59.015625 L 344.019531 59.765625 C 345.605469 59.492188 347 59.054688 348.230469 58.492188 C 349.355469 59.054688 350.769531 59.492188 352.417969 59.765625 L 352.792969 59.015625 C 351.375 58.828125 350.125 58.492188 349.042969 58.054688 C 350 57.472656 350.832031 56.765625 351.5 55.953125 L 351.5 55.304688 Z M 346.105469 56.054688 L 350.375 56.054688 C 349.75 56.660156 349.019531 57.203125 348.167969 57.640625 C 347.355469 57.203125 346.667969 56.679688 346.105469 56.054688 Z M 343.769531 52.617188 L 345.792969 52.617188 L 345.792969 54.492188 L 350.644531 54.492188 L 350.644531 52.617188 L 352.5 52.617188 L 352.5 51.828125 L 350.644531 51.828125 L 350.644531 50.847656 L 349.8125 50.847656 L 349.8125 51.828125 L 346.625 51.828125 L 346.625 50.867188 L 345.792969 50.867188 L 345.792969 51.828125 L 343.769531 51.828125 L 343.769531 50.472656 L 352.519531 50.472656 L 352.519531 49.640625 L 348.394531 49.640625 C 348.269531 49.285156 348.125 48.953125 347.980469 48.660156 L 347.0625 48.785156 C 347.230469 49.054688 347.375 49.328125 347.519531 49.640625 L 342.894531 49.640625 L 342.894531 53.554688 C 342.875 55.929688 342.519531 57.765625 341.832031 59.097656 L 342.480469 59.679688 C 343.292969 58.140625 343.730469 56.097656 343.769531 53.554688 Z M 346.625 52.617188 L 349.8125 52.617188 L 349.8125 53.765625 L 346.625 53.765625 Z M 346.625 52.617188 "/>
<path style="fill-rule:nonzero;fill:rgb(100%,100%,100%);fill-opacity:1;stroke-width:1;stroke-linecap:round;stroke-linejoin:round;stroke:rgb(0%,0%,0%);stroke-opacity:1;stroke-miterlimit:10;" d="M 287.276367 312.90625 C 291.574219 317.198242 291.574219 324.165039 287.276367 328.459961 C 282.981445 332.757812 276.020508 332.757812 271.722656 328.459961 C 267.424805 324.165039 267.424805 317.198242 271.722656 312.90625 C 276.020508 308.608398 282.981445 308.608398 287.276367 312.90625 " transform="matrix(1.333333,0,0,1.333333,44,-313.333333)"/>
<path style=" stroke:none;fill-rule:nonzero;fill:rgb(0%,0%,0%);fill-opacity:1;" d="M 416.164062 116.652344 L 416.164062 114.296875 L 413.828125 114.296875 L 413.828125 113.320312 L 416.164062 113.320312 L 416.164062 110.984375 L 417.164062 110.984375 L 417.164062 113.320312 L 419.496094 113.320312 L 419.496094 114.296875 L 417.164062 114.296875 L 417.164062 116.652344 Z M 416.164062 116.652344 "/>
<path style="fill:none;stroke-width:1;stroke-linecap:round;stroke-linejoin:round;stroke:rgb(0%,0%,0%);stroke-opacity:1;stroke-miterlimit:10;" d="M 83.000977 281.769531 L 114.553711 269.936523 " transform="matrix(1.333333,0,0,1.333333,44,-313.333333)"/>
<path style="fill:none;stroke-width:1;stroke-linecap:butt;stroke-linejoin:miter;stroke:rgb(0%,0%,0%);stroke-opacity:1;stroke-miterlimit:10;" d="M 118.300781 268.536133 L 114.553711 269.936523 M 114.026367 268.536133 L 118.300781 268.536133 L 115.081055 271.342773 " transform="matrix(1.333333,0,0,1.333333,44,-313.333333)"/>
<path style="fill:none;stroke-width:1;stroke-linecap:round;stroke-linejoin:round;stroke:rgb(0%,0%,0%);stroke-opacity:1;stroke-miterlimit:10;" d="M 73.253906 304 L 125.683594 339.859375 " transform="matrix(1.333333,0,0,1.333333,44,-313.333333)"/>
<path style="fill:none;stroke-width:1;stroke-linecap:butt;stroke-linejoin:miter;stroke:rgb(0%,0%,0%);stroke-opacity:1;stroke-miterlimit:10;" d="M 128.985352 342.118164 L 125.683594 339.859375 M 126.527344 338.620117 L 128.985352 342.118164 L 124.836914 341.098633 " transform="matrix(1.333333,0,0,1.333333,44,-313.333333)"/>
<path style=" stroke:none;fill-rule:nonzero;fill:rgb(100%,100%,100%);fill-opacity:1;" d="M 297.332031 202.667969 L 361.332031 202.667969 L 361.332031 170.667969 L 297.332031 170.667969 Z M 297.332031 202.667969 "/>
<path style="fill:none;stroke-width:1;stroke-linecap:round;stroke-linejoin:round;stroke:rgb(0%,0%,0%);stroke-opacity:1;stroke-miterlimit:10;" d="M 189.999023 363.000977 L 237.999023 363.000977 L 237.999023 387.000977 L 189.999023 387.000977 Z M 189.999023 363.000977 " transform="matrix(1.333333,0,0,1.333333,44,-313.333333)"/>
<path style=" stroke:none;fill-rule:nonzero;fill:rgb(0%,0%,0%);fill-opacity:1;" d="M 306.1875 183.730469 L 306.1875 184.5625 L 310.125 184.5625 C 309.230469 186.6875 307.792969 188.4375 305.769531 189.769531 L 306.269531 190.582031 C 308.394531 189 309.917969 187 310.8125 184.5625 L 310.894531 184.5625 L 310.894531 189.25 L 308.417969 189.25 L 308.417969 190.082031 L 310.894531 190.082031 L 310.894531 192.542969 L 311.769531 192.542969 L 311.769531 190.082031 L 314.355469 190.082031 L 314.355469 189.25 L 311.769531 189.25 L 311.769531 184.5625 L 311.875 184.5625 C 312.6875 186.730469 314.144531 188.6875 316.269531 190.417969 L 316.855469 189.6875 C 314.792969 188.1875 313.355469 186.480469 312.542969 184.5625 L 316.457031 184.5625 L 316.457031 183.730469 L 311.769531 183.730469 L 311.769531 181.5625 L 310.894531 181.5625 L 310.894531 183.730469 Z M 306.1875 183.730469 "/>
<path style=" stroke:none;fill-rule:nonzero;fill:rgb(0%,0%,0%);fill-opacity:1;" d="M 328.417969 183.855469 L 325.832031 184.644531 L 325.832031 181.519531 L 324.980469 181.519531 L 324.980469 184.894531 L 323.230469 185.4375 L 323.230469 182.75 L 322.394531 182.75 L 322.394531 185.707031 L 321.394531 186.019531 L 321.394531 186.855469 L 322.394531 186.542969 L 322.394531 191.125 C 322.394531 191.917969 322.792969 192.3125 323.605469 192.3125 L 327.394531 192.3125 C 327.832031 192.3125 328.167969 192.1875 328.355469 191.980469 C 328.605469 191.707031 328.75 190.980469 328.832031 189.769531 L 328.042969 189.5 C 327.980469 190.480469 327.894531 191.0625 327.769531 191.269531 C 327.667969 191.417969 327.480469 191.5 327.230469 191.5 L 323.855469 191.5 C 323.4375 191.5 323.230469 191.3125 323.230469 190.957031 L 323.230469 186.292969 L 324.980469 185.769531 L 324.980469 190.042969 L 325.832031 190.042969 L 325.832031 185.519531 L 327.582031 184.980469 C 327.5625 186.625 327.542969 187.5625 327.480469 187.8125 C 327.394531 188.082031 327.1875 188.207031 326.875 188.207031 C 326.730469 188.207031 326.5625 188.207031 326.375 188.1875 L 326.625 189.042969 L 326.6875 189.042969 C 327.582031 189.042969 328.105469 188.769531 328.230469 188.269531 C 328.355469 187.75 328.417969 186.269531 328.417969 183.855469 Z M 321.542969 188.9375 C 321.082031 189.167969 320.605469 189.375 320.125 189.542969 L 320.125 185.5625 L 321.375 185.5625 L 321.375 184.730469 L 320.125 184.730469 L 320.125 181.625 L 319.269531 181.625 L 319.269531 184.730469 L 317.917969 184.730469 L 317.917969 185.5625 L 319.269531 185.5625 L 319.269531 189.832031 C 318.769531 189.980469 318.269531 190.105469 317.769531 190.207031 L 317.980469 191.082031 C 319.25 190.75 320.4375 190.3125 321.542969 189.792969 Z M 321.542969 188.9375 "/>
<path style=" stroke:none;fill-rule:nonzero;fill:rgb(0%,0%,0%);fill-opacity:1;" d="M 332.4375 186.480469 C 332.730469 187 333.0625 187.667969 333.4375 188.457031 L 333.917969 187.75 C 333.417969 186.917969 332.917969 186.167969 332.4375 185.5 L 332.4375 184.707031 L 333.730469 184.707031 L 333.730469 183.875 L 332.4375 183.875 L 332.4375 181.5625 L 331.582031 181.5625 L 331.582031 183.875 L 330.042969 183.875 L 330.042969 184.707031 L 331.582031 184.707031 L 331.582031 184.792969 C 331.207031 186.1875 330.625 187.4375 329.792969 188.582031 L 330.144531 189.480469 C 330.730469 188.582031 331.207031 187.582031 331.582031 186.480469 L 331.582031 192.5 L 332.4375 192.5 Z M 336.8125 184.292969 L 336.8125 185.75 L 334.667969 185.75 L 334.1875 188.625 L 336.730469 188.625 C 336.042969 189.730469 334.957031 190.667969 333.4375 191.375 L 333.894531 192.125 C 335.144531 191.394531 336.125 190.542969 336.8125 189.5 L 336.8125 192.542969 L 337.667969 192.542969 L 337.667969 188.625 L 339.707031 188.625 C 339.707031 189.457031 339.6875 190.019531 339.625 190.332031 C 339.542969 190.667969 339.375 190.832031 339.082031 190.832031 C 338.8125 190.832031 338.542969 190.8125 338.230469 190.792969 L 338.4375 191.582031 C 338.6875 191.582031 338.9375 191.605469 339.207031 191.605469 C 339.769531 191.582031 340.105469 191.355469 340.269531 190.894531 C 340.417969 190.480469 340.5 189.480469 340.5 187.894531 L 337.667969 187.894531 L 337.667969 186.5 L 340.125 186.5 L 340.125 183.542969 L 338.375 183.542969 C 338.769531 183 339.105469 182.375 339.394531 181.707031 L 338.582031 181.480469 C 338.25 182.269531 337.875 182.957031 337.4375 183.542969 L 334.269531 183.542969 L 334.269531 184.292969 Z M 336.8125 186.5 L 336.8125 187.894531 L 335.0625 187.894531 L 335.332031 186.5 Z M 337.667969 185.75 L 337.667969 184.292969 L 339.375 184.292969 L 339.375 185.75 Z M 335.644531 181.582031 L 334.875 181.832031 C 335.230469 182.3125 335.582031 182.855469 335.875 183.480469 L 336.625 183.167969 C 336.332031 182.605469 336.019531 182.082031 335.644531 181.582031 Z M 335.644531 181.582031 "/>
<path style=" stroke:none;fill-rule:nonzero;fill:rgb(0%,0%,0%);fill-opacity:1;" d="M 344.457031 188.125 L 344.457031 188.875 L 345.1875 188.875 C 345.75 189.625 346.480469 190.292969 347.375 190.832031 C 346.292969 191.292969 345.042969 191.625 343.644531 191.832031 L 344.019531 192.582031 C 345.605469 192.3125 347 191.875 348.230469 191.3125 C 349.355469 191.875 350.769531 192.3125 352.417969 192.582031 L 352.792969 191.832031 C 351.375 191.644531 350.125 191.3125 349.042969 190.875 C 350 190.292969 350.832031 189.582031 351.5 188.769531 L 351.5 188.125 Z M 346.105469 188.875 L 350.375 188.875 C 349.75 189.480469 349.019531 190.019531 348.167969 190.457031 C 347.355469 190.019531 346.667969 189.5 346.105469 188.875 Z M 343.769531 185.4375 L 345.792969 185.4375 L 345.792969 187.3125 L 350.644531 187.3125 L 350.644531 185.4375 L 352.5 185.4375 L 352.5 184.644531 L 350.644531 184.644531 L 350.644531 183.667969 L 349.8125 183.667969 L 349.8125 184.644531 L 346.625 184.644531 L 346.625 183.6875 L 345.792969 183.6875 L 345.792969 184.644531 L 343.769531 184.644531 L 343.769531 183.292969 L 352.519531 183.292969 L 352.519531 182.457031 L 348.394531 182.457031 C 348.269531 182.105469 348.125 181.769531 347.980469 181.480469 L 347.0625 181.605469 C 347.230469 181.875 347.375 182.144531 347.519531 182.457031 L 342.894531 182.457031 L 342.894531 186.375 C 342.875 188.75 342.519531 190.582031 341.832031 191.917969 L 342.480469 192.5 C 343.292969 190.957031 343.730469 188.917969 343.769531 186.375 Z M 346.625 185.4375 L 349.8125 185.4375 L 349.8125 186.582031 L 346.625 186.582031 Z M 346.625 185.4375 "/>
<path style="fill:none;stroke-width:1;stroke-linecap:round;stroke-linejoin:round;stroke:rgb(0%,0%,0%);stroke-opacity:1;stroke-miterlimit:10;" d="M 231.351562 287.385742 L 265.59668 311.069336 " transform="matrix(1.333333,0,0,1.333333,44,-313.333333)"/>
<path style="fill:none;stroke-width:1;stroke-linecap:butt;stroke-linejoin:miter;stroke:rgb(0%,0%,0%);stroke-opacity:1;stroke-miterlimit:10;" d="M 268.886719 313.342773 L 265.59668 311.069336 M 266.452148 309.835938 L 268.886719 313.342773 L 264.74707 312.305664 " transform="matrix(1.333333,0,0,1.333333,44,-313.333333)"/>
<path style="fill:none;stroke-width:1;stroke-linecap:round;stroke-linejoin:round;stroke:rgb(0%,0%,0%);stroke-opacity:1;stroke-miterlimit:10;" d="M 228.46875 363.000977 L 266.493164 331.47168 " transform="matrix(1.333333,0,0,1.333333,44,-313.333333)"/>
<path style="fill:none;stroke-width:1;stroke-linecap:butt;stroke-linejoin:miter;stroke:rgb(0%,0%,0%);stroke-opacity:1;stroke-miterlimit:10;" d="M 269.569336 328.916992 L 266.493164 331.47168 M 265.532227 330.317383 L 269.569336 328.916992 L 267.448242 332.625977 " transform="matrix(1.333333,0,0,1.333333,44,-313.333333)"/>
<path style="fill:none;stroke-width:1;stroke-linecap:round;stroke-linejoin:round;stroke:rgb(0%,0%,0%);stroke-opacity:1;stroke-miterlimit:10;" d="M 290.499023 320.68457 L 297.600586 320.68457 " transform="matrix(1.333333,0,0,1.333333,44,-313.333333)"/>
<path style="fill:none;stroke-width:1;stroke-linecap:butt;stroke-linejoin:miter;stroke:rgb(0%,0%,0%);stroke-opacity:1;stroke-miterlimit:10;" d="M 301.602539 320.68457 L 297.600586 320.68457 M 297.600586 319.18457 L 301.602539 320.68457 L 297.600586 322.18457 " transform="matrix(1.333333,0,0,1.333333,44,-313.333333)"/>
<path style="fill:none;stroke-width:1;stroke-linecap:round;stroke-linejoin:round;stroke:rgb(0%,0%,0%);stroke-opacity:1;stroke-miterlimit:10;" d="M 175.382812 264.964844 L 184.303711 267.370117 " transform="matrix(1.333333,0,0,1.333333,44,-313.333333)"/>
<path style="fill:none;stroke-width:1;stroke-linecap:butt;stroke-linejoin:miter;stroke:rgb(0%,0%,0%);stroke-opacity:1;stroke-miterlimit:10;" d="M 188.165039 268.413086 L 184.303711 267.370117 M 184.696289 265.922852 L 188.165039 268.413086 L 183.914062 268.820312 " transform="matrix(1.333333,0,0,1.333333,44,-313.333333)"/>
<path style="fill:none;stroke-width:1;stroke-linecap:round;stroke-linejoin:round;stroke:rgb(0%,0%,0%);stroke-opacity:1;stroke-miterlimit:10;" d="M 176.109375 285.967773 L 184.31543 283.676758 " transform="matrix(1.333333,0,0,1.333333,44,-313.333333)"/>
<path style="fill:none;stroke-width:1;stroke-linecap:butt;stroke-linejoin:miter;stroke:rgb(0%,0%,0%);stroke-opacity:1;stroke-miterlimit:10;" d="M 188.170898 282.601562 L 184.31543 283.676758 M 183.914062 282.235352 L 188.170898 282.601562 L 184.722656 285.121094 " transform="matrix(1.333333,0,0,1.333333,44,-313.333333)"/>
<path style="fill:none;stroke-width:1;stroke-linecap:round;stroke-linejoin:round;stroke:rgb(0%,0%,0%);stroke-opacity:1;stroke-miterlimit:10;" d="M 175.382812 363.393555 L 184.350586 366.088867 " transform="matrix(1.333333,0,0,1.333333,44,-313.333333)"/>
<path style="fill:none;stroke-width:1;stroke-linecap:butt;stroke-linejoin:miter;stroke:rgb(0%,0%,0%);stroke-opacity:1;stroke-miterlimit:10;" d="M 188.179688 367.237305 L 184.350586 366.088867 M 184.78125 364.65332 L 188.179688 367.237305 L 183.916992 367.524414 " transform="matrix(1.333333,0,0,1.333333,44,-313.333333)"/>
<path style="fill:none;stroke-width:1;stroke-linecap:round;stroke-linejoin:round;stroke:rgb(0%,0%,0%);stroke-opacity:1;stroke-miterlimit:10;" d="M 176.109375 384.071289 L 184.262695 382.120117 " transform="matrix(1.333333,0,0,1.333333,44,-313.333333)"/>
<path style="fill:none;stroke-width:1;stroke-linecap:butt;stroke-linejoin:miter;stroke:rgb(0%,0%,0%);stroke-opacity:1;stroke-miterlimit:10;" d="M 188.15332 381.188477 L 184.262695 382.120117 M 183.914062 380.661133 L 188.15332 381.188477 L 184.614258 383.579102 " transform="matrix(1.333333,0,0,1.333333,44,-313.333333)"/>
<path style=" stroke:none;fill-rule:nonzero;fill:rgb(0%,0%,0%);fill-opacity:1;" d="M 7.667969 156.050781 L 7.667969 166.507812 L 8.457031 166.507812 L 8.457031 156.820312 L 9.875 156.820312 C 9.707031 157.78125 9.4375 158.84375 9.105469 159.988281 C 9.644531 160.925781 9.917969 161.78125 9.917969 162.53125 C 9.917969 162.800781 9.875 162.96875 9.792969 163.070312 C 9.707031 163.175781 9.5625 163.238281 9.394531 163.257812 C 9.230469 163.257812 9 163.238281 8.75 163.21875 L 9 164.03125 C 9.6875 164.007812 10.144531 163.863281 10.417969 163.59375 C 10.625 163.382812 10.707031 163.03125 10.707031 162.53125 C 10.667969 161.78125 10.394531 160.90625 9.875 159.882812 C 10.1875 158.78125 10.457031 157.71875 10.667969 156.71875 L 10.667969 156.050781 Z M 11.5625 156.28125 L 10.917969 156.675781 C 11.375 157.363281 11.75 158.007812 12.019531 158.613281 L 12.644531 158.15625 C 12.394531 157.632812 12.042969 156.988281 11.5625 156.28125 Z M 15.8125 165.59375 C 15.394531 165.59375 14.980469 165.570312 14.5625 165.570312 C 14.125 165.53125 13.730469 165.445312 13.417969 165.320312 C 13.0625 165.132812 12.769531 164.90625 12.5625 164.613281 C 12.542969 164.570312 12.5 164.550781 12.480469 164.507812 L 12.480469 159.613281 L 10.644531 159.613281 L 10.644531 160.382812 L 11.667969 160.382812 L 11.667969 164.382812 C 11.25 164.570312 10.75 165.09375 10.144531 165.90625 L 10.667969 166.550781 C 11.332031 165.59375 11.792969 165.132812 12.019531 165.132812 C 12.144531 165.132812 12.269531 165.21875 12.417969 165.40625 C 12.6875 165.738281 13 165.988281 13.394531 166.132812 C 13.769531 166.28125 14.230469 166.34375 14.75 166.363281 C 15.082031 166.363281 15.417969 166.382812 15.769531 166.382812 L 17.9375 166.382812 L 18.144531 165.570312 C 17.417969 165.570312 16.644531 165.59375 15.8125 165.59375 Z M 12.9375 156.738281 L 12.9375 157.53125 L 14.417969 157.53125 C 14.019531 158.863281 13.4375 159.945312 12.644531 160.800781 L 13.082031 161.382812 C 13.394531 161.09375 13.6875 160.738281 13.957031 160.34375 L 13.957031 164.882812 L 14.707031 164.882812 L 14.707031 162.84375 L 16.832031 162.84375 L 16.832031 163.757812 C 16.832031 164.007812 16.730469 164.15625 16.519531 164.15625 C 16.269531 164.15625 16 164.132812 15.707031 164.09375 L 15.917969 164.84375 L 16.792969 164.84375 C 17.332031 164.820312 17.625 164.550781 17.625 164.007812 L 17.625 158.71875 L 14.8125 158.71875 C 14.957031 158.34375 15.105469 157.945312 15.230469 157.53125 L 18.082031 157.53125 L 18.082031 156.738281 L 15.4375 156.738281 C 15.519531 156.40625 15.582031 156.050781 15.644531 155.695312 L 14.8125 155.59375 C 14.75 155.96875 14.6875 156.34375 14.605469 156.738281 Z M 14.707031 161.175781 L 16.832031 161.175781 L 16.832031 162.15625 L 14.707031 162.15625 Z M 16.832031 160.46875 L 14.707031 160.46875 L 14.707031 159.40625 L 16.832031 159.40625 Z M 16.832031 160.46875 "/>
<path style=" stroke:none;fill-rule:nonzero;fill:rgb(0%,0%,0%);fill-opacity:1;" d="M 19.355469 157.925781 L 19.355469 158.757812 L 21.125 158.757812 C 20.707031 160.257812 20.0625 161.59375 19.125 162.757812 L 19.5 163.695312 C 20.1875 162.71875 20.730469 161.632812 21.144531 160.425781 L 21.144531 166.53125 L 22.019531 166.53125 L 22.019531 160.195312 C 22.355469 160.675781 22.75 161.28125 23.207031 162.03125 L 23.707031 161.300781 C 23.125 160.59375 22.5625 159.945312 22.019531 159.363281 L 22.019531 158.757812 L 23.5 158.757812 L 23.5 157.925781 L 22.019531 157.925781 L 22.019531 155.59375 L 21.144531 155.59375 L 21.144531 157.925781 Z M 22.9375 165.988281 L 23.644531 166.632812 C 24.207031 165.757812 24.605469 164.882812 24.792969 163.945312 C 25.019531 163.050781 25.125 161.945312 25.125 160.632812 L 25.125 156.90625 L 27.25 156.90625 L 27.25 165.257812 C 27.25 165.945312 27.644531 166.300781 28.417969 166.300781 L 28.894531 166.300781 C 29.292969 166.300781 29.582031 166.21875 29.769531 166.09375 C 29.957031 165.925781 30.082031 165.632812 30.125 165.195312 C 30.167969 164.738281 30.207031 164.09375 30.207031 163.238281 L 29.417969 162.988281 C 29.417969 164.132812 29.375 164.820312 29.332031 165.050781 C 29.3125 165.238281 29.25 165.34375 29.144531 165.40625 C 29.0625 165.445312 28.957031 165.488281 28.8125 165.488281 L 28.417969 165.488281 C 28.207031 165.488281 28.125 165.363281 28.125 165.175781 L 28.125 156.09375 L 24.25 156.09375 L 24.25 160.632812 C 24.25 161.863281 24.167969 162.84375 24.019531 163.59375 C 23.8125 164.425781 23.457031 165.238281 22.9375 165.988281 Z M 22.9375 165.988281 "/>
<path style=" stroke:none;fill-rule:nonzero;fill:rgb(0%,0%,0%);fill-opacity:1;" d="M 36.082031 166.445312 C 36.917969 166.445312 37.332031 166.03125 37.332031 165.175781 L 37.332031 155.757812 L 36.4375 155.757812 L 36.4375 164.945312 C 36.4375 165.40625 36.207031 165.632812 35.769531 165.632812 C 35.230469 165.632812 34.644531 165.59375 34.042969 165.550781 L 34.25 166.445312 Z M 33.230469 158.550781 C 32.75 160.695312 32.042969 162.425781 31.082031 163.695312 L 31.8125 164.34375 C 32.75 163.113281 33.519531 161.28125 34.082031 158.882812 Z M 40.042969 158.257812 L 39.25 158.738281 C 40.1875 160.820312 40.917969 162.71875 41.457031 164.40625 L 42.230469 163.863281 C 41.707031 162.28125 40.980469 160.40625 40.042969 158.257812 Z M 40.042969 158.257812 "/>
<path style=" stroke:none;fill-rule:nonzero;fill:rgb(0%,0%,0%);fill-opacity:1;" d="M 46.75 160.820312 C 46.355469 160.988281 45.980469 161.15625 45.582031 161.300781 L 45.582031 158.632812 L 46.769531 158.632812 L 46.769531 157.800781 L 45.582031 157.800781 L 45.582031 155.570312 L 44.75 155.570312 L 44.75 157.800781 L 43.394531 157.800781 L 43.394531 158.632812 L 44.75 158.632812 L 44.75 161.570312 C 44.25 161.71875 43.75 161.84375 43.25 161.945312 L 43.4375 162.757812 C 43.875 162.65625 44.3125 162.53125 44.75 162.40625 L 44.75 165.257812 C 44.75 165.570312 44.605469 165.71875 44.3125 165.71875 C 44.019531 165.71875 43.707031 165.695312 43.394531 165.65625 L 43.5625 166.507812 L 44.605469 166.507812 C 45.25 166.507812 45.582031 166.15625 45.582031 165.46875 L 45.582031 162.113281 C 45.957031 161.96875 46.355469 161.800781 46.75 161.632812 Z M 48.1875 159.988281 L 49.875 159.988281 L 49.875 159.15625 L 48.1875 159.15625 L 48.1875 155.695312 L 47.332031 155.695312 L 47.332031 165.113281 C 47.332031 165.363281 47.207031 165.550781 46.9375 165.632812 L 47.144531 166.445312 C 48.1875 166.195312 49.105469 165.90625 49.917969 165.570312 L 49.75 164.78125 C 49.269531 165.007812 48.769531 165.195312 48.1875 165.34375 Z M 52.5 166.425781 C 52.980469 166.425781 53.3125 166.28125 53.542969 166.050781 C 53.792969 165.757812 53.957031 164.96875 54.042969 163.632812 L 53.25 163.382812 C 53.207031 164.46875 53.105469 165.113281 52.957031 165.34375 C 52.832031 165.507812 52.644531 165.59375 52.355469 165.59375 L 51.769531 165.59375 C 51.457031 165.59375 51.3125 165.425781 51.3125 165.113281 L 51.3125 160.113281 C 52.125 159.84375 53 159.445312 53.917969 158.945312 L 53.417969 158.238281 C 52.730469 158.65625 52.019531 159.007812 51.3125 159.238281 L 51.3125 155.613281 L 50.457031 155.613281 L 50.457031 165.28125 C 50.457031 166.03125 50.8125 166.425781 51.5 166.425781 Z M 52.5 166.425781 "/>
<path style=" stroke:none;fill-rule:nonzero;fill:rgb(0%,0%,0%);fill-opacity:1;" d="M 56.5 160.613281 L 56.5 163.675781 L 60.230469 163.675781 L 60.230469 164.34375 L 56.207031 164.34375 L 56.207031 164.925781 L 60.230469 164.925781 L 60.230469 165.632812 L 55.3125 165.632812 L 55.3125 166.300781 L 66.019531 166.300781 L 66.019531 165.632812 L 61.082031 165.632812 L 61.082031 164.925781 L 65.144531 164.925781 L 65.144531 164.34375 L 61.082031 164.34375 L 61.082031 163.675781 L 64.855469 163.675781 L 64.855469 160.613281 Z M 64.019531 163.132812 L 61.082031 163.132812 L 61.082031 162.40625 L 64.019531 162.40625 Z M 60.230469 163.132812 L 57.332031 163.132812 L 57.332031 162.40625 L 60.230469 162.40625 Z M 57.332031 161.882812 L 57.332031 161.15625 L 60.230469 161.15625 L 60.230469 161.882812 Z M 61.082031 161.15625 L 64.019531 161.15625 L 64.019531 161.882812 L 61.082031 161.882812 Z M 56.769531 155.78125 L 56.769531 158.738281 L 64.605469 158.738281 L 64.605469 155.78125 Z M 63.769531 158.21875 L 57.605469 158.21875 L 57.605469 157.507812 L 63.769531 157.507812 Z M 57.605469 156.988281 L 57.605469 156.300781 L 63.769531 156.300781 L 63.769531 156.988281 Z M 55.292969 159.363281 L 55.292969 160.007812 L 66.042969 160.007812 L 66.042969 159.363281 Z M 55.292969 159.363281 "/>
<path style=" stroke:none;fill-rule:nonzero;fill:rgb(0%,0%,0%);fill-opacity:1;" d="M 28.855469 72.519531 L 28.855469 73.292969 L 30.605469 73.292969 L 30.605469 74.1875 L 31.417969 74.1875 L 31.417969 73.292969 L 33.332031 73.292969 L 33.332031 74.1875 L 34.167969 74.1875 L 34.167969 73.292969 L 36.019531 73.292969 L 36.019531 72.519531 L 34.167969 72.519531 L 34.167969 71.5625 L 33.332031 71.5625 L 33.332031 72.519531 L 31.417969 72.519531 L 31.417969 71.5625 L 30.605469 71.5625 L 30.605469 72.519531 Z M 32.230469 80.0625 C 32.917969 81.0625 34.042969 81.894531 35.605469 82.5625 L 36.167969 81.875 C 34.75 81.375 33.707031 80.730469 33 79.894531 L 36.042969 79.894531 L 36.042969 79.105469 L 32.582031 79.105469 C 32.667969 78.832031 32.730469 78.542969 32.769531 78.207031 L 35.230469 78.207031 L 35.230469 74.5625 L 29.5 74.5625 L 29.5 78.207031 L 32.019531 78.207031 C 31.957031 78.519531 31.875 78.832031 31.792969 79.105469 L 28.625 79.105469 L 28.625 79.894531 L 31.417969 79.894531 C 31.332031 80.082031 31.207031 80.230469 31.082031 80.375 C 30.5625 81 29.707031 81.457031 28.5 81.792969 L 28.8125 82.5 C 30.207031 82.105469 31.167969 81.582031 31.707031 80.875 C 31.894531 80.644531 32.082031 80.355469 32.230469 80.0625 Z M 27.6875 76.394531 C 28 76.875 28.394531 77.519531 28.832031 78.3125 L 29.292969 77.625 C 28.730469 76.8125 28.207031 76.105469 27.6875 75.480469 L 27.6875 74.6875 L 28.957031 74.6875 L 28.957031 73.894531 L 27.6875 73.894531 L 27.6875 71.582031 L 26.875 71.582031 L 26.875 73.894531 L 25.480469 73.894531 L 25.480469 74.6875 L 26.875 74.6875 L 26.875 74.75 C 26.519531 76.230469 25.917969 77.519531 25.082031 78.667969 L 25.457031 79.605469 C 26.042969 78.6875 26.5 77.644531 26.875 76.519531 L 26.875 82.5 L 27.6875 82.5 Z M 34.457031 77.519531 L 30.269531 77.519531 L 30.269531 76.707031 L 34.457031 76.707031 Z M 30.269531 76.0625 L 30.269531 75.269531 L 34.457031 75.269531 L 34.457031 76.0625 Z M 30.269531 76.0625 "/>
<path style=" stroke:none;fill-rule:nonzero;fill:rgb(0%,0%,0%);fill-opacity:1;" d="M 37.792969 72.0625 L 37.792969 72.832031 L 39 72.832031 L 39 74.644531 L 37.480469 74.644531 L 37.480469 75.4375 L 38.957031 75.4375 C 38.832031 76.417969 38.4375 77.144531 37.769531 77.644531 L 38.417969 78.207031 C 39.207031 77.582031 39.667969 76.667969 39.792969 75.4375 L 41.375 75.4375 L 41.375 78.0625 L 42.207031 78.0625 L 42.207031 75.4375 L 43.6875 75.4375 L 43.6875 74.644531 L 42.207031 74.644531 L 42.207031 72.832031 L 43.417969 72.832031 L 43.417969 72.0625 Z M 39.832031 72.832031 L 41.375 72.832031 L 41.375 74.644531 L 39.832031 74.644531 Z M 44.394531 72.355469 L 44.394531 76.480469 L 45.230469 76.480469 L 45.230469 72.355469 Z M 38.0625 79.25 L 38.0625 80.042969 L 42.292969 80.042969 L 42.292969 81.4375 L 37.394531 81.4375 L 37.394531 82.230469 L 47.9375 82.230469 L 47.9375 81.4375 L 43.144531 81.4375 L 43.144531 80.042969 L 47.269531 80.042969 L 47.269531 79.25 L 43.144531 79.25 L 43.144531 78.207031 L 42.292969 78.207031 L 42.292969 79.25 Z M 46.4375 78.1875 C 47.0625 78.1875 47.394531 77.8125 47.394531 77.082031 L 47.394531 71.6875 L 46.5625 71.6875 L 46.5625 76.875 C 46.5625 77.230469 46.417969 77.417969 46.144531 77.417969 C 45.667969 77.417969 45.167969 77.394531 44.644531 77.355469 L 44.832031 78.1875 Z M 46.4375 78.1875 "/>
</g>
</svg>
