<?xml version="1.0" encoding="UTF-8"?>
<svg xmlns="http://www.w3.org/2000/svg" xmlns:xlink="http://www.w3.org/1999/xlink" width="530.666667" height="169.333333" viewBox="0 0 530.666667 169.333333" version="1.1">
<g id="surface1">
<path style=" stroke:none;fill-rule:nonzero;fill:rgb(40.000001%,74.901962%,100%);fill-opacity:1;" d="M 90.667969 33.332031 L 178.667969 33.332031 L 178.667969 1.332031 L 90.667969 1.332031 Z M 90.667969 33.332031 "/>
<path style="fill:none;stroke-width:1;stroke-linecap:round;stroke-linejoin:round;stroke:rgb(0%,0%,0%);stroke-opacity:1;stroke-miterlimit:10;" d="M 68.000977 338.999023 L 134.000977 338.999023 L 134.000977 362.999023 L 68.000977 362.999023 Z M 68.000977 338.999023 " transform="matrix(1.333333,0,0,1.333333,0,-450.666667)"/>
<path style=" stroke:none;fill-rule:nonzero;fill:rgb(0%,0%,0%);fill-opacity:1;" d="M 108.046875 18.03125 C 108.046875 16.882812 108.367188 16.027344 109.007812 15.46875 C 109.546875 15.011719 110.199219 14.78125 110.964844 14.78125 C 111.824219 14.78125 112.527344 15.0625 113.070312 15.617188 C 113.609375 16.171875 113.882812 16.945312 113.882812 17.929688 C 113.882812 18.734375 113.757812 19.367188 113.507812 19.824219 C 113.265625 20.28125 112.921875 20.648438 112.464844 20.90625 C 112.007812 21.15625 111.507812 21.28125 110.964844 21.28125 C 110.089844 21.28125 109.382812 21.007812 108.839844 20.449219 C 108.308594 19.882812 108.046875 19.074219 108.046875 18.03125 Z M 109.132812 18.03125 C 109.132812 18.824219 109.304688 19.421875 109.652344 19.824219 C 109.996094 20.214844 110.433594 20.40625 110.964844 20.40625 C 111.492188 20.40625 111.929688 20.214844 112.277344 19.824219 C 112.621094 19.421875 112.796875 18.8125 112.796875 17.992188 C 112.796875 17.230469 112.621094 16.648438 112.277344 16.242188 C 111.929688 15.839844 111.492188 15.636719 110.964844 15.636719 C 110.433594 15.636719 109.996094 15.839844 109.652344 16.242188 C 109.304688 16.632812 109.132812 17.230469 109.132812 18.03125 Z M 109.132812 18.03125 "/>
<path style=" stroke:none;fill-rule:nonzero;fill:rgb(0%,0%,0%);fill-opacity:1;" d="M 115.117188 21.136719 L 115.117188 14.90625 L 116.078125 14.90625 L 116.078125 15.804688 C 116.519531 15.125 117.179688 14.78125 118.054688 14.78125 C 118.429688 14.78125 118.769531 14.855469 119.078125 14.992188 C 119.394531 15.117188 119.628906 15.292969 119.785156 15.511719 C 119.9375 15.71875 120.046875 15.980469 120.117188 16.28125 C 120.160156 16.480469 120.179688 16.820312 120.179688 17.304688 L 120.179688 21.136719 L 119.117188 21.136719 L 119.117188 17.34375 C 119.117188 16.917969 119.078125 16.59375 118.992188 16.386719 C 118.910156 16.179688 118.765625 16.011719 118.554688 15.886719 C 118.347656 15.75 118.101562 15.679688 117.828125 15.679688 C 117.378906 15.679688 116.992188 15.824219 116.660156 16.117188 C 116.335938 16.398438 116.179688 16.9375 116.179688 17.742188 L 116.179688 21.136719 Z M 115.117188 21.136719 "/>
<path style=" stroke:none;fill-rule:nonzero;fill:rgb(0%,0%,0%);fill-opacity:1;" d="M 126.042969 19.136719 L 127.148438 19.261719 C 126.964844 19.902344 126.636719 20.402344 126.167969 20.761719 C 125.710938 21.109375 125.117188 21.28125 124.398438 21.28125 C 123.492188 21.28125 122.773438 21.007812 122.230469 20.449219 C 121.699219 19.882812 121.4375 19.089844 121.4375 18.074219 C 121.4375 17.03125 121.710938 16.230469 122.25 15.65625 C 122.792969 15.074219 123.492188 14.78125 124.355469 14.78125 C 125.1875 14.78125 125.859375 15.070312 126.375 15.636719 C 126.902344 16.195312 127.167969 16.984375 127.167969 18.011719 C 127.167969 18.085938 127.167969 18.179688 127.167969 18.304688 L 122.523438 18.304688 C 122.5625 18.984375 122.757812 19.507812 123.105469 19.867188 C 123.449219 20.230469 123.886719 20.40625 124.417969 20.40625 C 124.804688 20.40625 125.132812 20.3125 125.398438 20.117188 C 125.671875 19.90625 125.886719 19.585938 126.042969 19.136719 Z M 122.585938 17.429688 L 126.0625 17.429688 C 126.023438 16.902344 125.886719 16.507812 125.667969 16.242188 C 125.335938 15.839844 124.898438 15.636719 124.355469 15.636719 C 123.867188 15.636719 123.460938 15.804688 123.125 16.136719 C 122.804688 16.460938 122.625 16.886719 122.585938 17.429688 Z M 122.585938 17.429688 "/>
<path style=" stroke:none;fill-rule:nonzero;fill:rgb(0%,0%,0%);fill-opacity:1;" d="M 128.050781 19.28125 L 129.09375 19.117188 C 129.144531 19.53125 129.304688 19.855469 129.570312 20.074219 C 129.847656 20.296875 130.222656 20.40625 130.695312 20.40625 C 131.179688 20.40625 131.539062 20.3125 131.78125 20.117188 C 132.015625 19.921875 132.132812 19.695312 132.132812 19.429688 C 132.132812 19.179688 132.03125 18.992188 131.820312 18.867188 C 131.664062 18.773438 131.304688 18.648438 130.738281 18.492188 C 129.957031 18.296875 129.414062 18.132812 129.113281 17.992188 C 128.820312 17.855469 128.597656 17.65625 128.445312 17.40625 C 128.289062 17.15625 128.21875 16.882812 128.21875 16.574219 C 128.21875 16.296875 128.28125 16.042969 128.40625 15.804688 C 128.53125 15.570312 128.703125 15.367188 128.925781 15.199219 C 129.09375 15.089844 129.3125 14.992188 129.59375 14.90625 C 129.882812 14.824219 130.1875 14.78125 130.507812 14.78125 C 130.992188 14.78125 131.414062 14.855469 131.78125 14.992188 C 132.15625 15.132812 132.429688 15.320312 132.613281 15.554688 C 132.789062 15.792969 132.914062 16.109375 132.988281 16.511719 L 131.945312 16.65625 C 131.90625 16.339844 131.765625 16.089844 131.53125 15.90625 C 131.304688 15.730469 130.992188 15.636719 130.59375 15.636719 C 130.101562 15.636719 129.757812 15.71875 129.550781 15.886719 C 129.34375 16.042969 129.238281 16.230469 129.238281 16.449219 C 129.238281 16.589844 129.28125 16.710938 129.363281 16.804688 C 129.445312 16.929688 129.582031 17.027344 129.78125 17.09375 C 129.875 17.136719 130.179688 17.230469 130.695312 17.367188 C 131.445312 17.5625 131.96875 17.71875 132.257812 17.84375 C 132.5625 17.96875 132.800781 18.15625 132.96875 18.40625 C 133.132812 18.648438 133.21875 18.945312 133.21875 19.304688 C 133.21875 19.667969 133.113281 20 132.90625 20.304688 C 132.695312 20.609375 132.394531 20.855469 132.007812 21.03125 C 131.632812 21.199219 131.195312 21.28125 130.695312 21.28125 C 129.890625 21.28125 129.269531 21.117188 128.84375 20.78125 C 128.425781 20.4375 128.160156 19.9375 128.050781 19.28125 Z M 128.050781 19.28125 "/>
<path style=" stroke:none;fill-rule:nonzero;fill:rgb(0%,0%,0%);fill-opacity:1;" d="M 136.488281 23.65625 C 135.90625 22.917969 135.410156 22.0625 135.007812 21.09375 C 134.601562 20.109375 134.40625 19.089844 134.40625 18.03125 C 134.40625 17.105469 134.554688 16.210938 134.863281 15.34375 C 135.207031 14.359375 135.75 13.382812 136.488281 12.40625 L 137.238281 12.40625 C 136.765625 13.214844 136.453125 13.792969 136.300781 14.136719 C 136.0625 14.679688 135.875 15.242188 135.738281 15.824219 C 135.570312 16.5625 135.488281 17.296875 135.488281 18.03125 C 135.488281 19.90625 136.070312 21.78125 137.238281 23.65625 Z M 136.488281 23.65625 "/>
<path style=" stroke:none;fill-rule:nonzero;fill:rgb(0%,0%,0%);fill-opacity:1;" d="M 142.148438 21.136719 L 141.085938 21.136719 L 141.085938 14.40625 C 140.835938 14.65625 140.503906 14.90625 140.085938 15.15625 C 139.671875 15.398438 139.300781 15.570312 138.984375 15.679688 L 138.984375 14.65625 C 139.566406 14.398438 140.078125 14.070312 140.523438 13.679688 C 140.96875 13.277344 141.28125 12.886719 141.460938 12.511719 L 142.148438 12.511719 Z M 142.148438 21.136719 "/>
<path style=" stroke:none;fill-rule:nonzero;fill:rgb(0%,0%,0%);fill-opacity:1;" d="M 145.40625 21.136719 L 145.40625 19.929688 L 146.617188 19.929688 L 146.617188 21.136719 C 146.617188 21.578125 146.53125 21.933594 146.367188 22.199219 C 146.210938 22.476562 145.96875 22.6875 145.636719 22.84375 L 145.34375 22.386719 C 145.5625 22.289062 145.726562 22.140625 145.824219 21.949219 C 145.933594 21.765625 145.996094 21.496094 146.011719 21.136719 Z M 145.40625 21.136719 "/>
<path style=" stroke:none;fill-rule:nonzero;fill:rgb(0%,0%,0%);fill-opacity:1;" d="M 157.054688 20.117188 L 157.054688 21.136719 L 151.367188 21.136719 C 151.367188 20.886719 151.410156 20.648438 151.492188 20.40625 C 151.644531 20.023438 151.878906 19.636719 152.199219 19.261719 C 152.519531 18.886719 152.976562 18.460938 153.574219 17.96875 C 154.503906 17.195312 155.128906 16.585938 155.449219 16.136719 C 155.785156 15.695312 155.949219 15.273438 155.949219 14.867188 C 155.949219 14.449219 155.792969 14.105469 155.492188 13.824219 C 155.199219 13.53125 154.816406 13.386719 154.347656 13.386719 C 153.832031 13.386719 153.417969 13.542969 153.117188 13.84375 C 152.808594 14.152344 152.660156 14.574219 152.660156 15.117188 L 151.574219 14.992188 C 151.644531 14.1875 151.917969 13.574219 152.410156 13.15625 C 152.894531 12.730469 153.542969 12.511719 154.367188 12.511719 C 155.183594 12.511719 155.832031 12.742188 156.304688 13.199219 C 156.789062 13.65625 157.035156 14.21875 157.035156 14.886719 C 157.035156 15.234375 156.960938 15.574219 156.824219 15.90625 C 156.683594 16.242188 156.449219 16.59375 156.117188 16.96875 C 155.792969 17.335938 155.261719 17.835938 154.511719 18.46875 C 153.871094 19 153.460938 19.359375 153.285156 19.554688 C 153.101562 19.75 152.957031 19.9375 152.847656 20.117188 Z M 157.054688 20.117188 "/>
<path style=" stroke:none;fill-rule:nonzero;fill:rgb(0%,0%,0%);fill-opacity:1;" d="M 159.167969 23.65625 L 158.417969 23.65625 C 159.582031 21.78125 160.167969 19.90625 160.167969 18.03125 C 160.167969 17.296875 160.082031 16.570312 159.917969 15.84375 C 159.777344 15.261719 159.589844 14.699219 159.355469 14.15625 C 159.199219 13.8125 158.886719 13.230469 158.417969 12.40625 L 159.167969 12.40625 C 159.902344 13.382812 160.441406 14.359375 160.792969 15.34375 C 161.09375 16.210938 161.25 17.105469 161.25 18.03125 C 161.25 19.089844 161.046875 20.109375 160.644531 21.09375 C 160.238281 22.0625 159.75 22.917969 159.167969 23.65625 Z M 159.167969 23.65625 "/>
<path style=" stroke:none;fill-rule:nonzero;fill:rgb(40.000001%,74.901962%,100%);fill-opacity:1;" d="M 329.902344 33.332031 L 372 33.332031 L 372 1.332031 L 329.902344 1.332031 Z M 329.902344 33.332031 "/>
<path style="fill:none;stroke-width:1;stroke-linecap:round;stroke-linejoin:round;stroke:rgb(0%,0%,0%);stroke-opacity:1;stroke-miterlimit:10;" d="M 247.426758 338.999023 L 279 338.999023 L 279 362.999023 L 247.426758 362.999023 Z M 247.426758 338.999023 " transform="matrix(1.333333,0,0,1.333333,0,-450.666667)"/>
<path style=" stroke:none;fill-rule:nonzero;fill:rgb(0%,0%,0%);fill-opacity:1;" d="M 339.363281 21.136719 L 341.636719 17.90625 L 339.53125 14.90625 L 340.863281 14.90625 L 341.824219 16.367188 C 341.988281 16.648438 342.125 16.882812 342.238281 17.074219 C 342.417969 16.8125 342.578125 16.585938 342.71875 16.386719 L 343.761719 14.90625 L 345.03125 14.90625 L 342.886719 17.84375 L 345.199219 21.136719 L 343.90625 21.136719 L 342.613281 19.199219 L 342.28125 18.679688 L 340.65625 21.136719 Z M 339.363281 21.136719 "/>
<path style=" stroke:none;fill-rule:nonzero;fill:rgb(0%,0%,0%);fill-opacity:1;" d="M 348.988281 14.117188 L 349.261719 13.28125 C 349.886719 13.507812 350.332031 13.699219 350.613281 13.867188 C 350.542969 13.15625 350.5 12.671875 350.488281 12.40625 L 351.34375 12.40625 C 351.328125 12.78125 351.285156 13.261719 351.21875 13.84375 C 351.621094 13.652344 352.078125 13.464844 352.59375 13.28125 L 352.863281 14.117188 C 352.363281 14.28125 351.875 14.398438 351.40625 14.449219 C 351.640625 14.65625 351.972656 15.027344 352.40625 15.554688 L 351.71875 16.054688 C 351.480469 15.75 351.207031 15.335938 350.90625 14.804688 C 350.613281 15.34375 350.355469 15.761719 350.136719 16.054688 L 349.449219 15.554688 C 349.90625 15 350.230469 14.632812 350.425781 14.449219 C 349.925781 14.355469 349.449219 14.242188 348.988281 14.117188 Z M 348.988281 14.117188 "/>
<path style=" stroke:none;fill-rule:nonzero;fill:rgb(0%,0%,0%);fill-opacity:1;" d="M 357.367188 23.53125 L 357.242188 22.554688 C 357.476562 22.605469 357.679688 22.636719 357.847656 22.636719 C 358.082031 22.636719 358.269531 22.59375 358.410156 22.511719 C 358.546875 22.4375 358.664062 22.335938 358.765625 22.199219 C 358.816406 22.085938 358.921875 21.824219 359.078125 21.40625 C 359.101562 21.351562 359.140625 21.265625 359.179688 21.15625 L 356.804688 14.90625 L 357.953125 14.90625 L 359.242188 18.511719 C 359.410156 18.96875 359.5625 19.449219 359.703125 19.949219 C 359.8125 19.480469 359.953125 19.007812 360.117188 18.53125 L 361.453125 14.90625 L 362.515625 14.90625 L 360.140625 21.242188 C 359.890625 21.917969 359.691406 22.390625 359.554688 22.65625 C 359.359375 23 359.144531 23.25 358.910156 23.40625 C 358.671875 23.574219 358.378906 23.65625 358.035156 23.65625 C 357.835938 23.65625 357.617188 23.617188 357.367188 23.53125 Z M 357.367188 23.53125 "/>
<path style=" stroke:none;fill-rule:nonzero;fill:rgb(40.000001%,74.901962%,100%);fill-opacity:1;" d="M 403.234375 33.332031 L 445.332031 33.332031 L 445.332031 1.332031 L 403.234375 1.332031 Z M 403.234375 33.332031 "/>
<path style="fill:none;stroke-width:1;stroke-linecap:round;stroke-linejoin:round;stroke:rgb(0%,0%,0%);stroke-opacity:1;stroke-miterlimit:10;" d="M 302.425781 338.999023 L 333.999023 338.999023 L 333.999023 362.999023 L 302.425781 362.999023 Z M 302.425781 338.999023 " transform="matrix(1.333333,0,0,1.333333,0,-450.666667)"/>
<path style=" stroke:none;fill-rule:nonzero;fill:rgb(0%,0%,0%);fill-opacity:1;" d="M 410.585938 23.511719 L 410.585938 22.761719 L 417.585938 22.761719 L 417.585938 23.511719 Z M 410.585938 23.511719 "/>
<path style=" stroke:none;fill-rule:nonzero;fill:rgb(0%,0%,0%);fill-opacity:1;" d="M 423.78125 19.742188 L 423.78125 17.386719 L 421.445312 17.386719 L 421.445312 16.40625 L 423.78125 16.40625 L 423.78125 14.074219 L 424.78125 14.074219 L 424.78125 16.40625 L 427.113281 16.40625 L 427.113281 17.386719 L 424.78125 17.386719 L 424.78125 19.742188 Z M 423.78125 19.742188 "/>
<path style=" stroke:none;fill-rule:nonzero;fill:rgb(0%,0%,0%);fill-opacity:1;" d="M 437.164062 20.117188 L 437.164062 21.136719 L 431.476562 21.136719 C 431.476562 20.886719 431.515625 20.648438 431.601562 20.40625 C 431.75 20.023438 431.984375 19.636719 432.308594 19.261719 C 432.625 18.886719 433.085938 18.460938 433.683594 17.96875 C 434.609375 17.195312 435.234375 16.585938 435.558594 16.136719 C 435.890625 15.695312 436.058594 15.273438 436.058594 14.867188 C 436.058594 14.449219 435.902344 14.105469 435.601562 13.824219 C 435.308594 13.53125 434.921875 13.386719 434.453125 13.386719 C 433.9375 13.386719 433.527344 13.542969 433.226562 13.84375 C 432.917969 14.152344 432.765625 14.574219 432.765625 15.117188 L 431.683594 14.992188 C 431.75 14.1875 432.027344 13.574219 432.515625 13.15625 C 433 12.730469 433.652344 12.511719 434.476562 12.511719 C 435.292969 12.511719 435.9375 12.742188 436.414062 13.199219 C 436.898438 13.65625 437.140625 14.21875 437.140625 14.886719 C 437.140625 15.234375 437.070312 15.574219 436.933594 15.90625 C 436.792969 16.242188 436.558594 16.59375 436.226562 16.96875 C 435.902344 17.335938 435.371094 17.835938 434.621094 18.46875 C 433.980469 19 433.570312 19.359375 433.390625 19.554688 C 433.210938 19.75 433.0625 19.9375 432.953125 20.117188 Z M 437.164062 20.117188 "/>
<path style=" stroke:none;fill-rule:nonzero;fill:rgb(100%,100%,100%);fill-opacity:1;" d="M 178.667969 33.332031 L 210.667969 33.332031 L 210.667969 1.332031 L 178.667969 1.332031 Z M 178.667969 33.332031 "/>
<path style="fill:none;stroke-width:1;stroke-linecap:round;stroke-linejoin:round;stroke:rgb(0%,0%,0%);stroke-opacity:1;stroke-miterlimit:10;" d="M 134.000977 338.999023 L 158.000977 338.999023 L 158.000977 362.999023 L 134.000977 362.999023 Z M 134.000977 338.999023 " transform="matrix(1.333333,0,0,1.333333,0,-450.666667)"/>
<path style=" stroke:none;fill-rule:nonzero;fill:rgb(100%,100%,100%);fill-opacity:1;" d="M 298.667969 33.332031 L 330.667969 33.332031 L 330.667969 1.332031 L 298.667969 1.332031 Z M 298.667969 33.332031 "/>
<path style="fill:none;stroke-width:1;stroke-linecap:round;stroke-linejoin:round;stroke:rgb(0%,0%,0%);stroke-opacity:1;stroke-miterlimit:10;" d="M 224.000977 338.999023 L 248.000977 338.999023 L 248.000977 362.999023 L 224.000977 362.999023 Z M 224.000977 338.999023 " transform="matrix(1.333333,0,0,1.333333,0,-450.666667)"/>
<path style=" stroke:none;fill-rule:nonzero;fill:rgb(100%,100%,100%);fill-opacity:1;" d="M 372 33.332031 L 404 33.332031 L 404 1.332031 L 372 1.332031 Z M 372 33.332031 "/>
<path style="fill:none;stroke-width:1;stroke-linecap:round;stroke-linejoin:round;stroke:rgb(0%,0%,0%);stroke-opacity:1;stroke-miterlimit:10;" d="M 279 338.999023 L 303 338.999023 L 303 362.999023 L 279 362.999023 Z M 279 338.999023 " transform="matrix(1.333333,0,0,1.333333,0,-450.666667)"/>
<path style=" stroke:none;fill-rule:nonzero;fill:rgb(40.000001%,74.901962%,100%);fill-opacity:1;" d="M 476.566406 33.332031 L 529.332031 33.332031 L 529.332031 1.332031 L 476.566406 1.332031 Z M 476.566406 33.332031 "/>
<path style="fill:none;stroke-width:1;stroke-linecap:round;stroke-linejoin:round;stroke:rgb(0%,0%,0%);stroke-opacity:1;stroke-miterlimit:10;" d="M 357.424805 338.999023 L 396.999023 338.999023 L 396.999023 362.999023 L 357.424805 362.999023 Z M 357.424805 338.999023 " transform="matrix(1.333333,0,0,1.333333,0,-450.666667)"/>
<path style=" stroke:none;fill-rule:nonzero;fill:rgb(0%,0%,0%);fill-opacity:1;" d="M 485.074219 23.511719 L 485.074219 14.90625 L 486.03125 14.90625 L 486.03125 15.71875 C 486.25 15.402344 486.5 15.167969 486.78125 15.011719 C 487.074219 14.859375 487.425781 14.78125 487.84375 14.78125 C 488.371094 14.78125 488.832031 14.921875 489.238281 15.199219 C 489.640625 15.464844 489.949219 15.84375 490.15625 16.34375 C 490.363281 16.84375 490.46875 17.386719 490.46875 17.96875 C 490.46875 18.609375 490.347656 19.1875 490.113281 19.699219 C 489.890625 20.214844 489.5625 20.609375 489.136719 20.886719 C 488.703125 21.148438 488.246094 21.28125 487.761719 21.28125 C 487.410156 21.28125 487.097656 21.203125 486.824219 21.054688 C 486.542969 20.902344 486.3125 20.714844 486.136719 20.492188 L 486.136719 23.511719 Z M 486.03125 18.054688 C 486.03125 18.859375 486.1875 19.460938 486.511719 19.84375 C 486.84375 20.21875 487.238281 20.40625 487.699219 20.40625 C 488.15625 20.40625 488.550781 20.214844 488.886719 19.824219 C 489.230469 19.421875 489.40625 18.804688 489.40625 17.96875 C 489.40625 17.179688 489.238281 16.589844 488.90625 16.199219 C 488.582031 15.796875 488.199219 15.59375 487.738281 15.59375 C 487.292969 15.59375 486.894531 15.8125 486.550781 16.242188 C 486.203125 16.65625 486.03125 17.261719 486.03125 18.054688 Z M 486.03125 18.054688 "/>
<path style=" stroke:none;fill-rule:nonzero;fill:rgb(0%,0%,0%);fill-opacity:1;" d="M 491.726562 21.136719 L 491.726562 14.90625 L 492.683594 14.90625 L 492.683594 15.867188 C 492.917969 15.421875 493.144531 15.132812 493.351562 14.992188 C 493.558594 14.855469 493.789062 14.78125 494.039062 14.78125 C 494.382812 14.78125 494.746094 14.898438 495.121094 15.117188 L 494.746094 16.09375 C 494.496094 15.945312 494.238281 15.867188 493.976562 15.867188 C 493.753906 15.867188 493.542969 15.9375 493.351562 16.074219 C 493.167969 16.214844 493.039062 16.40625 492.957031 16.65625 C 492.839844 17.03125 492.789062 17.445312 492.789062 17.886719 L 492.789062 21.136719 Z M 491.726562 21.136719 "/>
<path style=" stroke:none;fill-rule:nonzero;fill:rgb(0%,0%,0%);fill-opacity:1;" d="M 495.742188 13.761719 L 495.742188 12.554688 L 496.804688 12.554688 L 496.804688 13.761719 Z M 495.742188 21.136719 L 495.742188 14.90625 L 496.804688 14.90625 L 496.804688 21.136719 Z M 495.742188 21.136719 "/>
<path style=" stroke:none;fill-rule:nonzero;fill:rgb(0%,0%,0%);fill-opacity:1;" d="M 498.410156 21.136719 L 498.410156 14.90625 L 499.367188 14.90625 L 499.367188 15.804688 C 499.8125 15.125 500.472656 14.78125 501.347656 14.78125 C 501.722656 14.78125 502.0625 14.855469 502.367188 14.992188 C 502.6875 15.117188 502.921875 15.292969 503.078125 15.511719 C 503.226562 15.71875 503.335938 15.980469 503.410156 16.28125 C 503.453125 16.480469 503.472656 16.820312 503.472656 17.304688 L 503.472656 21.136719 L 502.410156 21.136719 L 502.410156 17.34375 C 502.410156 16.917969 502.367188 16.59375 502.285156 16.386719 C 502.203125 16.179688 502.054688 16.011719 501.847656 15.886719 C 501.640625 15.75 501.394531 15.679688 501.117188 15.679688 C 500.671875 15.679688 500.285156 15.824219 499.953125 16.117188 C 499.628906 16.398438 499.472656 16.9375 499.472656 17.742188 L 499.472656 21.136719 Z M 498.410156 21.136719 "/>
<path style=" stroke:none;fill-rule:nonzero;fill:rgb(0%,0%,0%);fill-opacity:1;" d="M 507.398438 20.199219 L 507.542969 21.117188 C 507.234375 21.183594 506.96875 21.21875 506.75 21.21875 C 506.359375 21.21875 506.0625 21.15625 505.855469 21.03125 C 505.648438 20.90625 505.492188 20.75 505.398438 20.554688 C 505.3125 20.359375 505.273438 19.949219 505.273438 19.324219 L 505.273438 15.742188 L 504.5 15.742188 L 504.5 14.90625 L 505.273438 14.90625 L 505.273438 13.367188 L 506.335938 12.742188 L 506.335938 14.90625 L 507.398438 14.90625 L 507.398438 15.742188 L 506.335938 15.742188 L 506.335938 19.367188 C 506.335938 19.671875 506.34375 19.867188 506.375 19.949219 C 506.417969 20.03125 506.480469 20.105469 506.5625 20.15625 C 506.648438 20.214844 506.761719 20.242188 506.917969 20.242188 C 507.042969 20.242188 507.199219 20.230469 507.398438 20.199219 Z M 507.398438 20.199219 "/>
<path style=" stroke:none;fill-rule:nonzero;fill:rgb(0%,0%,0%);fill-opacity:1;" d="M 510.4375 23.65625 C 509.855469 22.917969 509.359375 22.0625 508.960938 21.09375 C 508.554688 20.109375 508.355469 19.089844 508.355469 18.03125 C 508.355469 17.105469 508.507812 16.210938 508.8125 15.34375 C 509.15625 14.359375 509.699219 13.382812 510.4375 12.40625 L 511.1875 12.40625 C 510.714844 13.214844 510.402344 13.792969 510.25 14.136719 C 510.011719 14.679688 509.824219 15.242188 509.6875 15.824219 C 509.523438 16.5625 509.4375 17.296875 509.4375 18.03125 C 509.4375 19.90625 510.023438 21.78125 511.1875 23.65625 Z M 510.4375 23.65625 "/>
<path style=" stroke:none;fill-rule:nonzero;fill:rgb(0%,0%,0%);fill-opacity:1;" d="M 511.851562 21.136719 L 511.851562 20.28125 L 515.808594 15.742188 C 515.363281 15.757812 514.964844 15.761719 514.621094 15.761719 L 512.101562 15.761719 L 512.101562 14.90625 L 517.183594 14.90625 L 517.183594 15.617188 L 513.808594 19.554688 L 513.164062 20.28125 C 513.632812 20.242188 514.082031 20.21875 514.496094 20.21875 L 517.371094 20.21875 L 517.371094 21.136719 Z M 511.851562 21.136719 "/>
<path style=" stroke:none;fill-rule:nonzero;fill:rgb(0%,0%,0%);fill-opacity:1;" d="M 519.101562 23.65625 L 518.351562 23.65625 C 519.519531 21.78125 520.101562 19.90625 520.101562 18.03125 C 520.101562 17.296875 520.019531 16.570312 519.851562 15.84375 C 519.710938 15.261719 519.523438 14.699219 519.289062 14.15625 C 519.132812 13.8125 518.820312 13.230469 518.351562 12.40625 L 519.101562 12.40625 C 519.835938 13.382812 520.378906 14.359375 520.726562 15.34375 C 521.027344 16.210938 521.183594 17.105469 521.183594 18.03125 C 521.183594 19.089844 520.980469 20.109375 520.582031 21.09375 C 520.175781 22.0625 519.683594 22.917969 519.101562 23.65625 Z M 519.101562 23.65625 "/>
<path style=" stroke:none;fill-rule:nonzero;fill:rgb(100%,100%,100%);fill-opacity:1;" d="M 445.332031 33.332031 L 477.332031 33.332031 L 477.332031 1.332031 L 445.332031 1.332031 Z M 445.332031 33.332031 "/>
<path style="fill:none;stroke-width:1;stroke-linecap:round;stroke-linejoin:round;stroke:rgb(0%,0%,0%);stroke-opacity:1;stroke-miterlimit:10;" d="M 333.999023 338.999023 L 357.999023 338.999023 L 357.999023 362.999023 L 333.999023 362.999023 Z M 333.999023 338.999023 " transform="matrix(1.333333,0,0,1.333333,0,-450.666667)"/>
<path style=" stroke:none;fill-rule:nonzero;fill:rgb(0%,0%,0%);fill-opacity:1;" d="M 190.546875 8.792969 L 189.265625 7.265625 L 184.667969 11.113281 L 185.957031 12.644531 Z M 204.667969 11.125 L 200.066406 7.265625 L 198.777344 8.792969 L 203.375 12.652344 Z M 194.667969 9.402344 C 189.699219 9.402344 185.667969 13.433594 185.667969 18.402344 C 185.667969 23.375 189.6875 27.402344 194.667969 27.402344 C 199.636719 27.402344 203.667969 23.375 203.667969 18.402344 C 203.667969 13.433594 199.636719 9.402344 194.667969 9.402344 Z M 194.667969 25.402344 C 190.796875 25.402344 187.667969 22.269531 187.667969 18.402344 C 187.667969 14.53125 190.796875 11.402344 194.667969 11.402344 C 198.535156 11.402344 201.667969 14.53125 201.667969 18.402344 C 201.667969 22.269531 198.535156 25.402344 194.667969 25.402344 Z M 191.667969 16.402344 L 195.296875 16.402344 L 191.667969 20.605469 L 191.667969 22.402344 L 197.667969 22.402344 L 197.667969 20.402344 L 194.035156 20.402344 L 197.667969 16.203125 L 197.667969 14.402344 L 191.667969 14.402344 Z M 191.667969 16.402344 "/>
<path style=" stroke:none;fill-rule:nonzero;fill:rgb(100%,100%,100%);fill-opacity:1;" d="M 58.667969 33.332031 L 90.667969 33.332031 L 90.667969 1.332031 L 58.667969 1.332031 Z M 58.667969 33.332031 "/>
<path style="fill:none;stroke-width:1;stroke-linecap:round;stroke-linejoin:round;stroke:rgb(0%,0%,0%);stroke-opacity:1;stroke-miterlimit:10;" d="M 44.000977 338.999023 L 68.000977 338.999023 L 68.000977 362.999023 L 44.000977 362.999023 Z M 44.000977 338.999023 " transform="matrix(1.333333,0,0,1.333333,0,-450.666667)"/>
<path style=" stroke:none;fill-rule:nonzero;fill:rgb(0%,0%,0%);fill-opacity:1;" d="M 70.546875 8.792969 L 69.265625 7.265625 L 64.667969 11.113281 L 65.957031 12.644531 Z M 84.667969 11.125 L 80.066406 7.265625 L 78.777344 8.792969 L 83.375 12.652344 Z M 74.667969 9.402344 C 69.699219 9.402344 65.667969 13.433594 65.667969 18.402344 C 65.667969 23.375 69.6875 27.402344 74.667969 27.402344 C 79.636719 27.402344 83.667969 23.375 83.667969 18.402344 C 83.667969 13.433594 79.636719 9.402344 74.667969 9.402344 Z M 74.667969 25.402344 C 70.796875 25.402344 67.667969 22.269531 67.667969 18.402344 C 67.667969 14.53125 70.796875 11.402344 74.667969 11.402344 C 78.535156 11.402344 81.667969 14.53125 81.667969 18.402344 C 81.667969 22.269531 78.535156 25.402344 74.667969 25.402344 Z M 71.667969 16.402344 L 75.296875 16.402344 L 71.667969 20.605469 L 71.667969 22.402344 L 77.667969 22.402344 L 77.667969 20.402344 L 74.035156 20.402344 L 77.667969 16.203125 L 77.667969 14.402344 L 71.667969 14.402344 Z M 71.667969 16.402344 "/>
<path style=" stroke:none;fill-rule:nonzero;fill:rgb(0%,0%,0%);fill-opacity:1;" d="M 383.878906 8.792969 L 382.597656 7.265625 L 378 11.113281 L 379.292969 12.644531 Z M 398 11.125 L 393.402344 7.265625 L 392.109375 8.792969 L 396.707031 12.652344 Z M 388 9.402344 C 383.03125 9.402344 379 13.433594 379 18.402344 C 379 23.375 383.019531 27.402344 388 27.402344 C 392.96875 27.402344 397 23.375 397 18.402344 C 397 13.433594 392.96875 9.402344 388 9.402344 Z M 388 25.402344 C 384.128906 25.402344 381 22.269531 381 18.402344 C 381 14.53125 384.128906 11.402344 388 11.402344 C 391.871094 11.402344 395 14.53125 395 18.402344 C 395 22.269531 391.871094 25.402344 388 25.402344 Z M 385 16.402344 L 388.628906 16.402344 L 385 20.605469 L 385 22.402344 L 391 22.402344 L 391 20.402344 L 387.371094 20.402344 L 391 16.203125 L 391 14.402344 L 385 14.402344 Z M 385 16.402344 "/>
<path style=" stroke:none;fill-rule:nonzero;fill:rgb(0%,0%,0%);fill-opacity:1;" d="M 310.546875 8.792969 L 309.265625 7.265625 L 304.667969 11.113281 L 305.957031 12.644531 Z M 324.667969 11.125 L 320.066406 7.265625 L 318.777344 8.792969 L 323.375 12.652344 Z M 314.667969 9.402344 C 309.699219 9.402344 305.667969 13.433594 305.667969 18.402344 C 305.667969 23.375 309.6875 27.402344 314.667969 27.402344 C 319.636719 27.402344 323.667969 23.375 323.667969 18.402344 C 323.667969 13.433594 319.636719 9.402344 314.667969 9.402344 Z M 314.667969 25.402344 C 310.796875 25.402344 307.667969 22.269531 307.667969 18.402344 C 307.667969 14.53125 310.796875 11.402344 314.667969 11.402344 C 318.535156 11.402344 321.667969 14.53125 321.667969 18.402344 C 321.667969 22.269531 318.535156 25.402344 314.667969 25.402344 Z M 311.667969 16.402344 L 315.296875 16.402344 L 311.667969 20.605469 L 311.667969 22.402344 L 317.667969 22.402344 L 317.667969 20.402344 L 314.035156 20.402344 L 317.667969 16.203125 L 317.667969 14.402344 L 311.667969 14.402344 Z M 311.667969 16.402344 "/>
<path style=" stroke:none;fill-rule:nonzero;fill:rgb(0%,0%,0%);fill-opacity:1;" d="M 457.214844 8.792969 L 455.933594 7.265625 L 451.332031 11.113281 L 452.625 12.644531 Z M 471.332031 11.125 L 466.734375 7.265625 L 465.441406 8.792969 L 470.042969 12.652344 Z M 461.332031 9.402344 C 456.363281 9.402344 452.332031 13.433594 452.332031 18.402344 C 452.332031 23.375 456.355469 27.402344 461.332031 27.402344 C 466.300781 27.402344 470.332031 23.375 470.332031 18.402344 C 470.332031 13.433594 466.300781 9.402344 461.332031 9.402344 Z M 461.332031 25.402344 C 457.464844 25.402344 454.332031 22.269531 454.332031 18.402344 C 454.332031 14.53125 457.464844 11.402344 461.332031 11.402344 C 465.203125 11.402344 468.332031 14.53125 468.332031 18.402344 C 468.332031 22.269531 465.203125 25.402344 461.332031 25.402344 Z M 458.332031 16.402344 L 461.964844 16.402344 L 458.332031 20.605469 L 458.332031 22.402344 L 464.332031 22.402344 L 464.332031 20.402344 L 460.703125 20.402344 L 464.332031 16.203125 L 464.332031 14.402344 L 458.332031 14.402344 Z M 458.332031 16.402344 "/>
<path style=" stroke:none;fill-rule:nonzero;fill:rgb(0%,0%,0%);fill-opacity:1;" d="M 14.769531 79.4375 C 14.5 80 14.1875 80.519531 13.832031 81.019531 L 11.5 81.019531 C 11.230469 80.457031 10.980469 79.957031 10.707031 79.519531 L 9.792969 79.667969 C 10.082031 80.082031 10.332031 80.519531 10.582031 81.019531 L 7.292969 81.019531 L 7.292969 81.875 L 18.019531 81.875 L 18.019531 81.019531 L 14.792969 81.019531 C 15.082031 80.644531 15.355469 80.207031 15.605469 79.730469 Z M 11.457031 90.457031 C 12.144531 90.457031 12.480469 90.0625 12.480469 89.230469 L 12.480469 82.832031 L 8.125 82.832031 L 8.125 90.5625 L 8.980469 90.5625 L 8.980469 87.9375 L 11.644531 87.9375 L 11.644531 89.042969 C 11.644531 89.4375 11.5 89.644531 11.1875 89.644531 L 10.269531 89.605469 L 10.5 90.457031 Z M 8.980469 87.167969 L 8.980469 85.792969 L 11.644531 85.792969 L 11.644531 87.167969 Z M 8.980469 85.019531 L 8.980469 83.644531 L 11.644531 83.644531 L 11.644531 85.019531 Z M 16.125 90.417969 C 16.832031 90.417969 17.1875 90.0625 17.1875 89.3125 L 17.1875 82.5 L 16.332031 82.5 L 16.332031 89.105469 C 16.332031 89.457031 16.167969 89.667969 15.8125 89.667969 C 15.332031 89.667969 14.855469 89.625 14.355469 89.605469 L 14.519531 90.417969 Z M 13.832031 83.394531 L 13.832031 88.582031 L 14.667969 88.582031 L 14.667969 83.394531 Z M 13.832031 83.394531 "/>
<path style=" stroke:none;fill-rule:nonzero;fill:rgb(0%,0%,0%);fill-opacity:1;" d="M 19.1875 81.542969 L 19.1875 82.355469 L 22.980469 82.355469 L 22.980469 81.542969 L 21.5625 81.542969 C 21.394531 80.832031 21.230469 80.207031 21.0625 79.667969 L 20.207031 79.8125 C 20.417969 80.332031 20.582031 80.917969 20.75 81.542969 Z M 20.167969 83.0625 L 19.457031 83.292969 C 19.730469 84.792969 19.957031 86.355469 20.144531 87.957031 L 20.855469 87.792969 C 20.644531 86 20.417969 84.417969 20.167969 83.0625 Z M 22.957031 87.894531 C 22.644531 88.019531 22.3125 88.125 21.980469 88.25 C 22.269531 86.625 22.5 84.894531 22.644531 83 L 21.855469 82.894531 C 21.730469 84.875 21.519531 86.707031 21.230469 88.480469 C 20.5625 88.667969 19.875 88.8125 19.167969 88.9375 L 19.375 89.792969 C 20.667969 89.5 21.855469 89.144531 22.957031 88.730469 Z M 28.667969 81.855469 L 27.019531 81.855469 L 27.019531 79.5625 L 26.1875 79.5625 L 26.1875 81.855469 L 24.605469 81.855469 L 24.605469 80.019531 L 23.769531 80.019531 L 23.769531 82.605469 L 29.480469 82.605469 L 29.480469 80.019531 L 28.667969 80.019531 Z M 23.25 83.625 L 23.25 84.417969 L 26.0625 84.417969 C 26 84.8125 25.875 85.1875 25.730469 85.5625 L 23.605469 85.5625 L 23.605469 90.480469 L 24.375 90.480469 L 24.375 86.332031 L 25.4375 86.332031 L 25.4375 90.3125 L 26.167969 90.3125 L 26.167969 86.332031 L 27.144531 86.332031 L 27.144531 90.292969 L 27.875 90.292969 L 27.875 86.332031 L 28.957031 86.332031 L 28.957031 89.417969 C 28.957031 89.625 28.875 89.75 28.707031 89.75 L 28.207031 89.707031 L 28.417969 90.480469 L 28.980469 90.480469 C 29.480469 90.480469 29.730469 90.1875 29.730469 89.582031 L 29.730469 85.5625 L 26.582031 85.5625 C 26.707031 85.1875 26.832031 84.8125 26.917969 84.417969 L 30.082031 84.417969 L 30.082031 83.625 Z M 23.25 83.625 "/>
<path style=" stroke:none;fill-rule:nonzero;fill:rgb(0%,0%,0%);fill-opacity:1;" d="M 9.394531 151.769531 L 18.042969 151.769531 L 18.042969 150.917969 L 9.394531 150.917969 L 9.394531 149.25 C 12.332031 149.167969 14.980469 148.917969 17.3125 148.4375 L 16.894531 147.644531 C 14.417969 148.167969 11.644531 148.4375 8.542969 148.480469 L 8.542969 152.082031 C 8.480469 154.519531 8.019531 156.4375 7.125 157.832031 L 7.769531 158.5 C 8.769531 156.894531 9.332031 154.769531 9.394531 152.082031 Z M 17.105469 153.4375 L 10.5 153.4375 L 10.5 158.542969 L 11.375 158.542969 L 11.375 157.980469 L 16.230469 157.980469 L 16.230469 158.542969 L 17.105469 158.542969 Z M 11.375 157.125 L 11.375 154.269531 L 16.230469 154.269531 L 16.230469 157.125 Z M 11.375 157.125 "/>
<path style=" stroke:none;fill-rule:nonzero;fill:rgb(0%,0%,0%);fill-opacity:1;" d="M 19.1875 149.542969 L 19.1875 150.355469 L 22.980469 150.355469 L 22.980469 149.542969 L 21.5625 149.542969 C 21.394531 148.832031 21.230469 148.207031 21.0625 147.667969 L 20.207031 147.8125 C 20.417969 148.332031 20.582031 148.917969 20.75 149.542969 Z M 20.167969 151.0625 L 19.457031 151.292969 C 19.730469 152.792969 19.957031 154.355469 20.144531 155.957031 L 20.855469 155.792969 C 20.644531 154 20.417969 152.417969 20.167969 151.0625 Z M 22.957031 155.894531 C 22.644531 156.019531 22.3125 156.125 21.980469 156.25 C 22.269531 154.625 22.5 152.894531 22.644531 151 L 21.855469 150.894531 C 21.730469 152.875 21.519531 154.707031 21.230469 156.480469 C 20.5625 156.667969 19.875 156.8125 19.167969 156.9375 L 19.375 157.792969 C 20.667969 157.5 21.855469 157.144531 22.957031 156.730469 Z M 28.667969 149.855469 L 27.019531 149.855469 L 27.019531 147.5625 L 26.1875 147.5625 L 26.1875 149.855469 L 24.605469 149.855469 L 24.605469 148.019531 L 23.769531 148.019531 L 23.769531 150.605469 L 29.480469 150.605469 L 29.480469 148.019531 L 28.667969 148.019531 Z M 23.25 151.625 L 23.25 152.417969 L 26.0625 152.417969 C 26 152.8125 25.875 153.1875 25.730469 153.5625 L 23.605469 153.5625 L 23.605469 158.480469 L 24.375 158.480469 L 24.375 154.332031 L 25.4375 154.332031 L 25.4375 158.3125 L 26.167969 158.3125 L 26.167969 154.332031 L 27.144531 154.332031 L 27.144531 158.292969 L 27.875 158.292969 L 27.875 154.332031 L 28.957031 154.332031 L 28.957031 157.417969 C 28.957031 157.625 28.875 157.75 28.707031 157.75 L 28.207031 157.707031 L 28.417969 158.480469 L 28.980469 158.480469 C 29.480469 158.480469 29.730469 158.1875 29.730469 157.582031 L 29.730469 153.5625 L 26.582031 153.5625 C 26.707031 153.1875 26.832031 152.8125 26.917969 152.417969 L 30.082031 152.417969 L 30.082031 151.625 Z M 23.25 151.625 "/>
<path style=" stroke:none;fill-rule:nonzero;fill:rgb(100%,100%,100%);fill-opacity:1;" d="M 58.667969 100 L 90.667969 100 L 90.667969 68 L 58.667969 68 Z M 58.667969 100 "/>
<path style="fill:none;stroke-width:1;stroke-linecap:round;stroke-linejoin:round;stroke:rgb(0%,0%,0%);stroke-opacity:1;stroke-miterlimit:10;" d="M 44.000977 389 L 68.000977 389 L 68.000977 413 L 44.000977 413 Z M 44.000977 389 " transform="matrix(1.333333,0,0,1.333333,0,-450.666667)"/>
<path style=" stroke:none;fill-rule:nonzero;fill:rgb(0%,0%,0%);fill-opacity:1;" d="M 70.546875 75.457031 L 69.265625 73.933594 L 64.667969 77.78125 L 65.957031 79.3125 Z M 84.667969 77.792969 L 80.066406 73.933594 L 78.777344 75.457031 L 83.375 79.316406 Z M 74.667969 76.066406 C 69.699219 76.066406 65.667969 80.097656 65.667969 85.066406 C 65.667969 90.042969 69.6875 94.066406 74.667969 94.066406 C 79.636719 94.066406 83.667969 90.042969 83.667969 85.066406 C 83.667969 80.097656 79.636719 76.066406 74.667969 76.066406 Z M 74.667969 92.066406 C 70.796875 92.066406 67.667969 88.9375 67.667969 85.066406 C 67.667969 81.199219 70.796875 78.066406 74.667969 78.066406 C 78.535156 78.066406 81.667969 81.199219 81.667969 85.066406 C 81.667969 88.9375 78.535156 92.066406 74.667969 92.066406 Z M 71.667969 83.066406 L 75.296875 83.066406 L 71.667969 87.269531 L 71.667969 89.066406 L 77.667969 89.066406 L 77.667969 87.066406 L 74.035156 87.066406 L 77.667969 82.871094 L 77.667969 81.066406 L 71.667969 81.066406 Z M 71.667969 83.066406 "/>
<path style=" stroke:none;fill-rule:nonzero;fill:rgb(100%,100%,100%);fill-opacity:1;" d="M 90.667969 100 L 122.667969 100 L 122.667969 68 L 90.667969 68 Z M 90.667969 100 "/>
<path style="fill:none;stroke-width:1;stroke-linecap:round;stroke-linejoin:round;stroke:rgb(0%,0%,0%);stroke-opacity:1;stroke-miterlimit:10;" d="M 68.000977 389 L 92.000977 389 L 92.000977 413 L 68.000977 413 Z M 68.000977 389 " transform="matrix(1.333333,0,0,1.333333,0,-450.666667)"/>
<path style=" stroke:none;fill-rule:nonzero;fill:rgb(0%,0%,0%);fill-opacity:1;" d="M 102.546875 75.457031 L 101.265625 73.933594 L 96.667969 77.78125 L 97.957031 79.3125 Z M 116.667969 77.792969 L 112.066406 73.933594 L 110.777344 75.457031 L 115.375 79.316406 Z M 106.667969 76.066406 C 101.699219 76.066406 97.667969 80.097656 97.667969 85.066406 C 97.667969 90.042969 101.6875 94.066406 106.667969 94.066406 C 111.636719 94.066406 115.667969 90.042969 115.667969 85.066406 C 115.667969 80.097656 111.636719 76.066406 106.667969 76.066406 Z M 106.667969 92.066406 C 102.796875 92.066406 99.667969 88.9375 99.667969 85.066406 C 99.667969 81.199219 102.796875 78.066406 106.667969 78.066406 C 110.535156 78.066406 113.667969 81.199219 113.667969 85.066406 C 113.667969 88.9375 110.535156 92.066406 106.667969 92.066406 Z M 103.667969 83.066406 L 107.296875 83.066406 L 103.667969 87.269531 L 103.667969 89.066406 L 109.667969 89.066406 L 109.667969 87.066406 L 106.035156 87.066406 L 109.667969 82.871094 L 109.667969 81.066406 L 103.667969 81.066406 Z M 103.667969 83.066406 "/>
<path style=" stroke:none;fill-rule:nonzero;fill:rgb(100%,100%,100%);fill-opacity:1;" d="M 122.667969 100 L 154.667969 100 L 154.667969 68 L 122.667969 68 Z M 122.667969 100 "/>
<path style="fill:none;stroke-width:1;stroke-linecap:round;stroke-linejoin:round;stroke:rgb(0%,0%,0%);stroke-opacity:1;stroke-miterlimit:10;" d="M 92.000977 389 L 116.000977 389 L 116.000977 413 L 92.000977 413 Z M 92.000977 389 " transform="matrix(1.333333,0,0,1.333333,0,-450.666667)"/>
<path style=" stroke:none;fill-rule:nonzero;fill:rgb(0%,0%,0%);fill-opacity:1;" d="M 134.546875 75.457031 L 133.265625 73.933594 L 128.667969 77.78125 L 129.957031 79.3125 Z M 148.667969 77.792969 L 144.066406 73.933594 L 142.777344 75.457031 L 147.375 79.316406 Z M 138.667969 76.066406 C 133.699219 76.066406 129.667969 80.097656 129.667969 85.066406 C 129.667969 90.042969 133.6875 94.066406 138.667969 94.066406 C 143.636719 94.066406 147.667969 90.042969 147.667969 85.066406 C 147.667969 80.097656 143.636719 76.066406 138.667969 76.066406 Z M 138.667969 92.066406 C 134.796875 92.066406 131.667969 88.9375 131.667969 85.066406 C 131.667969 81.199219 134.796875 78.066406 138.667969 78.066406 C 142.535156 78.066406 145.667969 81.199219 145.667969 85.066406 C 145.667969 88.9375 142.535156 92.066406 138.667969 92.066406 Z M 135.667969 83.066406 L 139.296875 83.066406 L 135.667969 87.269531 L 135.667969 89.066406 L 141.667969 89.066406 L 141.667969 87.066406 L 138.035156 87.066406 L 141.667969 82.871094 L 141.667969 81.066406 L 135.667969 81.066406 Z M 135.667969 83.066406 "/>
<path style=" stroke:none;fill-rule:nonzero;fill:rgb(100%,100%,100%);fill-opacity:1;" d="M 154.667969 100 L 186.667969 100 L 186.667969 68 L 154.667969 68 Z M 154.667969 100 "/>
<path style="fill:none;stroke-width:1;stroke-linecap:round;stroke-linejoin:round;stroke:rgb(0%,0%,0%);stroke-opacity:1;stroke-miterlimit:10;" d="M 116.000977 389 L 140.000977 389 L 140.000977 413 L 116.000977 413 Z M 116.000977 389 " transform="matrix(1.333333,0,0,1.333333,0,-450.666667)"/>
<path style=" stroke:none;fill-rule:nonzero;fill:rgb(0%,0%,0%);fill-opacity:1;" d="M 166.546875 75.457031 L 165.265625 73.933594 L 160.667969 77.78125 L 161.957031 79.3125 Z M 180.667969 77.792969 L 176.066406 73.933594 L 174.777344 75.457031 L 179.375 79.316406 Z M 170.667969 76.066406 C 165.699219 76.066406 161.667969 80.097656 161.667969 85.066406 C 161.667969 90.042969 165.6875 94.066406 170.667969 94.066406 C 175.636719 94.066406 179.667969 90.042969 179.667969 85.066406 C 179.667969 80.097656 175.636719 76.066406 170.667969 76.066406 Z M 170.667969 92.066406 C 166.796875 92.066406 163.667969 88.9375 163.667969 85.066406 C 163.667969 81.199219 166.796875 78.066406 170.667969 78.066406 C 174.535156 78.066406 177.667969 81.199219 177.667969 85.066406 C 177.667969 88.9375 174.535156 92.066406 170.667969 92.066406 Z M 167.667969 83.066406 L 171.296875 83.066406 L 167.667969 87.269531 L 167.667969 89.066406 L 173.667969 89.066406 L 173.667969 87.066406 L 170.035156 87.066406 L 173.667969 82.871094 L 173.667969 81.066406 L 167.667969 81.066406 Z M 167.667969 83.066406 "/>
<path style=" stroke:none;fill-rule:nonzero;fill:rgb(100%,100%,100%);fill-opacity:1;" d="M 186.667969 100 L 218.667969 100 L 218.667969 68 L 186.667969 68 Z M 186.667969 100 "/>
<path style="fill:none;stroke-width:1;stroke-linecap:round;stroke-linejoin:round;stroke:rgb(0%,0%,0%);stroke-opacity:1;stroke-miterlimit:10;" d="M 140.000977 389 L 164.000977 389 L 164.000977 413 L 140.000977 413 Z M 140.000977 389 " transform="matrix(1.333333,0,0,1.333333,0,-450.666667)"/>
<path style=" stroke:none;fill-rule:nonzero;fill:rgb(0%,0%,0%);fill-opacity:1;" d="M 198.546875 75.457031 L 197.265625 73.933594 L 192.667969 77.78125 L 193.957031 79.3125 Z M 212.667969 77.792969 L 208.066406 73.933594 L 206.777344 75.457031 L 211.375 79.316406 Z M 202.667969 76.066406 C 197.699219 76.066406 193.667969 80.097656 193.667969 85.066406 C 193.667969 90.042969 197.6875 94.066406 202.667969 94.066406 C 207.636719 94.066406 211.667969 90.042969 211.667969 85.066406 C 211.667969 80.097656 207.636719 76.066406 202.667969 76.066406 Z M 202.667969 92.066406 C 198.796875 92.066406 195.667969 88.9375 195.667969 85.066406 C 195.667969 81.199219 198.796875 78.066406 202.667969 78.066406 C 206.535156 78.066406 209.667969 81.199219 209.667969 85.066406 C 209.667969 88.9375 206.535156 92.066406 202.667969 92.066406 Z M 199.667969 83.066406 L 203.296875 83.066406 L 199.667969 87.269531 L 199.667969 89.066406 L 205.667969 89.066406 L 205.667969 87.066406 L 202.035156 87.066406 L 205.667969 82.871094 L 205.667969 81.066406 L 199.667969 81.066406 Z M 199.667969 83.066406 "/>
<path style=" stroke:none;fill-rule:nonzero;fill:rgb(40.000001%,74.901962%,100%);fill-opacity:1;" d="M 266.667969 168 L 308.765625 168 L 308.765625 136 L 266.667969 136 Z M 266.667969 168 "/>
<path style="fill:none;stroke-width:1;stroke-linecap:round;stroke-linejoin:round;stroke:rgb(0%,0%,0%);stroke-opacity:1;stroke-miterlimit:10;" d="M 200.000977 440 L 231.574219 440 L 231.574219 464 L 200.000977 464 Z M 200.000977 440 " transform="matrix(1.333333,0,0,1.333333,0,-450.666667)"/>
<path style=" stroke:none;fill-rule:nonzero;fill:rgb(0%,0%,0%);fill-opacity:1;" d="M 276.132812 155.804688 L 278.402344 152.574219 L 276.296875 149.574219 L 277.632812 149.574219 L 278.589844 151.03125 C 278.757812 151.3125 278.890625 151.546875 279.007812 151.742188 C 279.183594 151.480469 279.34375 151.25 279.484375 151.054688 L 280.527344 149.574219 L 281.796875 149.574219 L 279.652344 152.511719 L 281.964844 155.804688 L 280.671875 155.804688 L 279.382812 153.867188 L 279.046875 153.34375 L 277.421875 155.804688 Z M 276.132812 155.804688 "/>
<path style=" stroke:none;fill-rule:nonzero;fill:rgb(0%,0%,0%);fill-opacity:1;" d="M 285.757812 148.78125 L 286.027344 147.949219 C 286.652344 148.171875 287.101562 148.367188 287.382812 148.53125 C 287.308594 147.824219 287.265625 147.339844 287.257812 147.074219 L 288.109375 147.074219 C 288.09375 147.449219 288.054688 147.929688 287.984375 148.511719 C 288.386719 148.320312 288.84375 148.132812 289.359375 147.949219 L 289.632812 148.78125 C 289.132812 148.949219 288.640625 149.0625 288.171875 149.117188 C 288.40625 149.324219 288.742188 149.695312 289.171875 150.21875 L 288.484375 150.71875 C 288.246094 150.417969 287.976562 150 287.671875 149.46875 C 287.382812 150.011719 287.121094 150.429688 286.902344 150.71875 L 286.214844 150.21875 C 286.671875 149.667969 286.996094 149.296875 287.195312 149.117188 C 286.695312 149.023438 286.214844 148.90625 285.757812 148.78125 Z M 285.757812 148.78125 "/>
<path style=" stroke:none;fill-rule:nonzero;fill:rgb(0%,0%,0%);fill-opacity:1;" d="M 294.136719 158.199219 L 294.011719 157.21875 C 294.246094 157.273438 294.449219 157.304688 294.613281 157.304688 C 294.847656 157.304688 295.035156 157.261719 295.175781 157.179688 C 295.3125 157.105469 295.433594 157 295.53125 156.867188 C 295.582031 156.75 295.6875 156.492188 295.84375 156.074219 C 295.871094 156.015625 295.90625 155.933594 295.949219 155.824219 L 293.574219 149.574219 L 294.71875 149.574219 L 296.011719 153.179688 C 296.175781 153.636719 296.328125 154.117188 296.46875 154.617188 C 296.578125 154.148438 296.71875 153.671875 296.886719 153.199219 L 298.21875 149.574219 L 299.28125 149.574219 L 296.90625 155.90625 C 296.65625 156.585938 296.457031 157.058594 296.324219 157.324219 C 296.125 157.667969 295.910156 157.917969 295.675781 158.074219 C 295.4375 158.242188 295.144531 158.324219 294.800781 158.324219 C 294.605469 158.324219 294.386719 158.28125 294.136719 158.199219 Z M 294.136719 158.199219 "/>
<path style=" stroke:none;fill-rule:nonzero;fill:rgb(40.000001%,74.901962%,100%);fill-opacity:1;" d="M 308.765625 168 L 350.863281 168 L 350.863281 136 L 308.765625 136 Z M 308.765625 168 "/>
<path style="fill:none;stroke-width:1;stroke-linecap:round;stroke-linejoin:round;stroke:rgb(0%,0%,0%);stroke-opacity:1;stroke-miterlimit:10;" d="M 231.574219 440 L 263.15332 440 L 263.15332 464 L 231.574219 464 Z M 231.574219 440 " transform="matrix(1.333333,0,0,1.333333,0,-450.666667)"/>
<path style=" stroke:none;fill-rule:nonzero;fill:rgb(0%,0%,0%);fill-opacity:1;" d="M 316.117188 158.179688 L 316.117188 157.429688 L 323.117188 157.429688 L 323.117188 158.179688 Z M 316.117188 158.179688 "/>
<path style=" stroke:none;fill-rule:nonzero;fill:rgb(0%,0%,0%);fill-opacity:1;" d="M 329.3125 154.40625 L 329.3125 152.054688 L 326.980469 152.054688 L 326.980469 151.074219 L 329.3125 151.074219 L 329.3125 148.742188 L 330.3125 148.742188 L 330.3125 151.074219 L 332.648438 151.074219 L 332.648438 152.054688 L 330.3125 152.054688 L 330.3125 154.40625 Z M 329.3125 154.40625 "/>
<path style=" stroke:none;fill-rule:nonzero;fill:rgb(0%,0%,0%);fill-opacity:1;" d="M 342.695312 154.78125 L 342.695312 155.804688 L 337.007812 155.804688 C 337.007812 155.554688 337.050781 155.3125 337.132812 155.074219 C 337.285156 154.6875 337.519531 154.304688 337.84375 153.929688 C 338.160156 153.554688 338.617188 153.125 339.21875 152.636719 C 340.144531 151.859375 340.769531 151.25 341.09375 150.804688 C 341.425781 150.359375 341.59375 149.9375 341.59375 149.53125 C 341.59375 149.117188 341.4375 148.773438 341.132812 148.492188 C 340.84375 148.199219 340.457031 148.054688 339.988281 148.054688 C 339.472656 148.054688 339.0625 148.210938 338.757812 148.511719 C 338.453125 148.820312 338.300781 149.242188 338.300781 149.78125 L 337.21875 149.65625 C 337.285156 148.855469 337.5625 148.242188 338.050781 147.824219 C 338.535156 147.398438 339.1875 147.179688 340.007812 147.179688 C 340.828125 147.179688 341.472656 147.40625 341.945312 147.867188 C 342.429688 148.324219 342.675781 148.886719 342.675781 149.554688 C 342.675781 149.902344 342.601562 150.242188 342.46875 150.574219 C 342.328125 150.90625 342.09375 151.261719 341.757812 151.636719 C 341.4375 152 340.90625 152.5 340.15625 153.136719 C 339.515625 153.667969 339.101562 154.027344 338.925781 154.21875 C 338.742188 154.417969 338.597656 154.605469 338.488281 154.78125 Z M 342.695312 154.78125 "/>
<path style="fill:none;stroke-width:1;stroke-linecap:round;stroke-linejoin:round;stroke:rgb(0%,0%,0%);stroke-opacity:1;stroke-miterlimit:10;" d="M 263.000977 389.500977 L 302.575195 389.500977 L 302.575195 413.500977 L 263.000977 413.500977 Z M 263.000977 389.500977 " transform="matrix(1.333333,0,0,1.333333,0,-450.666667)"/>
<path style=" stroke:none;fill-rule:nonzero;fill:rgb(0%,0%,0%);fill-opacity:1;" d="M 359.171875 90.84375 L 359.171875 82.242188 L 360.132812 82.242188 L 360.132812 83.054688 C 360.351562 82.734375 360.601562 82.5 360.882812 82.34375 C 361.171875 82.195312 361.527344 82.117188 361.945312 82.117188 C 362.46875 82.117188 362.933594 82.257812 363.339844 82.53125 C 363.742188 82.796875 364.046875 83.179688 364.257812 83.679688 C 364.464844 84.179688 364.570312 84.71875 364.570312 85.304688 C 364.570312 85.945312 364.449219 86.523438 364.214844 87.03125 C 363.992188 87.546875 363.664062 87.945312 363.234375 88.21875 C 362.804688 88.480469 362.34375 88.617188 361.859375 88.617188 C 361.511719 88.617188 361.199219 88.539062 360.921875 88.386719 C 360.640625 88.234375 360.414062 88.046875 360.234375 87.824219 L 360.234375 90.84375 Z M 360.132812 85.386719 C 360.132812 86.195312 360.289062 86.792969 360.609375 87.179688 C 360.945312 87.554688 361.339844 87.742188 361.796875 87.742188 C 362.257812 87.742188 362.652344 87.546875 362.984375 87.15625 C 363.328125 86.757812 363.507812 86.136719 363.507812 85.304688 C 363.507812 84.511719 363.339844 83.921875 363.007812 83.53125 C 362.683594 83.132812 362.296875 82.929688 361.839844 82.929688 C 361.390625 82.929688 360.996094 83.148438 360.652344 83.574219 C 360.304688 83.992188 360.132812 84.59375 360.132812 85.386719 Z M 360.132812 85.386719 "/>
<path style=" stroke:none;fill-rule:nonzero;fill:rgb(0%,0%,0%);fill-opacity:1;" d="M 365.828125 88.46875 L 365.828125 82.242188 L 366.785156 82.242188 L 366.785156 83.199219 C 367.019531 82.757812 367.242188 82.464844 367.453125 82.324219 C 367.660156 82.1875 367.890625 82.117188 368.140625 82.117188 C 368.484375 82.117188 368.847656 82.230469 369.222656 82.449219 L 368.847656 83.429688 C 368.597656 83.277344 368.335938 83.199219 368.078125 83.199219 C 367.851562 83.199219 367.644531 83.273438 367.453125 83.40625 C 367.269531 83.546875 367.140625 83.742188 367.054688 83.992188 C 366.941406 84.367188 366.890625 84.777344 366.890625 85.21875 L 366.890625 88.46875 Z M 365.828125 88.46875 "/>
<path style=" stroke:none;fill-rule:nonzero;fill:rgb(0%,0%,0%);fill-opacity:1;" d="M 369.84375 81.09375 L 369.84375 79.886719 L 370.90625 79.886719 L 370.90625 81.09375 Z M 369.84375 88.46875 L 369.84375 82.242188 L 370.90625 82.242188 L 370.90625 88.46875 Z M 369.84375 88.46875 "/>
<path style=" stroke:none;fill-rule:nonzero;fill:rgb(0%,0%,0%);fill-opacity:1;" d="M 372.511719 88.46875 L 372.511719 82.242188 L 373.46875 82.242188 L 373.46875 83.136719 C 373.910156 82.460938 374.574219 82.117188 375.449219 82.117188 C 375.824219 82.117188 376.160156 82.1875 376.46875 82.324219 C 376.785156 82.449219 377.019531 82.625 377.175781 82.84375 C 377.328125 83.054688 377.4375 83.3125 377.511719 83.617188 C 377.550781 83.8125 377.574219 84.152344 377.574219 84.636719 L 377.574219 88.46875 L 376.511719 88.46875 L 376.511719 84.679688 C 376.511719 84.25 376.46875 83.929688 376.386719 83.71875 C 376.300781 83.511719 376.15625 83.34375 375.949219 83.21875 C 375.738281 83.085938 375.496094 83.011719 375.21875 83.011719 C 374.769531 83.011719 374.386719 83.15625 374.050781 83.449219 C 373.730469 83.730469 373.574219 84.273438 373.574219 85.074219 L 373.574219 88.46875 Z M 372.511719 88.46875 "/>
<path style=" stroke:none;fill-rule:nonzero;fill:rgb(0%,0%,0%);fill-opacity:1;" d="M 381.496094 87.53125 L 381.644531 88.449219 C 381.335938 88.515625 381.070312 88.554688 380.851562 88.554688 C 380.460938 88.554688 380.164062 88.492188 379.957031 88.367188 C 379.746094 88.242188 379.589844 88.085938 379.496094 87.886719 C 379.414062 87.695312 379.371094 87.28125 379.371094 86.65625 L 379.371094 83.074219 L 378.601562 83.074219 L 378.601562 82.242188 L 379.371094 82.242188 L 379.371094 80.699219 L 380.433594 80.074219 L 380.433594 82.242188 L 381.496094 82.242188 L 381.496094 83.074219 L 380.433594 83.074219 L 380.433594 86.699219 C 380.433594 87.007812 380.445312 87.199219 380.476562 87.28125 C 380.519531 87.367188 380.582031 87.4375 380.664062 87.492188 C 380.746094 87.546875 380.863281 87.574219 381.019531 87.574219 C 381.144531 87.574219 381.300781 87.5625 381.496094 87.53125 Z M 381.496094 87.53125 "/>
<path style=" stroke:none;fill-rule:nonzero;fill:rgb(0%,0%,0%);fill-opacity:1;" d="M 384.539062 90.992188 C 383.957031 90.25 383.460938 89.398438 383.058594 88.429688 C 382.652344 87.445312 382.457031 86.421875 382.457031 85.367188 C 382.457031 84.4375 382.605469 83.542969 382.914062 82.679688 C 383.257812 81.695312 383.800781 80.714844 384.539062 79.742188 L 385.289062 79.742188 C 384.816406 80.546875 384.503906 81.125 384.351562 81.46875 C 384.113281 82.011719 383.925781 82.574219 383.789062 83.15625 C 383.621094 83.898438 383.539062 84.632812 383.539062 85.367188 C 383.539062 87.242188 384.121094 89.117188 385.289062 90.992188 Z M 384.539062 90.992188 "/>
<path style=" stroke:none;fill-rule:nonzero;fill:rgb(0%,0%,0%);fill-opacity:1;" d="M 385.953125 88.46875 L 385.953125 87.617188 L 389.910156 83.074219 C 389.460938 83.089844 389.066406 83.09375 388.722656 83.09375 L 386.203125 83.09375 L 386.203125 82.242188 L 391.285156 82.242188 L 391.285156 82.949219 L 387.910156 86.886719 L 387.265625 87.617188 C 387.734375 87.574219 388.179688 87.554688 388.597656 87.554688 L 391.472656 87.554688 L 391.472656 88.46875 Z M 385.953125 88.46875 "/>
<path style=" stroke:none;fill-rule:nonzero;fill:rgb(0%,0%,0%);fill-opacity:1;" d="M 393.203125 90.992188 L 392.453125 90.992188 C 393.617188 89.117188 394.203125 87.242188 394.203125 85.367188 C 394.203125 84.632812 394.117188 83.902344 393.953125 83.179688 C 393.8125 82.59375 393.625 82.03125 393.390625 81.492188 C 393.234375 81.148438 392.921875 80.5625 392.453125 79.742188 L 393.203125 79.742188 C 393.9375 80.714844 394.476562 81.695312 394.828125 82.679688 C 395.128906 83.542969 395.285156 84.4375 395.285156 85.367188 C 395.285156 86.421875 395.082031 87.445312 394.679688 88.429688 C 394.273438 89.398438 393.785156 90.25 393.203125 90.992188 Z M 393.203125 90.992188 "/>
<path style="fill:none;stroke-width:1;stroke-linecap:round;stroke-linejoin:miter;stroke:rgb(0%,0%,0%);stroke-opacity:1;stroke-miterlimit:10;" d="M 68.000977 413.999023 L 68.000977 434.102539 " transform="matrix(1.333333,0,0,1.333333,0,-450.666667)"/>
<path style="fill-rule:nonzero;fill:rgb(0%,0%,0%);fill-opacity:1;stroke-width:1;stroke-linecap:butt;stroke-linejoin:miter;stroke:rgb(0%,0%,0%);stroke-opacity:1;stroke-miterlimit:10;" d="M 68.000977 438.101562 L 69.500977 434.102539 L 66.500977 434.102539 Z M 68.000977 438.101562 " transform="matrix(1.333333,0,0,1.333333,0,-450.666667)"/>
<path style="fill:none;stroke-width:1;stroke-linecap:round;stroke-linejoin:miter;stroke:rgb(0%,0%,0%);stroke-opacity:1;stroke-miterlimit:10;" d="M 90.999023 413 L 129.00293 436.862305 " transform="matrix(1.333333,0,0,1.333333,0,-450.666667)"/>
<path style="fill-rule:nonzero;fill:rgb(0%,0%,0%);fill-opacity:1;stroke-width:1;stroke-linecap:butt;stroke-linejoin:miter;stroke:rgb(0%,0%,0%);stroke-opacity:1;stroke-miterlimit:10;" d="M 132.389648 438.989258 L 129.799805 435.59375 L 128.206055 438.133789 Z M 132.389648 438.989258 " transform="matrix(1.333333,0,0,1.333333,0,-450.666667)"/>
<path style="fill:none;stroke-width:1;stroke-linecap:round;stroke-linejoin:miter;stroke:rgb(0%,0%,0%);stroke-opacity:1;stroke-miterlimit:10;" d="M 113.000977 413 L 194.364258 438.250977 " transform="matrix(1.333333,0,0,1.333333,0,-450.666667)"/>
<path style="fill-rule:nonzero;fill:rgb(0%,0%,0%);fill-opacity:1;stroke-width:1;stroke-linecap:butt;stroke-linejoin:miter;stroke:rgb(0%,0%,0%);stroke-opacity:1;stroke-miterlimit:10;" d="M 198.18457 439.4375 L 194.80957 436.821289 L 193.921875 439.683594 Z M 198.18457 439.4375 " transform="matrix(1.333333,0,0,1.333333,0,-450.666667)"/>
<path style="fill:none;stroke-width:1;stroke-linecap:round;stroke-linejoin:miter;stroke:rgb(0%,0%,0%);stroke-opacity:1;stroke-miterlimit:10;" d="M 143.499023 413.999023 L 225.916992 438.327148 " transform="matrix(1.333333,0,0,1.333333,0,-450.666667)"/>
<path style="fill-rule:nonzero;fill:rgb(0%,0%,0%);fill-opacity:1;stroke-width:1;stroke-linecap:butt;stroke-linejoin:miter;stroke:rgb(0%,0%,0%);stroke-opacity:1;stroke-miterlimit:10;" d="M 229.754883 439.460938 L 226.338867 436.891602 L 225.492188 439.768555 Z M 229.754883 439.460938 " transform="matrix(1.333333,0,0,1.333333,0,-450.666667)"/>
<path style="fill:none;stroke-width:1;stroke-linecap:round;stroke-linejoin:miter;stroke:rgb(0%,0%,0%);stroke-opacity:1;stroke-dasharray:4,4;stroke-miterlimit:10;" d="M 263.000977 440 L 263.000977 420.898438 " transform="matrix(1.333333,0,0,1.333333,0,-450.666667)"/>
<path style="fill-rule:nonzero;fill:rgb(0%,0%,0%);fill-opacity:1;stroke-width:1;stroke-linecap:butt;stroke-linejoin:miter;stroke:rgb(0%,0%,0%);stroke-opacity:1;stroke-miterlimit:10;" d="M 263.000977 416.899414 L 261.500977 420.898438 L 264.500977 420.898438 Z M 263.000977 416.899414 " transform="matrix(1.333333,0,0,1.333333,0,-450.666667)"/>
<path style=" stroke:none;fill-rule:nonzero;fill:rgb(0%,0%,0%);fill-opacity:1;" d="M 319.335938 120.003906 L 319.335938 120.773438 L 322.898438 120.773438 L 322.898438 121.921875 L 318.003906 121.921875 L 318.003906 122.691406 L 325.480469 122.691406 L 325.480469 123.835938 L 318.710938 123.835938 L 318.710938 124.585938 L 325.480469 124.585938 L 325.480469 126.273438 C 325.480469 126.566406 325.316406 126.710938 324.980469 126.710938 C 324.480469 126.710938 323.941406 126.691406 323.355469 126.648438 L 323.542969 127.484375 L 325.273438 127.484375 C 325.980469 127.484375 326.355469 127.128906 326.355469 126.484375 L 326.355469 124.585938 L 328.148438 124.585938 L 328.148438 123.835938 L 326.355469 123.835938 L 326.355469 122.691406 L 328.667969 122.691406 L 328.667969 121.921875 L 323.773438 121.921875 L 323.773438 120.773438 L 327.292969 120.773438 L 327.292969 120.003906 L 323.773438 120.003906 L 323.773438 119.253906 L 322.898438 119.253906 L 322.898438 120.003906 Z M 320.730469 124.921875 L 320.042969 125.359375 C 320.667969 125.984375 321.167969 126.546875 321.542969 127.066406 L 322.210938 126.609375 C 321.878906 126.128906 321.378906 125.546875 320.730469 124.921875 Z M 319.753906 118.085938 L 320.230469 118.085938 C 320.585938 118.546875 320.878906 119.023438 321.105469 119.523438 L 321.898438 119.234375 C 321.710938 118.878906 321.460938 118.503906 321.148438 118.085938 L 323.167969 118.085938 L 323.167969 117.335938 L 320.085938 117.335938 C 320.191406 117.109375 320.273438 116.859375 320.378906 116.585938 L 319.566406 116.421875 C 319.230469 117.398438 318.710938 118.316406 318.023438 119.128906 L 318.773438 119.609375 C 319.128906 119.148438 319.480469 118.628906 319.753906 118.085938 Z M 324.628906 118.046875 L 325.335938 118.046875 C 325.691406 118.503906 326.003906 118.984375 326.253906 119.503906 L 327.003906 119.210938 C 326.816406 118.859375 326.566406 118.460938 326.230469 118.046875 L 328.417969 118.046875 L 328.417969 117.316406 L 324.960938 117.316406 C 325.042969 117.066406 325.128906 116.816406 325.191406 116.566406 L 324.378906 116.398438 C 324.148438 117.234375 323.773438 118.003906 323.230469 118.691406 L 323.960938 119.148438 C 324.191406 118.816406 324.417969 118.441406 324.628906 118.046875 Z M 324.628906 118.046875 "/>
<path style=" stroke:none;fill-rule:nonzero;fill:rgb(0%,0%,0%);fill-opacity:1;" d="M 332.292969 116.398438 C 331.773438 117.546875 330.941406 118.546875 329.792969 119.441406 L 330.042969 120.253906 C 331.441406 119.234375 332.441406 118.066406 333.066406 116.753906 Z M 332.753906 119.148438 C 332.148438 120.503906 331.191406 121.710938 329.898438 122.753906 L 330.148438 123.566406 C 330.667969 123.171875 331.148438 122.753906 331.585938 122.296875 L 331.585938 127.421875 L 332.398438 127.421875 L 332.398438 121.335938 C 332.835938 120.773438 333.191406 120.148438 333.480469 119.503906 Z M 336.792969 116.441406 L 336.792969 117.753906 L 334.105469 117.753906 L 334.105469 118.523438 L 336.792969 118.523438 L 336.792969 120.023438 L 333.648438 120.023438 L 333.648438 120.816406 L 340.816406 120.816406 L 340.816406 120.023438 L 337.605469 120.023438 L 337.605469 118.523438 L 340.316406 118.523438 L 340.316406 117.753906 L 337.605469 117.753906 L 337.605469 116.441406 Z M 333.710938 122.296875 L 333.710938 123.085938 L 338.378906 123.085938 L 338.378906 125.960938 C 338.378906 126.378906 338.167969 126.585938 337.773438 126.585938 C 337.273438 126.585938 336.730469 126.566406 336.167969 126.523438 L 336.378906 127.359375 L 338.066406 127.359375 C 338.835938 127.359375 339.230469 126.960938 339.230469 126.171875 L 339.230469 123.085938 L 340.648438 123.085938 L 340.648438 122.296875 L 339.230469 122.296875 L 339.230469 121.398438 L 338.378906 121.398438 L 338.378906 122.296875 Z M 335.128906 123.566406 L 334.460938 123.984375 C 335.105469 124.648438 335.628906 125.273438 336.003906 125.835938 L 336.691406 125.359375 C 336.316406 124.835938 335.792969 124.253906 335.128906 123.566406 Z M 335.128906 123.566406 "/>
<path style=" stroke:none;fill-rule:nonzero;fill:rgb(40.000001%,74.901962%,100%);fill-opacity:1;" d="M 210.667969 33.332031 L 298.667969 33.332031 L 298.667969 1.332031 L 210.667969 1.332031 Z M 210.667969 33.332031 "/>
<path style="fill:none;stroke-width:1;stroke-linecap:round;stroke-linejoin:round;stroke:rgb(0%,0%,0%);stroke-opacity:1;stroke-miterlimit:10;" d="M 158.000977 338.999023 L 224.000977 338.999023 L 224.000977 362.999023 L 158.000977 362.999023 Z M 158.000977 338.999023 " transform="matrix(1.333333,0,0,1.333333,0,-450.666667)"/>
<path style=" stroke:none;fill-rule:nonzero;fill:rgb(0%,0%,0%);fill-opacity:1;" d="M 228.046875 18.03125 C 228.046875 16.882812 228.367188 16.027344 229.007812 15.46875 C 229.546875 15.011719 230.199219 14.78125 230.964844 14.78125 C 231.824219 14.78125 232.527344 15.0625 233.070312 15.617188 C 233.609375 16.171875 233.882812 16.945312 233.882812 17.929688 C 233.882812 18.734375 233.757812 19.367188 233.507812 19.824219 C 233.265625 20.28125 232.921875 20.648438 232.464844 20.90625 C 232.007812 21.15625 231.507812 21.28125 230.964844 21.28125 C 230.089844 21.28125 229.382812 21.007812 228.839844 20.449219 C 228.308594 19.882812 228.046875 19.074219 228.046875 18.03125 Z M 229.132812 18.03125 C 229.132812 18.824219 229.304688 19.421875 229.652344 19.824219 C 229.996094 20.214844 230.433594 20.40625 230.964844 20.40625 C 231.492188 20.40625 231.929688 20.214844 232.277344 19.824219 C 232.621094 19.421875 232.796875 18.8125 232.796875 17.992188 C 232.796875 17.230469 232.621094 16.648438 232.277344 16.242188 C 231.929688 15.839844 231.492188 15.636719 230.964844 15.636719 C 230.433594 15.636719 229.996094 15.839844 229.652344 16.242188 C 229.304688 16.632812 229.132812 17.230469 229.132812 18.03125 Z M 229.132812 18.03125 "/>
<path style=" stroke:none;fill-rule:nonzero;fill:rgb(0%,0%,0%);fill-opacity:1;" d="M 235.117188 21.136719 L 235.117188 14.90625 L 236.078125 14.90625 L 236.078125 15.804688 C 236.519531 15.125 237.179688 14.78125 238.054688 14.78125 C 238.429688 14.78125 238.769531 14.855469 239.078125 14.992188 C 239.394531 15.117188 239.628906 15.292969 239.785156 15.511719 C 239.9375 15.71875 240.046875 15.980469 240.117188 16.28125 C 240.160156 16.480469 240.179688 16.820312 240.179688 17.304688 L 240.179688 21.136719 L 239.117188 21.136719 L 239.117188 17.34375 C 239.117188 16.917969 239.078125 16.59375 238.992188 16.386719 C 238.910156 16.179688 238.765625 16.011719 238.554688 15.886719 C 238.347656 15.75 238.101562 15.679688 237.828125 15.679688 C 237.378906 15.679688 236.992188 15.824219 236.660156 16.117188 C 236.335938 16.398438 236.179688 16.9375 236.179688 17.742188 L 236.179688 21.136719 Z M 235.117188 21.136719 "/>
<path style=" stroke:none;fill-rule:nonzero;fill:rgb(0%,0%,0%);fill-opacity:1;" d="M 246.042969 19.136719 L 247.148438 19.261719 C 246.964844 19.902344 246.636719 20.402344 246.167969 20.761719 C 245.710938 21.109375 245.117188 21.28125 244.398438 21.28125 C 243.492188 21.28125 242.773438 21.007812 242.230469 20.449219 C 241.699219 19.882812 241.4375 19.089844 241.4375 18.074219 C 241.4375 17.03125 241.710938 16.230469 242.25 15.65625 C 242.792969 15.074219 243.492188 14.78125 244.355469 14.78125 C 245.1875 14.78125 245.859375 15.070312 246.375 15.636719 C 246.902344 16.195312 247.167969 16.984375 247.167969 18.011719 C 247.167969 18.085938 247.167969 18.179688 247.167969 18.304688 L 242.523438 18.304688 C 242.5625 18.984375 242.757812 19.507812 243.105469 19.867188 C 243.449219 20.230469 243.886719 20.40625 244.417969 20.40625 C 244.804688 20.40625 245.132812 20.3125 245.398438 20.117188 C 245.671875 19.90625 245.886719 19.585938 246.042969 19.136719 Z M 242.585938 17.429688 L 246.0625 17.429688 C 246.023438 16.902344 245.886719 16.507812 245.667969 16.242188 C 245.335938 15.839844 244.898438 15.636719 244.355469 15.636719 C 243.867188 15.636719 243.460938 15.804688 243.125 16.136719 C 242.804688 16.460938 242.625 16.886719 242.585938 17.429688 Z M 242.585938 17.429688 "/>
<path style=" stroke:none;fill-rule:nonzero;fill:rgb(0%,0%,0%);fill-opacity:1;" d="M 248.050781 19.28125 L 249.09375 19.117188 C 249.144531 19.53125 249.304688 19.855469 249.570312 20.074219 C 249.847656 20.296875 250.222656 20.40625 250.695312 20.40625 C 251.179688 20.40625 251.539062 20.3125 251.78125 20.117188 C 252.015625 19.921875 252.132812 19.695312 252.132812 19.429688 C 252.132812 19.179688 252.03125 18.992188 251.820312 18.867188 C 251.664062 18.773438 251.304688 18.648438 250.738281 18.492188 C 249.957031 18.296875 249.414062 18.132812 249.113281 17.992188 C 248.820312 17.855469 248.597656 17.65625 248.445312 17.40625 C 248.289062 17.15625 248.21875 16.882812 248.21875 16.574219 C 248.21875 16.296875 248.28125 16.042969 248.40625 15.804688 C 248.53125 15.570312 248.703125 15.367188 248.925781 15.199219 C 249.09375 15.089844 249.3125 14.992188 249.59375 14.90625 C 249.882812 14.824219 250.1875 14.78125 250.507812 14.78125 C 250.992188 14.78125 251.414062 14.855469 251.78125 14.992188 C 252.15625 15.132812 252.429688 15.320312 252.613281 15.554688 C 252.789062 15.792969 252.914062 16.109375 252.988281 16.511719 L 251.945312 16.65625 C 251.90625 16.339844 251.765625 16.089844 251.53125 15.90625 C 251.304688 15.730469 250.992188 15.636719 250.59375 15.636719 C 250.101562 15.636719 249.757812 15.71875 249.550781 15.886719 C 249.34375 16.042969 249.238281 16.230469 249.238281 16.449219 C 249.238281 16.589844 249.28125 16.710938 249.363281 16.804688 C 249.445312 16.929688 249.582031 17.027344 249.78125 17.09375 C 249.875 17.136719 250.179688 17.230469 250.695312 17.367188 C 251.445312 17.5625 251.96875 17.71875 252.257812 17.84375 C 252.5625 17.96875 252.800781 18.15625 252.96875 18.40625 C 253.132812 18.648438 253.21875 18.945312 253.21875 19.304688 C 253.21875 19.667969 253.113281 20 252.90625 20.304688 C 252.695312 20.609375 252.394531 20.855469 252.007812 21.03125 C 251.632812 21.199219 251.195312 21.28125 250.695312 21.28125 C 249.890625 21.28125 249.269531 21.117188 248.84375 20.78125 C 248.425781 20.4375 248.160156 19.9375 248.050781 19.28125 Z M 248.050781 19.28125 "/>
<path style=" stroke:none;fill-rule:nonzero;fill:rgb(0%,0%,0%);fill-opacity:1;" d="M 256.488281 23.65625 C 255.90625 22.917969 255.410156 22.0625 255.007812 21.09375 C 254.601562 20.109375 254.40625 19.089844 254.40625 18.03125 C 254.40625 17.105469 254.554688 16.210938 254.863281 15.34375 C 255.207031 14.359375 255.75 13.382812 256.488281 12.40625 L 257.238281 12.40625 C 256.765625 13.214844 256.453125 13.792969 256.300781 14.136719 C 256.0625 14.679688 255.875 15.242188 255.738281 15.824219 C 255.570312 16.5625 255.488281 17.296875 255.488281 18.03125 C 255.488281 19.90625 256.070312 21.78125 257.238281 23.65625 Z M 256.488281 23.65625 "/>
<path style=" stroke:none;fill-rule:nonzero;fill:rgb(0%,0%,0%);fill-opacity:1;" d="M 262.148438 21.136719 L 261.085938 21.136719 L 261.085938 14.40625 C 260.835938 14.65625 260.503906 14.90625 260.085938 15.15625 C 259.671875 15.398438 259.300781 15.570312 258.984375 15.679688 L 258.984375 14.65625 C 259.566406 14.398438 260.078125 14.070312 260.523438 13.679688 C 260.96875 13.277344 261.28125 12.886719 261.460938 12.511719 L 262.148438 12.511719 Z M 262.148438 21.136719 "/>
<path style=" stroke:none;fill-rule:nonzero;fill:rgb(0%,0%,0%);fill-opacity:1;" d="M 265.40625 21.136719 L 265.40625 19.929688 L 266.617188 19.929688 L 266.617188 21.136719 C 266.617188 21.578125 266.53125 21.933594 266.367188 22.199219 C 266.210938 22.476562 265.96875 22.6875 265.636719 22.84375 L 265.34375 22.386719 C 265.5625 22.289062 265.726562 22.140625 265.824219 21.949219 C 265.933594 21.765625 265.996094 21.496094 266.011719 21.136719 Z M 265.40625 21.136719 "/>
<path style=" stroke:none;fill-rule:nonzero;fill:rgb(0%,0%,0%);fill-opacity:1;" d="M 277.054688 20.117188 L 277.054688 21.136719 L 271.367188 21.136719 C 271.367188 20.886719 271.410156 20.648438 271.492188 20.40625 C 271.644531 20.023438 271.878906 19.636719 272.199219 19.261719 C 272.519531 18.886719 272.976562 18.460938 273.574219 17.96875 C 274.503906 17.195312 275.128906 16.585938 275.449219 16.136719 C 275.785156 15.695312 275.949219 15.273438 275.949219 14.867188 C 275.949219 14.449219 275.792969 14.105469 275.492188 13.824219 C 275.199219 13.53125 274.816406 13.386719 274.347656 13.386719 C 273.832031 13.386719 273.417969 13.542969 273.117188 13.84375 C 272.808594 14.152344 272.660156 14.574219 272.660156 15.117188 L 271.574219 14.992188 C 271.644531 14.1875 271.917969 13.574219 272.410156 13.15625 C 272.894531 12.730469 273.542969 12.511719 274.367188 12.511719 C 275.183594 12.511719 275.832031 12.742188 276.304688 13.199219 C 276.789062 13.65625 277.035156 14.21875 277.035156 14.886719 C 277.035156 15.234375 276.960938 15.574219 276.824219 15.90625 C 276.683594 16.242188 276.449219 16.59375 276.117188 16.96875 C 275.792969 17.335938 275.261719 17.835938 274.511719 18.46875 C 273.871094 19 273.460938 19.359375 273.285156 19.554688 C 273.101562 19.75 272.957031 19.9375 272.847656 20.117188 Z M 277.054688 20.117188 "/>
<path style=" stroke:none;fill-rule:nonzero;fill:rgb(0%,0%,0%);fill-opacity:1;" d="M 279.167969 23.65625 L 278.417969 23.65625 C 279.582031 21.78125 280.167969 19.90625 280.167969 18.03125 C 280.167969 17.296875 280.082031 16.570312 279.917969 15.84375 C 279.777344 15.261719 279.589844 14.699219 279.355469 14.15625 C 279.199219 13.8125 278.886719 13.230469 278.417969 12.40625 L 279.167969 12.40625 C 279.902344 13.382812 280.441406 14.359375 280.792969 15.34375 C 281.09375 16.210938 281.25 17.105469 281.25 18.03125 C 281.25 19.089844 281.046875 20.109375 280.644531 21.09375 C 280.238281 22.0625 279.75 22.917969 279.167969 23.65625 Z M 279.167969 23.65625 "/>
<path style=" stroke:none;fill-rule:nonzero;fill:rgb(40.000001%,74.901962%,100%);fill-opacity:1;" d="M 90.667969 168 L 178.667969 168 L 178.667969 136 L 90.667969 136 Z M 90.667969 168 "/>
<path style="fill:none;stroke-width:1;stroke-linecap:round;stroke-linejoin:round;stroke:rgb(0%,0%,0%);stroke-opacity:1;stroke-miterlimit:10;" d="M 68.000977 440 L 134.000977 440 L 134.000977 464 L 68.000977 464 Z M 68.000977 440 " transform="matrix(1.333333,0,0,1.333333,0,-450.666667)"/>
<path style=" stroke:none;fill-rule:nonzero;fill:rgb(0%,0%,0%);fill-opacity:1;" d="M 108.046875 152.699219 C 108.046875 151.546875 108.367188 150.695312 109.007812 150.136719 C 109.546875 149.679688 110.199219 149.449219 110.964844 149.449219 C 111.824219 149.449219 112.527344 149.730469 113.070312 150.28125 C 113.609375 150.839844 113.882812 151.609375 113.882812 152.59375 C 113.882812 153.402344 113.757812 154.03125 113.507812 154.492188 C 113.265625 154.949219 112.921875 155.3125 112.464844 155.574219 C 112.007812 155.824219 111.507812 155.949219 110.964844 155.949219 C 110.089844 155.949219 109.382812 155.671875 108.839844 155.117188 C 108.308594 154.546875 108.046875 153.742188 108.046875 152.699219 Z M 109.132812 152.699219 C 109.132812 153.492188 109.304688 154.089844 109.652344 154.492188 C 109.996094 154.882812 110.433594 155.074219 110.964844 155.074219 C 111.492188 155.074219 111.929688 154.882812 112.277344 154.492188 C 112.621094 154.089844 112.796875 153.480469 112.796875 152.65625 C 112.796875 151.898438 112.621094 151.3125 112.277344 150.90625 C 111.929688 150.507812 111.492188 150.304688 110.964844 150.304688 C 110.433594 150.304688 109.996094 150.507812 109.652344 150.90625 C 109.304688 151.296875 109.132812 151.898438 109.132812 152.699219 Z M 109.132812 152.699219 "/>
<path style=" stroke:none;fill-rule:nonzero;fill:rgb(0%,0%,0%);fill-opacity:1;" d="M 115.117188 155.804688 L 115.117188 149.574219 L 116.078125 149.574219 L 116.078125 150.46875 C 116.519531 149.792969 117.179688 149.449219 118.054688 149.449219 C 118.429688 149.449219 118.769531 149.523438 119.078125 149.65625 C 119.394531 149.78125 119.628906 149.960938 119.785156 150.179688 C 119.9375 150.386719 120.046875 150.648438 120.117188 150.949219 C 120.160156 151.148438 120.179688 151.484375 120.179688 151.96875 L 120.179688 155.804688 L 119.117188 155.804688 L 119.117188 152.011719 C 119.117188 151.585938 119.078125 151.261719 118.992188 151.054688 C 118.910156 150.84375 118.765625 150.679688 118.554688 150.554688 C 118.347656 150.417969 118.101562 150.34375 117.828125 150.34375 C 117.378906 150.34375 116.992188 150.492188 116.660156 150.78125 C 116.335938 151.0625 116.179688 151.605469 116.179688 152.40625 L 116.179688 155.804688 Z M 115.117188 155.804688 "/>
<path style=" stroke:none;fill-rule:nonzero;fill:rgb(0%,0%,0%);fill-opacity:1;" d="M 126.042969 153.804688 L 127.148438 153.929688 C 126.964844 154.570312 126.636719 155.070312 126.167969 155.429688 C 125.710938 155.777344 125.117188 155.949219 124.398438 155.949219 C 123.492188 155.949219 122.773438 155.671875 122.230469 155.117188 C 121.699219 154.546875 121.4375 153.757812 121.4375 152.742188 C 121.4375 151.699219 121.710938 150.898438 122.25 150.324219 C 122.792969 149.742188 123.492188 149.449219 124.355469 149.449219 C 125.1875 149.449219 125.859375 149.734375 126.375 150.304688 C 126.902344 150.859375 127.167969 151.652344 127.167969 152.679688 C 127.167969 152.75 127.167969 152.84375 127.167969 152.96875 L 122.523438 152.96875 C 122.5625 153.652344 122.757812 154.171875 123.105469 154.53125 C 123.449219 154.898438 123.886719 155.074219 124.417969 155.074219 C 124.804688 155.074219 125.132812 154.980469 125.398438 154.78125 C 125.671875 154.574219 125.886719 154.25 126.042969 153.804688 Z M 122.585938 152.09375 L 126.0625 152.09375 C 126.023438 151.570312 125.886719 151.171875 125.667969 150.90625 C 125.335938 150.507812 124.898438 150.304688 124.355469 150.304688 C 123.867188 150.304688 123.460938 150.46875 123.125 150.804688 C 122.804688 151.125 122.625 151.554688 122.585938 152.09375 Z M 122.585938 152.09375 "/>
<path style=" stroke:none;fill-rule:nonzero;fill:rgb(0%,0%,0%);fill-opacity:1;" d="M 128.050781 153.949219 L 129.09375 153.78125 C 129.144531 154.199219 129.304688 154.523438 129.570312 154.742188 C 129.847656 154.964844 130.222656 155.074219 130.695312 155.074219 C 131.179688 155.074219 131.539062 154.980469 131.78125 154.78125 C 132.015625 154.589844 132.132812 154.359375 132.132812 154.09375 C 132.132812 153.84375 132.03125 153.65625 131.820312 153.53125 C 131.664062 153.4375 131.304688 153.3125 130.738281 153.15625 C 129.957031 152.964844 129.414062 152.796875 129.113281 152.65625 C 128.820312 152.523438 128.597656 152.324219 128.445312 152.074219 C 128.289062 151.824219 128.21875 151.546875 128.21875 151.242188 C 128.21875 150.964844 128.28125 150.710938 128.40625 150.46875 C 128.53125 150.234375 128.703125 150.03125 128.925781 149.867188 C 129.09375 149.757812 129.3125 149.65625 129.59375 149.574219 C 129.882812 149.492188 130.1875 149.449219 130.507812 149.449219 C 130.992188 149.449219 131.414062 149.523438 131.78125 149.65625 C 132.15625 149.796875 132.429688 149.984375 132.613281 150.21875 C 132.789062 150.460938 132.914062 150.777344 132.988281 151.179688 L 131.945312 151.324219 C 131.90625 151.007812 131.765625 150.757812 131.53125 150.574219 C 131.304688 150.398438 130.992188 150.304688 130.59375 150.304688 C 130.101562 150.304688 129.757812 150.386719 129.550781 150.554688 C 129.34375 150.710938 129.238281 150.898438 129.238281 151.117188 C 129.238281 151.257812 129.28125 151.375 129.363281 151.46875 C 129.445312 151.59375 129.582031 151.695312 129.78125 151.761719 C 129.875 151.804688 130.179688 151.898438 130.695312 152.03125 C 131.445312 152.230469 131.96875 152.386719 132.257812 152.511719 C 132.5625 152.636719 132.800781 152.824219 132.96875 153.074219 C 133.132812 153.3125 133.21875 153.609375 133.21875 153.96875 C 133.21875 154.335938 133.113281 154.667969 132.90625 154.96875 C 132.695312 155.277344 132.394531 155.523438 132.007812 155.699219 C 131.632812 155.867188 131.195312 155.949219 130.695312 155.949219 C 129.890625 155.949219 129.269531 155.78125 128.84375 155.449219 C 128.425781 155.105469 128.160156 154.605469 128.050781 153.949219 Z M 128.050781 153.949219 "/>
<path style=" stroke:none;fill-rule:nonzero;fill:rgb(0%,0%,0%);fill-opacity:1;" d="M 136.488281 158.324219 C 135.90625 157.585938 135.410156 156.730469 135.007812 155.761719 C 134.601562 154.777344 134.40625 153.757812 134.40625 152.699219 C 134.40625 151.773438 134.554688 150.875 134.863281 150.011719 C 135.207031 149.027344 135.75 148.046875 136.488281 147.074219 L 137.238281 147.074219 C 136.765625 147.882812 136.453125 148.460938 136.300781 148.804688 C 136.0625 149.34375 135.875 149.90625 135.738281 150.492188 C 135.570312 151.230469 135.488281 151.964844 135.488281 152.699219 C 135.488281 154.574219 136.070312 156.449219 137.238281 158.324219 Z M 136.488281 158.324219 "/>
<path style=" stroke:none;fill-rule:nonzero;fill:rgb(0%,0%,0%);fill-opacity:1;" d="M 142.148438 155.804688 L 141.085938 155.804688 L 141.085938 149.074219 C 140.835938 149.324219 140.503906 149.574219 140.085938 149.824219 C 139.671875 150.0625 139.300781 150.234375 138.984375 150.34375 L 138.984375 149.324219 C 139.566406 149.0625 140.078125 148.734375 140.523438 148.34375 C 140.96875 147.945312 141.28125 147.554688 141.460938 147.179688 L 142.148438 147.179688 Z M 142.148438 155.804688 "/>
<path style=" stroke:none;fill-rule:nonzero;fill:rgb(0%,0%,0%);fill-opacity:1;" d="M 145.40625 155.804688 L 145.40625 154.59375 L 146.617188 154.59375 L 146.617188 155.804688 C 146.617188 156.246094 146.53125 156.601562 146.367188 156.867188 C 146.210938 157.140625 145.96875 157.355469 145.636719 157.511719 L 145.34375 157.054688 C 145.5625 156.953125 145.726562 156.808594 145.824219 156.617188 C 145.933594 156.433594 145.996094 156.164062 146.011719 155.804688 Z M 145.40625 155.804688 "/>
<path style=" stroke:none;fill-rule:nonzero;fill:rgb(0%,0%,0%);fill-opacity:1;" d="M 157.054688 154.78125 L 157.054688 155.804688 L 151.367188 155.804688 C 151.367188 155.554688 151.410156 155.3125 151.492188 155.074219 C 151.644531 154.6875 151.878906 154.304688 152.199219 153.929688 C 152.519531 153.554688 152.976562 153.125 153.574219 152.636719 C 154.503906 151.859375 155.128906 151.25 155.449219 150.804688 C 155.785156 150.359375 155.949219 149.9375 155.949219 149.53125 C 155.949219 149.117188 155.792969 148.773438 155.492188 148.492188 C 155.199219 148.199219 154.816406 148.054688 154.347656 148.054688 C 153.832031 148.054688 153.417969 148.210938 153.117188 148.511719 C 152.808594 148.820312 152.660156 149.242188 152.660156 149.78125 L 151.574219 149.65625 C 151.644531 148.855469 151.917969 148.242188 152.410156 147.824219 C 152.894531 147.398438 153.542969 147.179688 154.367188 147.179688 C 155.183594 147.179688 155.832031 147.40625 156.304688 147.867188 C 156.789062 148.324219 157.035156 148.886719 157.035156 149.554688 C 157.035156 149.902344 156.960938 150.242188 156.824219 150.574219 C 156.683594 150.90625 156.449219 151.261719 156.117188 151.636719 C 155.792969 152 155.261719 152.5 154.511719 153.136719 C 153.871094 153.667969 153.460938 154.027344 153.285156 154.21875 C 153.101562 154.417969 152.957031 154.605469 152.847656 154.78125 Z M 157.054688 154.78125 "/>
<path style=" stroke:none;fill-rule:nonzero;fill:rgb(0%,0%,0%);fill-opacity:1;" d="M 159.167969 158.324219 L 158.417969 158.324219 C 159.582031 156.449219 160.167969 154.574219 160.167969 152.699219 C 160.167969 151.964844 160.082031 151.234375 159.917969 150.511719 C 159.777344 149.929688 159.589844 149.367188 159.355469 148.824219 C 159.199219 148.480469 158.886719 147.898438 158.417969 147.074219 L 159.167969 147.074219 C 159.902344 148.046875 160.441406 149.027344 160.792969 150.011719 C 161.09375 150.875 161.25 151.773438 161.25 152.699219 C 161.25 153.757812 161.046875 154.777344 160.644531 155.761719 C 160.238281 156.730469 159.75 157.585938 159.167969 158.324219 Z M 159.167969 158.324219 "/>
<path style=" stroke:none;fill-rule:nonzero;fill:rgb(40.000001%,74.901962%,100%);fill-opacity:1;" d="M 178.667969 168 L 266.667969 168 L 266.667969 136 L 178.667969 136 Z M 178.667969 168 "/>
<path style="fill:none;stroke-width:1;stroke-linecap:round;stroke-linejoin:round;stroke:rgb(0%,0%,0%);stroke-opacity:1;stroke-miterlimit:10;" d="M 134.000977 440 L 200.000977 440 L 200.000977 464 L 134.000977 464 Z M 134.000977 440 " transform="matrix(1.333333,0,0,1.333333,0,-450.666667)"/>
<path style=" stroke:none;fill-rule:nonzero;fill:rgb(0%,0%,0%);fill-opacity:1;" d="M 196.046875 152.699219 C 196.046875 151.546875 196.367188 150.695312 197.007812 150.136719 C 197.546875 149.679688 198.199219 149.449219 198.964844 149.449219 C 199.824219 149.449219 200.527344 149.730469 201.070312 150.28125 C 201.609375 150.839844 201.882812 151.609375 201.882812 152.59375 C 201.882812 153.402344 201.757812 154.03125 201.507812 154.492188 C 201.265625 154.949219 200.921875 155.3125 200.464844 155.574219 C 200.007812 155.824219 199.507812 155.949219 198.964844 155.949219 C 198.089844 155.949219 197.382812 155.671875 196.839844 155.117188 C 196.308594 154.546875 196.046875 153.742188 196.046875 152.699219 Z M 197.132812 152.699219 C 197.132812 153.492188 197.304688 154.089844 197.652344 154.492188 C 197.996094 154.882812 198.433594 155.074219 198.964844 155.074219 C 199.492188 155.074219 199.929688 154.882812 200.277344 154.492188 C 200.621094 154.089844 200.796875 153.480469 200.796875 152.65625 C 200.796875 151.898438 200.621094 151.3125 200.277344 150.90625 C 199.929688 150.507812 199.492188 150.304688 198.964844 150.304688 C 198.433594 150.304688 197.996094 150.507812 197.652344 150.90625 C 197.304688 151.296875 197.132812 151.898438 197.132812 152.699219 Z M 197.132812 152.699219 "/>
<path style=" stroke:none;fill-rule:nonzero;fill:rgb(0%,0%,0%);fill-opacity:1;" d="M 203.117188 155.804688 L 203.117188 149.574219 L 204.078125 149.574219 L 204.078125 150.46875 C 204.519531 149.792969 205.179688 149.449219 206.054688 149.449219 C 206.429688 149.449219 206.769531 149.523438 207.078125 149.65625 C 207.394531 149.78125 207.628906 149.960938 207.785156 150.179688 C 207.9375 150.386719 208.046875 150.648438 208.117188 150.949219 C 208.160156 151.148438 208.179688 151.484375 208.179688 151.96875 L 208.179688 155.804688 L 207.117188 155.804688 L 207.117188 152.011719 C 207.117188 151.585938 207.078125 151.261719 206.992188 151.054688 C 206.910156 150.84375 206.765625 150.679688 206.554688 150.554688 C 206.347656 150.417969 206.101562 150.34375 205.828125 150.34375 C 205.378906 150.34375 204.992188 150.492188 204.660156 150.78125 C 204.335938 151.0625 204.179688 151.605469 204.179688 152.40625 L 204.179688 155.804688 Z M 203.117188 155.804688 "/>
<path style=" stroke:none;fill-rule:nonzero;fill:rgb(0%,0%,0%);fill-opacity:1;" d="M 214.042969 153.804688 L 215.148438 153.929688 C 214.964844 154.570312 214.636719 155.070312 214.167969 155.429688 C 213.710938 155.777344 213.117188 155.949219 212.398438 155.949219 C 211.492188 155.949219 210.773438 155.671875 210.230469 155.117188 C 209.699219 154.546875 209.4375 153.757812 209.4375 152.742188 C 209.4375 151.699219 209.710938 150.898438 210.25 150.324219 C 210.792969 149.742188 211.492188 149.449219 212.355469 149.449219 C 213.1875 149.449219 213.859375 149.734375 214.375 150.304688 C 214.902344 150.859375 215.167969 151.652344 215.167969 152.679688 C 215.167969 152.75 215.167969 152.84375 215.167969 152.96875 L 210.523438 152.96875 C 210.5625 153.652344 210.757812 154.171875 211.105469 154.53125 C 211.449219 154.898438 211.886719 155.074219 212.417969 155.074219 C 212.804688 155.074219 213.132812 154.980469 213.398438 154.78125 C 213.671875 154.574219 213.886719 154.25 214.042969 153.804688 Z M 210.585938 152.09375 L 214.0625 152.09375 C 214.023438 151.570312 213.886719 151.171875 213.667969 150.90625 C 213.335938 150.507812 212.898438 150.304688 212.355469 150.304688 C 211.867188 150.304688 211.460938 150.46875 211.125 150.804688 C 210.804688 151.125 210.625 151.554688 210.585938 152.09375 Z M 210.585938 152.09375 "/>
<path style=" stroke:none;fill-rule:nonzero;fill:rgb(0%,0%,0%);fill-opacity:1;" d="M 216.050781 153.949219 L 217.09375 153.78125 C 217.144531 154.199219 217.304688 154.523438 217.570312 154.742188 C 217.847656 154.964844 218.222656 155.074219 218.695312 155.074219 C 219.179688 155.074219 219.539062 154.980469 219.78125 154.78125 C 220.015625 154.589844 220.132812 154.359375 220.132812 154.09375 C 220.132812 153.84375 220.03125 153.65625 219.820312 153.53125 C 219.664062 153.4375 219.304688 153.3125 218.738281 153.15625 C 217.957031 152.964844 217.414062 152.796875 217.113281 152.65625 C 216.820312 152.523438 216.597656 152.324219 216.445312 152.074219 C 216.289062 151.824219 216.21875 151.546875 216.21875 151.242188 C 216.21875 150.964844 216.28125 150.710938 216.40625 150.46875 C 216.53125 150.234375 216.703125 150.03125 216.925781 149.867188 C 217.09375 149.757812 217.3125 149.65625 217.59375 149.574219 C 217.882812 149.492188 218.1875 149.449219 218.507812 149.449219 C 218.992188 149.449219 219.414062 149.523438 219.78125 149.65625 C 220.15625 149.796875 220.429688 149.984375 220.613281 150.21875 C 220.789062 150.460938 220.914062 150.777344 220.988281 151.179688 L 219.945312 151.324219 C 219.90625 151.007812 219.765625 150.757812 219.53125 150.574219 C 219.304688 150.398438 218.992188 150.304688 218.59375 150.304688 C 218.101562 150.304688 217.757812 150.386719 217.550781 150.554688 C 217.34375 150.710938 217.238281 150.898438 217.238281 151.117188 C 217.238281 151.257812 217.28125 151.375 217.363281 151.46875 C 217.445312 151.59375 217.582031 151.695312 217.78125 151.761719 C 217.875 151.804688 218.179688 151.898438 218.695312 152.03125 C 219.445312 152.230469 219.96875 152.386719 220.257812 152.511719 C 220.5625 152.636719 220.800781 152.824219 220.96875 153.074219 C 221.132812 153.3125 221.21875 153.609375 221.21875 153.96875 C 221.21875 154.335938 221.113281 154.667969 220.90625 154.96875 C 220.695312 155.277344 220.394531 155.523438 220.007812 155.699219 C 219.632812 155.867188 219.195312 155.949219 218.695312 155.949219 C 217.890625 155.949219 217.269531 155.78125 216.84375 155.449219 C 216.425781 155.105469 216.160156 154.605469 216.050781 153.949219 Z M 216.050781 153.949219 "/>
<path style=" stroke:none;fill-rule:nonzero;fill:rgb(0%,0%,0%);fill-opacity:1;" d="M 224.488281 158.324219 C 223.90625 157.585938 223.410156 156.730469 223.007812 155.761719 C 222.601562 154.777344 222.40625 153.757812 222.40625 152.699219 C 222.40625 151.773438 222.554688 150.875 222.863281 150.011719 C 223.207031 149.027344 223.75 148.046875 224.488281 147.074219 L 225.238281 147.074219 C 224.765625 147.882812 224.453125 148.460938 224.300781 148.804688 C 224.0625 149.34375 223.875 149.90625 223.738281 150.492188 C 223.570312 151.230469 223.488281 151.964844 223.488281 152.699219 C 223.488281 154.574219 224.070312 156.449219 225.238281 158.324219 Z M 224.488281 158.324219 "/>
<path style=" stroke:none;fill-rule:nonzero;fill:rgb(0%,0%,0%);fill-opacity:1;" d="M 230.148438 155.804688 L 229.085938 155.804688 L 229.085938 149.074219 C 228.835938 149.324219 228.503906 149.574219 228.085938 149.824219 C 227.671875 150.0625 227.300781 150.234375 226.984375 150.34375 L 226.984375 149.324219 C 227.566406 149.0625 228.078125 148.734375 228.523438 148.34375 C 228.96875 147.945312 229.28125 147.554688 229.460938 147.179688 L 230.148438 147.179688 Z M 230.148438 155.804688 "/>
<path style=" stroke:none;fill-rule:nonzero;fill:rgb(0%,0%,0%);fill-opacity:1;" d="M 233.40625 155.804688 L 233.40625 154.59375 L 234.617188 154.59375 L 234.617188 155.804688 C 234.617188 156.246094 234.53125 156.601562 234.367188 156.867188 C 234.210938 157.140625 233.96875 157.355469 233.636719 157.511719 L 233.34375 157.054688 C 233.5625 156.953125 233.726562 156.808594 233.824219 156.617188 C 233.933594 156.433594 233.996094 156.164062 234.011719 155.804688 Z M 233.40625 155.804688 "/>
<path style=" stroke:none;fill-rule:nonzero;fill:rgb(0%,0%,0%);fill-opacity:1;" d="M 245.054688 154.78125 L 245.054688 155.804688 L 239.367188 155.804688 C 239.367188 155.554688 239.410156 155.3125 239.492188 155.074219 C 239.644531 154.6875 239.878906 154.304688 240.199219 153.929688 C 240.519531 153.554688 240.976562 153.125 241.574219 152.636719 C 242.503906 151.859375 243.128906 151.25 243.449219 150.804688 C 243.785156 150.359375 243.949219 149.9375 243.949219 149.53125 C 243.949219 149.117188 243.792969 148.773438 243.492188 148.492188 C 243.199219 148.199219 242.816406 148.054688 242.347656 148.054688 C 241.832031 148.054688 241.417969 148.210938 241.117188 148.511719 C 240.808594 148.820312 240.660156 149.242188 240.660156 149.78125 L 239.574219 149.65625 C 239.644531 148.855469 239.917969 148.242188 240.410156 147.824219 C 240.894531 147.398438 241.542969 147.179688 242.367188 147.179688 C 243.183594 147.179688 243.832031 147.40625 244.304688 147.867188 C 244.789062 148.324219 245.035156 148.886719 245.035156 149.554688 C 245.035156 149.902344 244.960938 150.242188 244.824219 150.574219 C 244.683594 150.90625 244.449219 151.261719 244.117188 151.636719 C 243.792969 152 243.261719 152.5 242.511719 153.136719 C 241.871094 153.667969 241.460938 154.027344 241.285156 154.21875 C 241.101562 154.417969 240.957031 154.605469 240.847656 154.78125 Z M 245.054688 154.78125 "/>
<path style=" stroke:none;fill-rule:nonzero;fill:rgb(0%,0%,0%);fill-opacity:1;" d="M 247.167969 158.324219 L 246.417969 158.324219 C 247.582031 156.449219 248.167969 154.574219 248.167969 152.699219 C 248.167969 151.964844 248.082031 151.234375 247.917969 150.511719 C 247.777344 149.929688 247.589844 149.367188 247.355469 148.824219 C 247.199219 148.480469 246.886719 147.898438 246.417969 147.074219 L 247.167969 147.074219 C 247.902344 148.046875 248.441406 149.027344 248.792969 150.011719 C 249.09375 150.875 249.25 151.773438 249.25 152.699219 C 249.25 153.757812 249.046875 154.777344 248.644531 155.761719 C 248.238281 156.730469 247.75 157.585938 247.167969 158.324219 Z M 247.167969 158.324219 "/>
</g>
</svg>
